<svg xmlns="http://www.w3.org/2000/svg" version="1.1" width="100" height="100">
<path d="M0 0 C1.12535156 0.00580078 1.12535156 0.00580078 2.2734375 0.01171875 C3.02367188 0.00785156 3.77390625 0.00398437 4.546875 0 C10.14682697 0.01010822 10.14682697 0.01010822 11.2734375 1.13671875 C11.31436687 3.46969308 11.31585473 5.803771 11.2734375 8.13671875 C12.975 8.10578125 12.975 8.10578125 14.7109375 8.07421875 C18.2734375 8.13671875 18.2734375 8.13671875 19.2734375 9.13671875 C19.41458911 11.80730726 19.31590857 14.46104113 19.2734375 17.13671875 C21.9134375 17.13671875 24.5534375 17.13671875 27.2734375 17.13671875 C27.2528125 15.83734375 27.2321875 14.53796875 27.2109375 13.19921875 C27.18944296 11.84506242 27.20195551 10.48915792 27.2734375 9.13671875 C28.2734375 8.13671875 28.2734375 8.13671875 31.8359375 8.07421875 C32.9703125 8.09484375 34.1046875 8.11546875 35.2734375 8.13671875 C35.2528125 7.00234375 35.2321875 5.86796875 35.2109375 4.69921875 C35.2734375 1.13671875 35.2734375 1.13671875 36.2734375 0.13671875 C38.9507513 0.03690661 41.59647925 -0.00208 44.2734375 0.01171875 C45.02367188 0.00785156 45.77390625 0.00398437 46.546875 0 C52.14682697 0.01010822 52.14682697 0.01010822 53.2734375 1.13671875 C53.31436687 3.46969308 53.31585473 5.803771 53.2734375 8.13671875 C54.4078125 8.11609375 55.5421875 8.09546875 56.7109375 8.07421875 C60.2734375 8.13671875 60.2734375 8.13671875 61.2734375 9.13671875 C61.41458911 11.80730726 61.31590857 14.46104113 61.2734375 17.13671875 C63.9134375 17.13671875 66.5534375 17.13671875 69.2734375 17.13671875 C69.2734375 22.74671875 69.2734375 28.35671875 69.2734375 34.13671875 C66.6334375 34.13671875 63.9934375 34.13671875 61.2734375 34.13671875 C61.2940625 35.43609375 61.3146875 36.73546875 61.3359375 38.07421875 C61.35743204 39.42837508 61.34491949 40.78427958 61.2734375 42.13671875 C60.2734375 43.13671875 60.2734375 43.13671875 56.7109375 43.19921875 C55.5765625 43.17859375 54.4421875 43.15796875 53.2734375 43.13671875 C53.2940625 44.27109375 53.3146875 45.40546875 53.3359375 46.57421875 C53.2734375 50.13671875 53.2734375 50.13671875 52.2734375 51.13671875 C49.60284899 51.27787036 46.94911512 51.17918982 44.2734375 51.13671875 C44.2734375 53.77671875 44.2734375 56.41671875 44.2734375 59.13671875 C41.6334375 59.13671875 38.9934375 59.13671875 36.2734375 59.13671875 C36.2940625 60.43609375 36.3146875 61.73546875 36.3359375 63.07421875 C36.35743204 64.42837508 36.34491949 65.78427958 36.2734375 67.13671875 C35.2734375 68.13671875 35.2734375 68.13671875 31.7109375 68.19921875 C30.5765625 68.17859375 29.4421875 68.15796875 28.2734375 68.13671875 C28.2940625 69.27109375 28.3146875 70.40546875 28.3359375 71.57421875 C28.2734375 75.13671875 28.2734375 75.13671875 27.2734375 76.13671875 C25.4609375 76.26953125 25.4609375 76.26953125 23.2734375 76.26171875 C22.5515625 76.26429687 21.8296875 76.266875 21.0859375 76.26953125 C19.2734375 76.13671875 19.2734375 76.13671875 18.2734375 75.13671875 C18.23250813 72.80374442 18.23102027 70.4696665 18.2734375 68.13671875 C17.1390625 68.15734375 16.0046875 68.17796875 14.8359375 68.19921875 C11.2734375 68.13671875 11.2734375 68.13671875 10.2734375 67.13671875 C10.13228589 64.46613024 10.23096643 61.81239637 10.2734375 59.13671875 C7.6334375 59.13671875 4.9934375 59.13671875 2.2734375 59.13671875 C2.2734375 56.49671875 2.2734375 53.85671875 2.2734375 51.13671875 C0.9740625 51.15734375 -0.3253125 51.17796875 -1.6640625 51.19921875 C-3.01821883 51.22071329 -4.37412333 51.20820074 -5.7265625 51.13671875 C-6.7265625 50.13671875 -6.7265625 50.13671875 -6.7890625 46.57421875 C-6.7684375 45.43984375 -6.7478125 44.30546875 -6.7265625 43.13671875 C-8.428125 43.16765625 -8.428125 43.16765625 -10.1640625 43.19921875 C-13.7265625 43.13671875 -13.7265625 43.13671875 -14.7265625 42.13671875 C-14.86771411 39.46613024 -14.76903357 36.81239637 -14.7265625 34.13671875 C-17.3665625 34.13671875 -20.0065625 34.13671875 -22.7265625 34.13671875 C-22.7265625 28.52671875 -22.7265625 22.91671875 -22.7265625 17.13671875 C-20.0865625 17.13671875 -17.4465625 17.13671875 -14.7265625 17.13671875 C-14.7471875 15.83734375 -14.7678125 14.53796875 -14.7890625 13.19921875 C-14.81055704 11.84506242 -14.79804449 10.48915792 -14.7265625 9.13671875 C-13.7265625 8.13671875 -13.7265625 8.13671875 -10.1640625 8.07421875 C-9.0296875 8.09484375 -7.8953125 8.11546875 -6.7265625 8.13671875 C-6.7471875 7.00234375 -6.7678125 5.86796875 -6.7890625 4.69921875 C-6.68992781 -0.95145839 -5.16485768 0.00932285 0 0 Z " fill="#E02C39" transform="translate(26.7265625,11.86328125)"/>
<path d="M0 0 C1.12535156 0.00580078 1.12535156 0.00580078 2.2734375 0.01171875 C3.02367188 0.00785156 3.77390625 0.00398437 4.546875 0 C10.14682697 0.01010822 10.14682697 0.01010822 11.2734375 1.13671875 C11.31436687 3.46969308 11.31585473 5.803771 11.2734375 8.13671875 C12.975 8.10578125 12.975 8.10578125 14.7109375 8.07421875 C18.2734375 8.13671875 18.2734375 8.13671875 19.2734375 9.13671875 C19.41458911 11.80730726 19.31590857 14.46104113 19.2734375 17.13671875 C16.3034375 17.13671875 13.3334375 17.13671875 10.2734375 17.13671875 C10.2734375 14.49671875 10.2734375 11.85671875 10.2734375 9.13671875 C5.3234375 9.46671875 0.3734375 9.79671875 -4.7265625 10.13671875 C-5.0565625 12.44671875 -5.3865625 14.75671875 -5.7265625 17.13671875 C-2.7565625 17.13671875 0.2134375 17.13671875 3.2734375 17.13671875 C3.2734375 20.10671875 3.2734375 23.07671875 3.2734375 26.13671875 C-0.0265625 26.13671875 -3.3265625 26.13671875 -6.7265625 26.13671875 C-6.7265625 23.49671875 -6.7265625 20.85671875 -6.7265625 18.13671875 C-8.7065625 18.46671875 -10.6865625 18.79671875 -12.7265625 19.13671875 C-13.0565625 24.08671875 -13.3865625 29.03671875 -13.7265625 34.13671875 C-11.0865625 34.13671875 -8.4465625 34.13671875 -5.7265625 34.13671875 C-5.7265625 36.77671875 -5.7265625 39.41671875 -5.7265625 42.13671875 C-3.0865625 42.13671875 -0.4465625 42.13671875 2.2734375 42.13671875 C2.2734375 45.10671875 2.2734375 48.07671875 2.2734375 51.13671875 C-3.87890625 51.234375 -3.87890625 51.234375 -5.7265625 51.13671875 C-6.7265625 50.13671875 -6.7265625 50.13671875 -6.7890625 46.57421875 C-6.7684375 45.43984375 -6.7478125 44.30546875 -6.7265625 43.13671875 C-8.428125 43.16765625 -8.428125 43.16765625 -10.1640625 43.19921875 C-13.7265625 43.13671875 -13.7265625 43.13671875 -14.7265625 42.13671875 C-14.86771411 39.46613024 -14.76903357 36.81239637 -14.7265625 34.13671875 C-17.3665625 34.13671875 -20.0065625 34.13671875 -22.7265625 34.13671875 C-22.7265625 28.52671875 -22.7265625 22.91671875 -22.7265625 17.13671875 C-20.0865625 17.13671875 -17.4465625 17.13671875 -14.7265625 17.13671875 C-14.7471875 15.83734375 -14.7678125 14.53796875 -14.7890625 13.19921875 C-14.81055704 11.84506242 -14.79804449 10.48915792 -14.7265625 9.13671875 C-13.7265625 8.13671875 -13.7265625 8.13671875 -10.1640625 8.07421875 C-9.0296875 8.09484375 -7.8953125 8.11546875 -6.7265625 8.13671875 C-6.7471875 7.00234375 -6.7678125 5.86796875 -6.7890625 4.69921875 C-6.68992781 -0.95145839 -5.16485768 0.00932285 0 0 Z " fill="#866B6D" transform="translate(26.7265625,11.86328125)"/>
<path d="M0 0 C5.28 0 10.56 0 16 0 C16 0.33 16 0.66 16 1 C14.02 1.33 12.04 1.66 10 2 C9.67 6.95 9.34 11.9 9 17 C11.64 17 14.28 17 17 17 C17 19.64 17 22.28 17 25 C19.64 25 22.28 25 25 25 C25 27.97 25 30.94 25 34 C18.84765625 34.09765625 18.84765625 34.09765625 17 34 C16 33 16 33 15.9375 29.4375 C15.958125 28.303125 15.97875 27.16875 16 26 C14.2984375 26.0309375 14.2984375 26.0309375 12.5625 26.0625 C9 26 9 26 8 25 C7.85884839 22.32941149 7.95752893 19.67567762 8 17 C5.36 17 2.72 17 0 17 C0 11.39 0 5.78 0 0 Z " fill="#8E6A6D" transform="translate(4,29)"/>
<path d="M0 0 C1.12535156 0.00580078 1.12535156 0.00580078 2.2734375 0.01171875 C3.02367188 0.00785156 3.77390625 0.00398437 4.546875 0 C10.14682697 0.01010822 10.14682697 0.01010822 11.2734375 1.13671875 C11.31436687 3.46969308 11.31585473 5.803771 11.2734375 8.13671875 C12.4078125 8.11609375 13.5421875 8.09546875 14.7109375 8.07421875 C18.2734375 8.13671875 18.2734375 8.13671875 19.2734375 9.13671875 C19.41458911 11.80730726 19.31590857 14.46104113 19.2734375 17.13671875 C16.3034375 17.13671875 13.3334375 17.13671875 10.2734375 17.13671875 C10.2734375 14.49671875 10.2734375 11.85671875 10.2734375 9.13671875 C5.3234375 9.46671875 0.3734375 9.79671875 -4.7265625 10.13671875 C-5.0565625 12.44671875 -5.3865625 14.75671875 -5.7265625 17.13671875 C-8.6965625 17.13671875 -11.6665625 17.13671875 -14.7265625 17.13671875 C-14.82421875 10.984375 -14.82421875 10.984375 -14.7265625 9.13671875 C-13.7265625 8.13671875 -13.7265625 8.13671875 -10.1640625 8.07421875 C-9.0296875 8.09484375 -7.8953125 8.11546875 -6.7265625 8.13671875 C-6.7471875 7.00234375 -6.7678125 5.86796875 -6.7890625 4.69921875 C-6.68992781 -0.95145839 -5.16485768 0.00932285 0 0 Z " fill="#867274" transform="translate(68.7265625,11.86328125)"/>
<path d="M0 0 C2.97 0 5.94 0 9 0 C9 2.64 9 5.28 9 8 C11.64 8 14.28 8 17 8 C17 5.36 17 2.72 17 0 C19.97 0 22.94 0 26 0 C26.09765625 6.15234375 26.09765625 6.15234375 26 8 C25 9 25 9 21.4375 9.0625 C20.303125 9.041875 19.16875 9.02125 18 9 C18.020625 10.134375 18.04125 11.26875 18.0625 12.4375 C18 16 18 16 17 17 C15.1875 17.1328125 15.1875 17.1328125 13 17.125 C12.278125 17.12757812 11.55625 17.13015625 10.8125 17.1328125 C9 17 9 17 8 16 C7.95907063 13.66702567 7.95758277 11.33294775 8 9 C6.2984375 9.0309375 6.2984375 9.0309375 4.5625 9.0625 C1 9 1 9 0 8 C-0.14115161 5.32941149 -0.04247107 2.67567762 0 0 Z " fill="#807172" transform="translate(37,71)"/>
<path d="M0 0 C0 3.3 0 6.6 0 10 C2.97 10 5.94 10 9 10 C9 12.97 9 15.94 9 19 C5.7 19 2.4 19 -1 19 C-1 16.03 -1 13.06 -1 10 C-3.64 10 -6.28 10 -9 10 C-9.09765625 3.84765625 -9.09765625 3.84765625 -9 2 C-6.98634914 -0.01365086 -2.76905449 0 0 0 Z " fill="#9C7377" transform="translate(21,19)"/>
<path d="M0 0 C2.97 0 5.94 0 9 0 C9.09765625 6.15234375 9.09765625 6.15234375 9 8 C8 9 8 9 4.4375 9.0625 C3.303125 9.041875 2.16875 9.02125 1 9 C1.020625 10.134375 1.04125 11.26875 1.0625 12.4375 C1 16 1 16 0 17 C-2.67058851 17.14115161 -5.32432238 17.04247107 -8 17 C-8 14.03 -8 11.06 -8 8 C-5.36 8 -2.72 8 0 8 C0 5.36 0 2.72 0 0 Z " fill="#827072" transform="translate(79,46)"/>
<path d="M0 0 C2.64 0 5.28 0 8 0 C8 5.61 8 11.22 8 17 C5.36 17 2.72 17 0 17 C0 11.39 0 5.78 0 0 Z " fill="#817375" transform="translate(88,29)"/>
<path d="M0 0 C2.64 0 5.28 0 8 0 C8 5.61 8 11.22 8 17 C5.36 17 2.72 17 0 17 C0 11.39 0 5.78 0 0 Z " fill="#817375" transform="translate(4,29)"/>
<path d="M0 0 C1.48831242 0.00667405 2.97660807 0.01863442 4.46484375 0.03515625 C5.22345703 0.03966797 5.98207031 0.04417969 6.76367188 0.04882812 C8.64326246 0.06064945 10.52281274 0.07858547 12.40234375 0.09765625 C11.62761719 0.71125 10.85289063 1.32484375 10.0546875 1.95703125 C8.31107259 3.36424918 6.61127171 4.82787659 4.96484375 6.34765625 C1.85678928 8.47023003 0.09277047 8.51702292 -3.59765625 8.09765625 C-4.59765625 7.09765625 -4.59765625 7.09765625 -4.72265625 4.09765625 C-4.5413536 -0.25360734 -4.46802227 0.12128182 0 0 Z " fill="#8C797B" transform="translate(24.59765625,11.90234375)"/>
<path d="M0 0 C2.97 0 5.94 0 9 0 C9 2.64 9 5.28 9 8 C2.84765625 8.09765625 2.84765625 8.09765625 1 8 C0 7 0 7 -0.0625 3.4375 C-0.041875 2.303125 -0.02125 1.16875 0 0 Z " fill="#807374" transform="translate(20,55)"/>
<path d="M0 0 C2.33294775 -0.04241723 4.66702567 -0.04092937 7 0 C8 1 8 1 8.09765625 2.84765625 C8.04882812 5.92382812 8.04882812 5.92382812 8 9 C5.36 9 2.72 9 0 9 C0 6.03 0 3.06 0 0 Z " fill="#847476" transform="translate(38,20)"/>
<path d="M0 0 C2.64 0 5.28 0 8 0 C8 2.64 8 5.28 8 8 C5.36 8 2.72 8 0 8 C0 5.36 0 2.72 0 0 Z " fill="#817374" transform="translate(63,63)"/>
<path d="M0 0 C2.64 0 5.28 0 8 0 C8 2.64 8 5.28 8 8 C5.36 8 2.72 8 0 8 C0 5.36 0 2.72 0 0 Z " fill="#817374" transform="translate(29,63)"/>
<path d="M0 0 C2.64 0 5.28 0 8 0 C8 2.64 8 5.28 8 8 C5.36 8 2.72 8 0 8 C0 5.36 0 2.72 0 0 Z " fill="#847375" transform="translate(46,29)"/>
<path d="M0 0 C2.64 0 5.28 0 8 0 C8 2.64 8 5.28 8 8 C5.36 8 2.72 8 0 8 C0 5.36 0 2.72 0 0 Z " fill="#FEFBFB" transform="translate(21,29)"/>
<path d="M0 0 C1.64574566 -0.02688151 3.29161413 -0.04634123 4.9375 -0.0625 C5.85402344 -0.07410156 6.77054687 -0.08570313 7.71484375 -0.09765625 C10 0 10 0 11 1 C11.04080783 2.99958364 11.04254356 5.00045254 11 7 C10.01 7.495 10.01 7.495 9 8 C7.49460339 7.05016642 5.99579653 6.08988109 4.5 5.125 C3.6646875 4.59132813 2.829375 4.05765625 1.96875 3.5078125 C1.3190625 3.01023437 0.669375 2.51265625 0 2 C0 1.34 0 0.68 0 0 Z " fill="#8E777D" transform="translate(69,12)"/>
<path d="M0 0 C3.12308506 0.60803426 5.19251662 1.62014042 7.75 3.5 C8.36359375 3.9434375 8.9771875 4.386875 9.609375 4.84375 C10.29773438 5.41609375 10.29773438 5.41609375 11 6 C11 6.33 11 6.66 11 7 C7.37 7 3.74 7 0 7 C0 4.69 0 2.38 0 0 Z " fill="#7C7072" transform="translate(62,13)"/>
<path d="M0 0 C-2.5 2 -2.5 2 -5 4 C-5.825 4.7425 -6.65 5.485 -7.5 6.25 C-10.3112899 8.21790293 -11.64798209 8.38308776 -15 8 C-13.33333333 6.66666667 -11.66666667 5.33333333 -10 4 C-9.175 3.2575 -8.35 2.515 -7.5 1.75 C-4.6887101 -0.21790293 -3.35201791 -0.38308776 0 0 Z " fill="#837476" transform="translate(37,12)"/>
<path d="M0 0 C0 1.65 0 3.3 0 5 C-2.31 5 -4.62 5 -7 5 C-2.25 0 -2.25 0 0 0 Z " fill="#736B6C" transform="translate(38,15)"/>
<path d="M0 0 C2.01920337 1.30406884 4.01924973 2.63823419 6 4 C6 4.33 6 4.66 6 5 C3.69 5 1.38 5 -1 5 C-0.67 3.35 -0.34 1.7 0 0 Z " fill="#726B6C" transform="translate(63,15)"/>
<path d="M0 0 C0.66 0 1.32 0 2 0 C2.66 2.31 3.32 4.62 4 7 C2.68 7 1.36 7 0 7 C0 4.69 0 2.38 0 0 Z " fill="#786E6F" transform="translate(80,48)"/>
</svg>