<svg xmlns="http://www.w3.org/2000/svg" version="1.1"  width="200" 
  height="200" 
  viewBox="0 0 547 425" >
<path d="M0 0 C9.09520297 7.34061657 15.72260981 17.52919961 19.734375 28.4140625 C20.12625 29.44789063 20.518125 30.48171875 20.921875 31.546875 C26.9621035 49.62561446 24.23637032 67.72792258 16.046875 84.6640625 C12.45885426 91.73044876 8.02571281 97.50674834 2.734375 103.4140625 C1.75033716 104.63933291 0.77018299 105.86775149 -0.203125 107.1015625 C-0.88375 107.8646875 -1.564375 108.6278125 -2.265625 109.4140625 C-2.925625 109.4140625 -3.585625 109.4140625 -4.265625 109.4140625 C-4.265625 110.0740625 -4.265625 110.7340625 -4.265625 111.4140625 C-4.925625 111.4140625 -5.585625 111.4140625 -6.265625 111.4140625 C-6.265625 112.0740625 -6.265625 112.7340625 -6.265625 113.4140625 C-7.76953125 114.89453125 -7.76953125 114.89453125 -9.828125 116.6015625 C-12.5910118 118.94686008 -15.23242257 121.32235655 -17.765625 123.9140625 C-21.42842549 127.6260281 -25.30627392 131.02306988 -29.265625 134.4140625 C-30.34395195 135.34481816 -31.42205966 136.27582787 -32.5 137.20703125 C-38.767485 142.61117367 -45.08294878 147.94008047 -51.51171875 153.15234375 C-53.9668737 155.16870505 -56.38437021 157.22296267 -58.79345703 159.29394531 C-65.60152146 165.13418646 -72.64793843 170.6055299 -79.80078125 176.015625 C-83.60791304 178.89882579 -87.36183764 181.84453453 -91.10888672 184.80517578 C-114.37780035 203.12452807 -137.82086251 216.23269134 -168.5078125 214.19921875 C-181.34910987 212.28939407 -190.56391268 204.40963644 -200.265625 196.4140625 C-201.3182251 195.55071289 -201.3182251 195.55071289 -202.39208984 194.66992188 C-206.05604166 191.66452083 -209.71269587 188.65052533 -213.36328125 185.62890625 C-216.36636705 183.14722433 -219.39578363 180.70380995 -222.453125 178.2890625 C-231.80142993 170.8485749 -240.78462265 162.95685083 -249.5703125 154.86328125 C-251.6772605 152.94870677 -253.80677526 151.07894198 -255.9609375 149.21875 C-281.76088094 126.67031458 -281.76088094 126.67031458 -288.265625 111.4140625 C-288.75933594 110.26679688 -289.25304687 109.11953125 -289.76171875 107.9375 C-297.05616507 89.29843319 -297.39080122 68.68123806 -289.953125 50.0390625 C-282.29297825 33.16387354 -271.89888439 22.23197407 -254.828125 14.703125 C-234.71125969 7.42399611 -211.55896811 9.36413422 -192.21484375 18.20703125 C-172.84254966 27.4760168 -157.93051079 38.57246295 -150.265625 59.4140625 C-148.61061389 65.05852143 -147.87841323 70.1664849 -147.890625 76.0390625 C-147.89195435 77.20223999 -147.89195435 77.20223999 -147.89331055 78.38891602 C-148.04533658 85.91381879 -148.7949731 95.42985351 -153.90234375 101.29296875 C-154.35222656 101.66292969 -154.80210937 102.03289062 -155.265625 102.4140625 C-155.30429687 101.18042969 -155.30429687 101.18042969 -155.34375 99.921875 C-155.78874423 91.16357957 -156.88162542 83.66823341 -162.453125 76.6640625 C-172.96067925 68.2580191 -181.72779852 65.35539103 -195.16503906 66.18017578 C-204.36306638 67.2043169 -212.39721804 72.44605265 -218.265625 79.4140625 C-224.46752473 88.37664224 -225.57443286 96.39155504 -223.84375 107 C-220.4530838 118.64128729 -206.85277942 127.08877192 -197.84765625 134.30078125 C-195.22140732 136.45025276 -192.70929047 138.68866338 -190.203125 140.9765625 C-173.34530952 156.99548069 -173.34530952 156.99548069 -151.8359375 162.65234375 C-139.38853534 161.49840525 -130.4986014 152.75594744 -121.7512207 144.55712891 C-117.62878005 140.69813496 -113.31285693 137.13547274 -108.9140625 133.59375 C-105.435715 130.73103922 -102.12718587 127.70052694 -98.80078125 124.6640625 C-96.16546469 122.32516829 -93.45285208 120.11690367 -90.703125 117.9140625 C-81.4471317 110.36243057 -73.69517261 103.53951112 -71.265625 91.4140625 C-70.61410972 83.43567043 -70.54192338 76.14947532 -75.265625 69.4140625 C-81.39854366 62.30687163 -87.66361694 59.1913481 -96.88671875 58.10546875 C-108.86369182 57.53182563 -119.13745631 61.8967471 -128.265625 69.4140625 C-128.925625 70.0740625 -129.585625 70.7340625 -130.265625 71.4140625 C-131.255625 71.4140625 -132.245625 71.4140625 -133.265625 71.4140625 C-132.79620457 48.88188193 -121.94643786 30.35917561 -106.046875 14.890625 C-77.23533706 -10.76459277 -33.4864488 -23.44051416 0 0 Z " fill="#FD8FA5" transform="translate(409.265625,112.5859375)"/>
<path d="M0 0 C11.11799644 9.21017456 19.70022083 23.63989003 21.22094727 38.10107422 C21.33885252 40.28044398 21.37953845 42.44248099 21.375 44.625 C21.37367065 45.78817749 21.37367065 45.78817749 21.37231445 46.97485352 C21.22028842 54.49975629 20.4706519 64.01579101 15.36328125 69.87890625 C14.91339844 70.24886719 14.46351563 70.61882812 14 71 C13.96132813 69.76636719 13.96132813 69.76636719 13.921875 68.5078125 C13.47688077 59.74951707 12.38399958 52.25417091 6.8125 45.25 C-3.69505425 36.8439566 -12.46217352 33.94132853 -25.89941406 34.76611328 C-35.09744138 35.7902544 -43.13159304 41.03199015 -49 48 C-55.20189973 56.96257974 -56.30880786 64.97749254 -54.578125 75.5859375 C-51.1877032 87.22638568 -37.59937185 95.65551875 -28.6015625 102.875 C-22.43720333 107.91015224 -16.53568043 113.27979689 -11 119 C-13.31 119.33 -15.62 119.66 -18 120 C-18 119.01 -18 118.02 -18 117 C-18.66 117 -19.32 117 -20 117 C-20 116.01 -20 115.02 -20 114 C-20.99 114 -21.98 114 -23 114 C-23 112.68 -23 111.36 -23 110 C-23.99 110 -24.98 110 -26 110 C-26.33 109.01 -26.66 108.02 -27 107 C-27 108.65 -27 110.3 -27 112 C-28.32 112 -29.64 112 -31 112 C-29.90801373 115.77231622 -28.45632954 119.10833074 -26.625 122.5625 C-19.93999091 135.75556206 -16.37272914 151.7624688 -16.9921875 166.546875 C-16.9997132 168.90994565 -16.63850938 170.74065913 -16 173 C-16 173.66 -16 174.32 -16 175 C-15.24074219 175.20496094 -14.48148437 175.40992188 -13.69921875 175.62109375 C-12.20841797 176.02521484 -12.20841797 176.02521484 -10.6875 176.4375 C-9.70136719 176.70433594 -8.71523437 176.97117187 -7.69921875 177.24609375 C-5.78482474 177.78079425 -3.88566385 178.37144538 -2 179 C-2 178.34 -2 177.68 -2 177 C-2.66 176.67 -3.32 176.34 -4 176 C-1.13275314 176.57344937 -0.1385485 176.8614515 2 179 C4.44963177 179.02253443 4.44963177 179.02253443 7.125 178.625 C8.03507813 178.51414062 8.94515625 178.40328125 9.8828125 178.2890625 C10.93082031 178.14597656 10.93082031 178.14597656 12 178 C12.33 178.66 12.66 179.32 13 180 C14.41702513 179.85769192 15.8336096 179.71099254 17.25 179.5625 C18.03890625 179.48128906 18.8278125 179.40007812 19.640625 179.31640625 C21.98420509 179.05078294 21.98420509 179.05078294 24.15625 178.4375 C26.40049412 177.9049675 27.82982681 178.30244433 30 179 C30.33 178.01 30.66 177.02 31 176 C32.92578125 175.48046875 32.92578125 175.48046875 35.3125 175.1875 C38.75623147 174.57857386 38.75623147 174.57857386 41.484375 172.54296875 C42.7052817 170.72114611 42.7052817 170.72114611 44 168 C44.7425 168.37125 45.485 168.7425 46.25 169.125 C48.89724597 170.29011751 48.89724597 170.29011751 51 169.1875 C51.66 168.795625 52.32 168.40375 53 168 C54.65740715 167.62331656 56.32345271 167.27942455 58 167 C48.51829974 178.02289536 28.61468179 181.43818297 15.01953125 182.7421875 C-4.41924474 184.20091918 -15.7874336 177.81315605 -30.01708984 165.66796875 C-33.00844939 163.15172048 -36.09534336 160.76531988 -39.1875 158.375 C-45.3930478 153.53689492 -51.40654237 148.4970781 -57.38232422 143.37939453 C-59.02013627 141.98282977 -60.66666774 140.59729267 -62.31640625 139.21484375 C-68.42175478 134.09411294 -74.41036256 128.88710606 -80.26953125 123.484375 C-82.38909587 121.5558441 -84.53090719 119.67311747 -86.69921875 117.80078125 C-112.49377259 95.25973115 -112.49377259 95.25973115 -119 80 C-119.49371094 78.85273438 -119.98742187 77.70546875 -120.49609375 76.5234375 C-127.79054007 57.88437069 -128.12517622 37.26717556 -120.6875 18.625 C-113.02735325 1.74981104 -102.63325939 -9.18208843 -85.5625 -16.7109375 C-56.41889058 -27.25632249 -24.2525643 -17.77162695 0 0 Z " fill="#F98DA2" transform="translate(240,144)"/>
<path d="M0 0 C0.556875 0.515625 1.11375 1.03125 1.6875 1.5625 C1.6875 2.2225 1.6875 2.8825 1.6875 3.5625 C2.56535156 3.66304688 2.56535156 3.66304688 3.4609375 3.765625 C6.5663098 4.8770214 7.49059038 6.59970066 9.3125 9.3125 C10.19808594 10.60414062 10.19808594 10.60414062 11.1015625 11.921875 C13.64204159 16.15183526 14.9398963 19.62929888 14.953125 24.58203125 C14.95699219 25.99258789 14.95699219 25.99258789 14.9609375 27.43164062 C14.95320313 28.40294922 14.94546875 29.37425781 14.9375 30.375 C14.94910156 31.81456055 14.94910156 31.81456055 14.9609375 33.28320312 C14.93680863 42.12040142 13.05379008 49.34067179 9.4375 57.375 C9.1273999 58.07004639 8.8172998 58.76509277 8.49780273 59.48120117 C2.94005957 71.77758358 -3.58108195 83.0743674 -13.3125 92.5625 C-14.59474133 94.17851347 -15.86425936 95.80465727 -17.125 97.4375 C-20.29421638 101.46342327 -23.61601992 104.81671048 -27.546875 108.08984375 C-29.5944282 109.79764808 -31.46671492 111.63980721 -33.3125 113.5625 C-34.3025 113.0675 -34.3025 113.0675 -35.3125 112.5625 C-35.02375 111.91925781 -34.735 111.27601563 -34.4375 110.61328125 C-30.84271456 101.86347364 -29.35307839 92.84498366 -32.75 83.75 C-36.2720418 77.03958351 -42.01639519 72.00615673 -49.1875 69.5625 C-60.3417778 66.93290909 -71.357399 68.46428432 -81.2890625 74.31640625 C-84.52295891 76.54844714 -87.53243925 78.78243925 -90.3125 81.5625 C-91.3025 81.5625 -92.2925 81.5625 -93.3125 81.5625 C-92.84307957 59.03031943 -81.99331286 40.50761311 -66.09375 25.0390625 C-53.38617568 13.72361009 -16.75060507 -10.41253829 0 0 Z " fill="#FA6483" transform="translate(369.3125,102.4375)"/>
<path d="M0 0 C5.72489721 5.72489721 6.87587504 19.35095607 7.0859375 27.21875 C7.07100249 29.26982448 7.03544434 31.32092614 6.97265625 33.37109375 C6.99788211 35.79638041 7.3433228 37.68381298 8 40 C8 40.66 8 41.32 8 42 C8.75925781 42.20496094 9.51851562 42.40992188 10.30078125 42.62109375 C11.29464844 42.89050781 12.28851563 43.15992188 13.3125 43.4375 C14.29863281 43.70433594 15.28476563 43.97117187 16.30078125 44.24609375 C18.21517526 44.78079425 20.11433615 45.37144538 22 46 C22 45.34 22 44.68 22 44 C21.34 43.67 20.68 43.34 20 43 C22.86724686 43.57344937 23.8614515 43.8614515 26 46 C28.44963177 46.02253443 28.44963177 46.02253443 31.125 45.625 C32.03507812 45.51414062 32.94515625 45.40328125 33.8828125 45.2890625 C34.93082031 45.14597656 34.93082031 45.14597656 36 45 C36.33 45.66 36.66 46.32 37 47 C38.41702513 46.85769192 39.8336096 46.71099254 41.25 46.5625 C42.03890625 46.48128906 42.8278125 46.40007812 43.640625 46.31640625 C45.98420509 46.05078294 45.98420509 46.05078294 48.15625 45.4375 C50.40049412 44.9049675 51.82982681 45.30244433 54 46 C54.33 45.01 54.66 44.02 55 43 C56.92578125 42.48046875 56.92578125 42.48046875 59.3125 42.1875 C62.75623147 41.57857386 62.75623147 41.57857386 65.484375 39.54296875 C66.7052817 37.72114611 66.7052817 37.72114611 68 35 C68.7425 35.37125 69.485 35.7425 70.25 36.125 C72.89724597 37.29011751 72.89724597 37.29011751 75 36.1875 C75.66 35.795625 76.32 35.40375 77 35 C78.65740715 34.62331656 80.32345271 34.27942455 82 34 C72.51829974 45.02289536 52.61468179 48.43818297 39.01953125 49.7421875 C27.06347158 50.63939847 15.62421793 49.51348645 5.671875 42.31640625 C3.30294101 39.03421499 3.69399369 36.11386575 3.9375 32.25 C4.19150929 24.70486228 3.3263738 17.95450525 1.75390625 10.5859375 C1.01185332 7.05638005 0.47305122 3.57314415 0 0 Z " fill="#F56F8B" transform="translate(216,277)"/>
<path d="M0 0 C5.77422753 4.07008588 10.94401731 8.62772234 16.1328125 13.4140625 C19.78447349 16.70752241 23.58125258 19.794237 27.40625 22.8828125 C31.01834231 25.83123725 34.51933426 28.89831792 38 32 C37.401875 32.144375 36.80375 32.28875 36.1875 32.4375 C34.43849596 32.8872439 32.71322977 33.42892341 31 34 C31 33.01 31 32.02 31 31 C30.34 31 29.68 31 29 31 C29 30.01 29 29.02 29 28 C28.01 28 27.02 28 26 28 C26 26.68 26 25.36 26 24 C25.01 24 24.02 24 23 24 C22.67 23.01 22.34 22.02 22 21 C22 22.65 22 24.3 22 26 C20.68 26 19.36 26 18 26 C18 27.65 18 29.3 18 31 C14 26.5 14 26.5 14 22 C13.401875 21.78988281 12.80375 21.57976562 12.1875 21.36328125 C9.17574513 19.48631259 8.45537822 17.39486884 7 14.1875 C5.48120077 10.86512669 4.11839865 8.14609548 1.8125 5.30078125 C0 3 0 3 0 0 Z " fill="#F46A86" transform="translate(191,230)"/>
<path d="M0 0 C0 1.65 0 3.3 0 5 C-1.134375 5.433125 -2.26875 5.86625 -3.4375 6.3125 C-4.613125 6.869375 -5.78875 7.42625 -7 8 C-7.33 8.99 -7.66 9.98 -8 11 C-9.66279327 12.0064275 -11.32983484 13.00585407 -13 14 C-14.68538601 15.99665314 -14.68538601 15.99665314 -16 18 C-18.35953094 20.35953094 -19.77895617 20.49141413 -23 21 C-23 21.99 -23 22.98 -23 24 C-25.61941217 25.74627478 -27.03824877 26.38722388 -30 27 C-30 26.34 -30 25.68 -30 25 C-30.66 25 -31.32 25 -32 25 C-32 25.66 -32 26.32 -32 27 C-33.65 27.33 -35.3 27.66 -37 28 C-37.33 27.01 -37.66 26.02 -38 25 C-38.56203125 25.32742188 -39.1240625 25.65484375 -39.703125 25.9921875 C-42.26859964 27.11785494 -43.96842277 27.2068111 -46.75 27.125 C-47.54921875 27.10695313 -48.3484375 27.08890625 -49.171875 27.0703125 C-49.77515625 27.04710937 -50.3784375 27.02390625 -51 27 C-51 26.34 -51 25.68 -51 25 C-51.99 25.33 -52.98 25.66 -54 26 C-54.33 25.01 -54.66 24.02 -55 23 C-53.375 21.875 -53.375 21.875 -51 21 C-49 21.66666667 -47 22.33333333 -45 23 C-34.10020595 24.16982457 -26.50903413 20.91548563 -17.921875 14.40234375 C-13.59655866 10.84610104 -9.50089181 7.06874918 -5.43359375 3.22265625 C-1.90509666 0 -1.90509666 0 0 0 Z " fill="#EE6D87" transform="translate(295,252)"/>
<path d="M0 0 C0.33 0 0.66 0 1 0 C1.90851241 22.03142602 -3.47040026 40.89059599 -17.921875 57.86328125 C-19.8352123 59.83056603 -21.75163237 61.43525766 -24 63 C-24 62.01 -24 61.02 -24 60 C-23.34 60 -22.68 60 -22 60 C-22 59.34 -22 58.68 -22 58 C-21.505 57.505 -21.505 57.505 -21 57 C-21.33 56.34 -21.66 55.68 -22 55 C-21.34 55 -20.68 55 -20 55 C-19.67 54.01 -19.34 53.02 -19 52 C-18.34 52.33 -17.68 52.66 -17 53 C-16.34 50.36 -15.68 47.72 -15 45 C-13.68 45 -12.36 45 -11 45 C-7.9414464 39.2110638 -6.54534222 35.61208084 -8 29 C-7.67 28.01 -7.34 27.02 -7 26 C-6.01 25.67 -5.02 25.34 -4 25 C-4.33 24.01 -4.66 23.02 -5 22 C-4.67 21.34 -4.34 20.68 -4 20 C-3.34 20 -2.68 20 -2 20 C-1.83109082 17.77100213 -1.66496313 15.54179338 -1.5 13.3125 C-1.36078125 11.45044922 -1.36078125 11.45044922 -1.21875 9.55078125 C-1.08658758 7.40550201 -1.00804653 5.2546899 -1.03125 3.10546875 C-1 1 -1 1 0 0 Z " fill="#EFA8B7" transform="translate(432,156)"/>
<path d="M0 0 C0.66 0.33 1.32 0.66 2 1 C-11.67518429 10.27019704 -27.4437427 15.63406943 -44 15 C-44 14.67 -44 14.34 -44 14 C-43.32453125 13.86722656 -42.6490625 13.73445313 -41.953125 13.59765625 C-40.61507812 13.33275391 -40.61507812 13.33275391 -39.25 13.0625 C-38.36828125 12.88847656 -37.4865625 12.71445312 -36.578125 12.53515625 C-34.97969461 12.20336085 -33.38799862 11.83388534 -31.8125 11.40625 C-29.59350727 10.90888956 -28.14083735 11.31187371 -26 12 C-25.67 11.01 -25.34 10.02 -25 9 C-23.07421875 8.48046875 -23.07421875 8.48046875 -20.6875 8.1875 C-17.24376853 7.57857386 -17.24376853 7.57857386 -14.515625 5.54296875 C-13.2947183 3.72114611 -13.2947183 3.72114611 -12 1 C-10.88625 1.556875 -10.88625 1.556875 -9.75 2.125 C-7.08793229 3.28674059 -7.08793229 3.28674059 -4.875 2.1875 C-4.25625 1.795625 -3.6375 1.40375 -3 1 C-2.01 0.67 -1.02 0.34 0 0 Z " fill="#F27992" transform="translate(296,311)"/>
<path d="M0 0 C0.33 0.66 0.66 1.32 1 2 C1.99 2.33 2.98 2.66 4 3 C4 7.62 4 12.24 4 17 C5.32 17.66 6.64 18.32 8 19 C8.33 19.66 8.66 20.32 9 21 C5.66666667 24.33333333 2.33333333 27.66666667 -1 31 C-1.66 30.67 -2.32 30.34 -3 30 C-2.71125 29.35675781 -2.4225 28.71351563 -2.125 28.05078125 C1.75919159 18.59655102 1.83466613 9.97879384 0 0 Z " fill="#F96988" transform="translate(337,185)"/>
<path d="M0 0 C15.87646543 0.72165752 30.12517891 4.80374011 42 16 C41.505 17.485 41.505 17.485 41 19 C40.01 19.33 39.02 19.66 38 20 C37.7525 18.63875 37.7525 18.63875 37.5 17.25 C35.63412161 13.20726349 33.86145639 12.4199465 29.97265625 10.56640625 C27.81792897 9.74637797 27.81792897 9.74637797 25 11 C24.566875 10.236875 24.13375 9.47375 23.6875 8.6875 C19.72330953 4.72330953 15.37727507 4.13057032 10 3 C9.02933594 2.79375 8.05867188 2.5875 7.05859375 2.375 C4.70929697 1.89377847 2.35825984 1.43482014 0 1 C0 0.67 0 0.34 0 0 Z " fill="#EFACBA" transform="translate(371,100)"/>
<path d="M0 0 C0 1.65 0 3.3 0 5 C-1.134375 5.433125 -2.26875 5.86625 -3.4375 6.3125 C-4.613125 6.869375 -5.78875 7.42625 -7 8 C-7.33 8.99 -7.66 9.98 -8 11 C-9.66279327 12.0064275 -11.32983484 13.00585407 -13 14 C-14.68538601 15.99665314 -14.68538601 15.99665314 -16 18 C-19.00617269 21.00617269 -21.82381598 20.59585316 -26 21 C-25.27167969 20.42765625 -24.54335938 19.8553125 -23.79296875 19.265625 C-21.21115418 17.17128591 -18.75958985 14.9988958 -16.3125 12.75 C-2.23041045 0 -2.23041045 0 0 0 Z " fill="#E87994" transform="translate(295,252)"/>
<path d="M0 0 C0.99 0.33 1.98 0.66 3 1 C2.34 2.65 1.68 4.3 1 6 C0.34 6 -0.32 6 -1 6 C-1.28875 6.94875 -1.5775 7.8975 -1.875 8.875 C-3 12 -3 12 -5 14 C-7.625 13.625 -7.625 13.625 -10 13 C-10.33 12.01 -10.66 11.02 -11 10 C-5.555 5.05 -5.555 5.05 0 0 Z " fill="#EA869C" transform="translate(306,241)"/>
<path d="M0 0 C0.66 0 1.32 0 2 0 C2.07427838 3.34252724 2.06546953 5.8035914 1 9 C0.34 9 -0.32 9 -1 9 C-1.33 12.3 -1.66 15.6 -2 19 C-0.68 19.66 0.64 20.32 2 21 C0.1875 23 0.1875 23 -2 25 C-2.99 25 -3.98 25 -5 25 C-4.68035855 16.12994977 -2.90409903 8.37461115 0 0 Z " fill="#E0748F" transform="translate(281,159)"/>
<path d="M0 0 C-2.78511829 2.34124284 -5.57913261 4.67160883 -8.375 7 C-9.1690625 7.66773438 -9.963125 8.33546875 -10.78125 9.0234375 C-11.54179687 9.65507812 -12.30234375 10.28671875 -13.0859375 10.9375 C-13.7876709 11.52402344 -14.4894043 12.11054688 -15.21240234 12.71484375 C-17 14 -17 14 -19 14 C-18.34628248 10.46992539 -17.27148825 7.80150218 -15 5 C-11.3125 4.1875 -11.3125 4.1875 -8 4 C-8 3.01 -8 2.02 -8 1 C-4.85571151 -0.9090323 -3.47925125 -1.04523725 0 0 Z " fill="#F08CA0" transform="translate(354,269)"/>
<path d="M0 0 C1.65 0 3.3 0 5 0 C4.67 0.99 4.34 1.98 4 3 C4.66 3.33 5.32 3.66 6 4 C2.04 6.97 -1.92 9.94 -6 13 C-6.66 12.67 -7.32 12.34 -8 12 C-7.67 10.35 -7.34 8.7 -7 7 C-4 7 -4 7 -2 8 C-1.34 5.36 -0.68 2.72 0 0 Z " fill="#F07F96" transform="translate(306,298)"/>
<path d="M0 0 C0 0.66 0 1.32 0 2 C-1.50390625 3.48046875 -1.50390625 3.48046875 -3.5625 5.1875 C-7.58675247 8.60201725 -11.32190005 12.21845349 -15 16 C-17.1385485 13.8614515 -17.42655063 12.86724686 -18 10 C-16.68 10.33 -15.36 10.66 -14 11 C-13.5875 10.4225 -13.175 9.845 -12.75 9.25 C-10.95908575 6.94739596 -9.19662897 4.92205035 -7 3 C-6.01 3 -5.02 3 -4 3 C-4 2.34 -4 1.68 -4 1 C-2 0 -2 0 0 0 Z " fill="#F3A7B6" transform="translate(403,224)"/>
<path d="M0 0 C0.66 0.33 1.32 0.66 2 1 C1.26418258 2.1549921 0.51069961 3.29874185 -0.25 4.4375 C-0.66765625 5.07558594 -1.0853125 5.71367187 -1.515625 6.37109375 C-3.27248877 8.29902057 -4.46089803 8.61479436 -7 9 C-7.103125 9.5775 -7.20625 10.155 -7.3125 10.75 C-8.12398175 13.40575845 -9.10877881 14.96868835 -11 17 C-13.1875 17.75 -13.1875 17.75 -15 18 C-13.52357373 12.77345099 -10.17768064 9.83173561 -6.375 6.1875 C-5.76398438 5.59001953 -5.15296875 4.99253906 -4.5234375 4.37695312 C-3.02235161 2.91104894 -1.51207138 1.45457007 0 0 Z " fill="#E76C88" transform="translate(306,125)"/>
<path d="M0 0 C2 3 2 3 3 5 C3.99 4.67 4.98 4.34 6 4 C6.33 3.01 6.66 2.02 7 1 C6.49228528 6.96564796 4.61407872 11.63809899 2 17 C1.67 17 1.34 17 1 17 C0.67 11.39 0.34 5.78 0 0 Z " fill="#E391A4" transform="translate(253,198)"/>
<path d="M0 0 C0.33 0.99 0.66 1.98 1 3 C-1.31 3.66 -3.62 4.32 -6 5 C-6 4.34 -6 3.68 -6 3 C-6.66 3 -7.32 3 -8 3 C-8 3.66 -8 4.32 -8 5 C-9.65 5.33 -11.3 5.66 -13 6 C-13.33 5.01 -13.66 4.02 -14 3 C-13.01 3 -12.02 3 -11 3 C-11 2.34 -11 1.68 -11 1 C-3.13953488 -1.56976744 -3.13953488 -1.56976744 0 0 Z " fill="#EC728B" transform="translate(271,274)"/>
<path d="M0 0 C6.46712188 1.16194152 12.09622349 3.1248748 18 6 C17.67 6.66 17.34 7.32 17 8 C11.14398834 7.60298226 8.48231186 6.98427721 4 3 C1.81785432 2.22166466 1.81785432 2.22166466 0 2 C0 1.34 0 0.68 0 0 Z " fill="#EC95A8" transform="translate(204,127)"/>
<path d="M0 0 C-4.5707382 1.5636736 -9.17622209 2.92185585 -13.828125 4.21875 C-16.17156534 4.88754698 -16.17156534 4.88754698 -18 7 C-18 6.34 -18 5.68 -18 5 C-19.98 5 -21.96 5 -24 5 C-20.28809631 2.52539754 -16.86188638 1.81244125 -12.5625 0.8125 C-11.79873047 0.62236328 -11.03496094 0.43222656 -10.24804688 0.23632812 C-9.50748047 0.06166016 -8.76691406 -0.11300781 -8.00390625 -0.29296875 C-7.33174072 -0.4530542 -6.6595752 -0.61313965 -5.96704102 -0.77807617 C-3.73643754 -1.02973542 -2.12986947 -0.66240813 0 0 Z " fill="#E4728B" transform="translate(366,101)"/>
<path d="M0 0 C4.12172083 3.76843047 7.63068221 7.88904305 10 13 C9.67 13.66 9.34 14.32 9 15 C7.35 14.67 5.7 14.34 4 14 C4.226875 13.2575 4.45375 12.515 4.6875 11.75 C5.30258426 8.95202843 5.30258426 8.95202843 3.5625 6.8125 C3.046875 6.214375 2.53125 5.61625 2 5 C2 4.34 2 3.68 2 3 C1.34 3 0.68 3 0 3 C0 2.01 0 1.02 0 0 Z " fill="#F0ABB9" transform="translate(416,121)"/>
<path d="M0 0 C7.48071749 4.34529148 7.48071749 4.34529148 8.75390625 8.40234375 C8.97531367 10.62696116 9.07940124 12.76684001 9 15 C6.43547683 12.54233197 4.79698584 10.06985082 3 7 C2.443125 6.29875 1.88625 5.5975 1.3125 4.875 C0 3 0 3 0 0 Z " fill="#F06E90" transform="translate(191,230)"/>
<path d="M0 0 C0 1.65 0 3.3 0 5 C-1.134375 5.433125 -2.26875 5.86625 -3.4375 6.3125 C-4.613125 6.869375 -5.78875 7.42625 -7 8 C-7.33 8.99 -7.66 9.98 -8 11 C-8.99 11.33 -9.98 11.66 -11 12 C-10.04287732 8.05186893 -4.68782385 0 0 0 Z " fill="#F38298" transform="translate(295,252)"/>
<path d="M0 0 C0.66 0 1.32 0 2 0 C1.96519531 0.96679688 1.93039063 1.93359375 1.89453125 2.9296875 C1.72962792 10.86075254 2.03825139 17.50748119 5 25 C4.01 24.67 3.02 24.34 2 24 C-0.96101753 16.36369163 -0.17604345 8.05887808 0 0 Z " fill="#E495A6" transform="translate(183,202)"/>
<path d="M0 0 C0.99 0.33 1.98 0.66 3 1 C3 2.65 3 4.3 3 6 C-0.13349732 7.04449911 -0.98968256 6.93423645 -4 6 C-1.125 1.125 -1.125 1.125 0 0 Z " fill="#FB839A" transform="translate(300,248)"/>
<path d="M0 0 C-1.47692308 4.67692308 -1.47692308 4.67692308 -4.125 6.3125 C-4.74375 6.539375 -5.3625 6.76625 -6 7 C-6.33 6.67 -6.66 6.34 -7 6 C-8.32 6.99 -9.64 7.98 -11 9 C-11.66 8.67 -12.32 8.34 -13 8 C-11.5433323 6.85204994 -10.08461063 5.70670581 -8.625 4.5625 C-7.40683594 3.60537109 -7.40683594 3.60537109 -6.1640625 2.62890625 C-2.67146283 0 -2.67146283 0 0 0 Z " fill="#E56B86" transform="translate(321,116)"/>
<path d="M0 0 C2.99220268 1.36370299 5.29026529 2.94908083 7.75 5.125 C8.67039063 5.93324219 8.67039063 5.93324219 9.609375 6.7578125 C10.06828125 7.16773438 10.5271875 7.57765625 11 8 C10.67 8.66 10.34 9.32 10 10 C7.125 9.3125 7.125 9.3125 4 8 C2.75 5.5625 2.75 5.5625 2 3 C1.34 2.01 0.68 1.02 0 0 Z " fill="#E56E88" transform="translate(229,263)"/>
<path d="M0 0 C0.33 0.66 0.66 1.32 1 2 C1.99 2.33 2.98 2.66 4 3 C4.33 3.66 4.66 4.32 5 5 C7.30965848 6.05352843 9.6429774 7.05719096 12 8 C11.401875 8.144375 10.80375 8.28875 10.1875 8.4375 C8.43849596 8.8872439 6.71322977 9.42892341 5 10 C5 9.01 5 8.02 5 7 C4.34 7 3.68 7 3 7 C3 6.01 3 5.02 3 4 C2.01 4 1.02 4 0 4 C0 2.68 0 1.36 0 0 Z " fill="#F76988" transform="translate(217,254)"/>
<path d="M0 0 C0 0.33 0 0.66 0 1 C-6.76485645 2.6120509 -13.04958914 3.26618595 -20 3 C-20 2.67 -20 2.34 -20 2 C-19.31292969 1.86722656 -18.62585938 1.73445313 -17.91796875 1.59765625 C-16.56638672 1.33275391 -16.56638672 1.33275391 -15.1875 1.0625 C-13.84751953 0.80146484 -13.84751953 0.80146484 -12.48046875 0.53515625 C-7.74068624 -0.4874425 -4.90378644 -0.83271845 0 0 Z " fill="#E0738D" transform="translate(272,323)"/>
<path d="M0 0 C0.66 0.33 1.32 0.66 2 1 C2 1.66 2 2.32 2 3 C2.62648437 3.18175781 3.25296875 3.36351562 3.8984375 3.55078125 C5.12433594 3.92783203 5.12433594 3.92783203 6.375 4.3125 C7.18710938 4.55613281 7.99921875 4.79976563 8.8359375 5.05078125 C11 6 11 6 13 9 C7.35086937 7.34292168 2.73699363 5.52237988 -2 2 C-1.34 1.34 -0.68 0.68 0 0 Z " fill="#E36981" transform="translate(222,316)"/>
<path d="M0 0 C1.31611677 0.95336021 2.62778961 1.91285774 3.9375 2.875 C4.66839844 3.40867188 5.39929688 3.94234375 6.15234375 4.4921875 C8 6 8 6 9 8 C4.545 7.01 4.545 7.01 0 6 C-1 2 -1 2 0 0 Z " fill="#E66983" transform="translate(199,237)"/>
<path d="M0 0 C0.33 0 0.66 0 1 0 C2.05699482 5.28497409 2.05699482 5.28497409 2 8 C0.0625 10.5 0.0625 10.5 -2 12 C-2.66 11.67 -3.32 11.34 -4 11 C-2.68 7.37 -1.36 3.74 0 0 Z " fill="#E56F8A" transform="translate(338,204)"/>
<path d="M0 0 C0 4.16207365 -0.19112905 6.11759533 -3.0625 9.25 C-3.701875 9.8275 -4.34125 10.405 -5 11 C-5.66 10.67 -6.32 10.34 -7 10 C-5.33248852 6.05860922 -2.77289351 3.2107188 0 0 Z " fill="#E192A2" transform="translate(134,140)"/>
<path d="M0 0 C0.66 0 1.32 0 2 0 C2.07427838 3.34252724 2.06546953 5.8035914 1 9 C0.34 9 -0.32 9 -1 9 C-1.33 9.99 -1.66 10.98 -2 12 C-2.17835515 7.45194365 -1.99785435 4.1205746 0 0 Z " fill="#ED668D" transform="translate(281,159)"/>
<path d="M0 0 C1.9375 0.3125 1.9375 0.3125 4 1 C4.33 1.99 4.66 2.98 5 4 C6.32 4.33 7.64 4.66 9 5 C5.7 5 2.4 5 -1 5 C-1 4.01 -1 3.02 -1 2 C-0.01 2.33 0.98 2.66 2 3 C2 2.34 2 1.68 2 1 C1.34 0.67 0.68 0.34 0 0 Z " fill="#FA6A88" transform="translate(236,320)"/>
<path d="M0 0 C0.97608217 2.92824652 1.08226668 4.95613276 1 8 C-2.36720387 6.60667426 -3.9859524 5.0210714 -6 2 C-4.7934375 1.7834375 -4.7934375 1.7834375 -3.5625 1.5625 C-1.07896294 1.25864751 -1.07896294 1.25864751 0 0 Z " fill="#ED899E" transform="translate(156,256)"/>
<path d="M0 0 C1.32 0.33 2.64 0.66 4 1 C0.535 3.97 0.535 3.97 -3 7 C-3.66 5.02 -4.32 3.04 -5 1 C-3.68 1.33 -2.36 1.66 -1 2 C-0.67 1.34 -0.34 0.68 0 0 Z " fill="#EF9DAE" transform="translate(390,233)"/>
<path d="M0 0 C0.33 0.66 0.66 1.32 1 2 C1.99 2.33 2.98 2.66 4 3 C3.67 8.28 3.34 13.56 3 19 C2.67 19 2.34 19 2 19 C1.93941406 18.13117188 1.87882812 17.26234375 1.81640625 16.3671875 C1.73261719 15.21476563 1.64882813 14.06234375 1.5625 12.875 C1.48128906 11.73804688 1.40007812 10.60109375 1.31640625 9.4296875 C1.02269035 6.2459522 0.56875687 3.14489093 0 0 Z " fill="#DA6981" transform="translate(337,185)"/>
<path d="M0 0 C0.99 0.33 1.98 0.66 3 1 C-0.43361902 4.63559661 -3.7973607 7.36113346 -8 10 C-8 9.01 -8 8.02 -8 7 C-7.01 7 -6.02 7 -5 7 C-5 6.01 -5 5.02 -5 4 C-4.360625 3.71125 -3.72125 3.4225 -3.0625 3.125 C-0.84793921 2.17176549 -0.84793921 2.17176549 0 0 Z " fill="#E89CAB" transform="translate(369,252)"/>
<path d="M0 0 C-4.95 2.97 -4.95 2.97 -10 6 C-10 3 -10 3 -8.8125 1.375 C-5.97782292 -0.77544468 -3.25349317 -1.62674658 0 0 Z " fill="#E37E92" transform="translate(298,312)"/>
<path d="M0 0 C-2.64 1.98 -5.28 3.96 -8 6 C-8 4.35 -8 2.7 -8 1 C-4.59449725 -1.06762667 -4.18836538 -1.04709135 0 0 Z " fill="#E693A1" transform="translate(354,269)"/>
<path d="M0 0 C0.66 0.33 1.32 0.66 2 1 C2.33 1.99 2.66 2.98 3 4 C0.69 4.66 -1.62 5.32 -4 6 C-4 5.34 -4 4.68 -4 4 C-4.66 3.67 -5.32 3.34 -6 3 C-4.02 2.67 -2.04 2.34 0 2 C0 1.34 0 0.68 0 0 Z " fill="#FB7690" transform="translate(269,273)"/>
<path d="M0 0 C1 2 1 2 0.546875 3.91015625 C0.28390625 4.62042969 0.0209375 5.33070313 -0.25 6.0625 C-0.62898438 7.13177734 -0.62898438 7.13177734 -1.015625 8.22265625 C-2 10 -2 10 -5 11 C-3.77472971 6.94718288 -2.30119506 3.55639236 0 0 Z " fill="#E48BA0" transform="translate(125,152)"/>
<path d="M0 0 C0.33 0.99 0.66 1.98 1 3 C3.00016466 4.20882096 3.00016466 4.20882096 5 5 C3.68 5.99 2.36 6.98 1 8 C-0.35439668 5.29120665 -0.06501451 2.99066732 0 0 Z " fill="#E86C88" transform="translate(278,175)"/>
<path d="M0 0 C0.33 0 0.66 0 1 0 C1.36923077 5.41538462 1.36923077 5.41538462 -0.5 8.375 C-0.995 8.91125 -1.49 9.4475 -2 10 C-1.85950482 8.52031676 -1.71245174 7.04125484 -1.5625 5.5625 C-1.48128906 4.73878906 -1.40007812 3.91507813 -1.31640625 3.06640625 C-1 1 -1 1 0 0 Z " fill="#F26D89" transform="translate(382,144)"/>
<path d="M0 0 C-0.33 0.99 -0.66 1.98 -1 3 C-3.97 2.67 -6.94 2.34 -10 2 C-10 1.67 -10 1.34 -10 1 C-6.59437148 0.22157062 -3.49234244 -0.09978121 0 0 Z " fill="#E992A3" transform="translate(171,124)"/>
</svg>