 <svg xmlns="http://www.w3.org/2000/svg" version="1.1" width="100" height="100">
<path d="M0 0 C1.03833984 -0.020625 2.07667969 -0.04125 3.14648438 -0.0625 C9.97455774 -0.09674739 15.94509195 0.68860164 22.3125 3.25 C23.3125 4.25 23.3125 4.25 23.375 7.3125 C23.354375 8.281875 23.33375 9.25125 23.3125 10.25 C23.92738281 10.14300781 24.54226562 10.03601562 25.17578125 9.92578125 C26.38814453 9.74595703 26.38814453 9.74595703 27.625 9.5625 C28.42550781 9.43488281 29.22601563 9.30726562 30.05078125 9.17578125 C32.3125 9.25 32.3125 9.25 34.04296875 10.60546875 C37.08582488 14.54713776 36.72286419 18.45246962 36.3125 23.25 C34.73920895 30.91824537 31.5700289 34.80685332 25.3125 39.5 C22.50551945 41.13740532 20.50834827 41.87401785 17.3125 42.25 C17.8075 44.725 17.8075 44.725 18.3125 47.25 C16.9925 47.25 15.6725 47.25 14.3125 47.25 C13.9825 46.59 13.6525 45.93 13.3125 45.25 C8.17100346 50.8789167 6.01130206 55.54980916 6.3125 63.25 C6.93301008 66.53402032 7.63111364 68.16447727 10.3125 70.25 C11.23869141 70.37955078 11.23869141 70.37955078 12.18359375 70.51171875 C16.88042471 72.14052802 19.21890411 78.01679513 21.3125 82.25 C21.89755962 84.9676963 21.79559975 86.47217646 21.3125 89.25 C19.41626798 91.14623202 16.64879641 90.37897626 14.1262207 90.38894653 C12.82624146 90.38591019 12.82624146 90.38591019 11.5 90.3828125 C10.17391724 90.38424759 10.17391724 90.38424759 8.82104492 90.38571167 C6.94807871 90.38639351 5.07511014 90.38453893 3.20214844 90.38037109 C0.32481612 90.37502289 -2.55236008 90.38031593 -5.4296875 90.38671875 C-7.24479201 90.38605797 -9.05989643 90.38477681 -10.875 90.3828125 C-11.74165283 90.38483673 -12.60830566 90.38686096 -13.5012207 90.38894653 C-19.57254991 90.36495009 -19.57254991 90.36495009 -20.6875 89.25 C-21.80426565 82.82859749 -19.14640514 78.98934717 -15.8046875 73.60546875 C-13.27502539 70.79110297 -11.25584418 70.31856919 -7.6875 69.25 C-4.96929624 65.17269436 -5.30183523 62.0256786 -5.6875 57.25 C-6.8117734 52.03745968 -9.18765942 49.11824485 -12.6875 45.25 C-13.0175 45.91 -13.3475 46.57 -13.6875 47.25 C-15.0075 47.25 -16.3275 47.25 -17.6875 47.25 C-17.3575 45.6 -17.0275 43.95 -16.6875 42.25 C-17.27917969 42.07984375 -17.87085937 41.9096875 -18.48046875 41.734375 C-24.01486729 40.03703907 -28.67777119 38.55413042 -31.83984375 33.35546875 C-34.37223949 28.49795522 -35.82778733 24.26444012 -35.875 18.75 C-35.88917969 17.9971875 -35.90335938 17.244375 -35.91796875 16.46875 C-35.65750524 13.96123689 -35.01935516 12.38096826 -33.6875 10.25 C-31.16696405 8.98973202 -29.8332902 9.33125555 -27.0625 9.6875 C-26.24523438 9.78933594 -25.42796875 9.89117187 -24.5859375 9.99609375 C-23.95945312 10.07988281 -23.33296875 10.16367188 -22.6875 10.25 C-22.6875 8.27 -22.6875 6.29 -22.6875 4.25 C-15.04620724 0.16279689 -8.5090085 0.04148206 0 0 Z M-28.6875 15.25 C-30.23840815 16.80090815 -29.89427311 18.28696233 -29.9375 20.4375 C-29.8582139 25.44045314 -28.86843429 28.995757 -25.29296875 32.69140625 C-22.53150229 35.14526632 -20.27514914 36.52937069 -16.6875 37.25 C-16.88085938 36.56035156 -17.07421875 35.87070312 -17.2734375 35.16015625 C-18.91988147 29.21828666 -20.40235619 23.28029017 -21.6875 17.25 C-23.3375 17.25 -24.9875 17.25 -26.6875 17.25 C-26.6875 16.59 -26.6875 15.93 -26.6875 15.25 C-27.3475 15.25 -28.0075 15.25 -28.6875 15.25 Z M27.3125 15.25 C27.3125 15.91 27.3125 16.57 27.3125 17.25 C25.6625 17.58 24.0125 17.91 22.3125 18.25 C21.6641711 20.47844214 21.01893631 22.7077846 20.375 24.9375 C19.83552734 26.79955078 19.83552734 26.79955078 19.28515625 28.69921875 C18.50523569 31.54639862 17.83962784 34.34802254 17.3125 37.25 C23.15587138 35.99784899 26.04352506 33.03100896 29.3125 28.25 C30.27320434 25.36788698 30.41831883 23.55149956 30.375 20.5625 C30.36597656 19.75425781 30.35695313 18.94601563 30.34765625 18.11328125 C30.33605469 17.49839844 30.32445313 16.88351563 30.3125 16.25 C29.3225 15.92 28.3325 15.59 27.3125 15.25 Z " fill="#EEA823" transform="translate(49.6875,3.75)"/>
<path d="M0 0 C1.16144531 0.00902344 2.32289062 0.01804688 3.51953125 0.02734375 C4.39996094 0.03894531 5.28039063 0.05054688 6.1875 0.0625 C6.1875 1.3825 6.1875 2.7025 6.1875 4.0625 C5.1975 4.3925 4.2075 4.7225 3.1875 5.0625 C5.4975 5.7225 7.8075 6.3825 10.1875 7.0625 C11.37508871 11.44668165 12.13474597 15.56118716 11.1875 20.0625 C8.4863589 23.90058253 5.06191895 26.47955403 1.1875 29.0625 C-3.59070166 28.98543223 -5.82880459 28.78957922 -9.6875 25.9375 C-12.18109679 22.56381022 -12.93566723 20.12781558 -13.8125 16.0625 C-14.85255702 19.44268531 -14.89254482 22.5405279 -14.8125 26.0625 C-16.67026765 22.92751708 -17.01390476 20.68778568 -16.8125 17.0625 C-17.59625 17.26875 -18.38 17.475 -19.1875 17.6875 C-20.05375 17.81125 -20.92 17.935 -21.8125 18.0625 C-22.4725 17.4025 -23.1325 16.7425 -23.8125 16.0625 C-24.15823147 21.82469112 -24.15696833 26.10346075 -20.8125 31.0625 C-18.33195343 33.41249149 -16.40663481 34.850309 -13.1875 36 C-10.00375378 37.42430752 -9.14638516 38.87599656 -7.8125 42.0625 C-8.125 44.875 -8.125 44.875 -8.8125 47.0625 C-10.1325 47.0625 -11.4525 47.0625 -12.8125 47.0625 C-12.4825 45.4125 -12.1525 43.7625 -11.8125 42.0625 C-12.40417969 41.89234375 -12.99585937 41.7221875 -13.60546875 41.546875 C-19.13986729 39.84953907 -23.80277119 38.36663042 -26.96484375 33.16796875 C-29.49723949 28.31045522 -30.95278733 24.07694012 -31 18.5625 C-31.01417969 17.8096875 -31.02835938 17.056875 -31.04296875 16.28125 C-30.78250524 13.77373689 -30.14435516 12.19346826 -28.8125 10.0625 C-26.29196405 8.80223202 -24.9582902 9.14375555 -22.1875 9.5 C-21.37023438 9.60183594 -20.55296875 9.70367187 -19.7109375 9.80859375 C-19.08445312 9.89238281 -18.45796875 9.97617188 -17.8125 10.0625 C-17.8125 8.0825 -17.8125 6.1025 -17.8125 4.0625 C-11.63711387 0.75938649 -6.97431738 -0.07044765 0 0 Z " fill="#F3BE22" transform="translate(44.8125,3.9375)"/>
<path d="M0 0 C1.32 0.33 2.64 0.66 4 1 C3.34 2.32 2.68 3.64 2 5 C3.02714661 6.2505313 3.02714661 6.2505313 5.22485352 6.11352539 C6.18319092 6.10828857 7.14152832 6.10305176 8.12890625 6.09765625 C9.16337891 6.09443359 10.19785156 6.09121094 11.26367188 6.08789062 C12.35228516 6.07951172 13.44089844 6.07113281 14.5625 6.0625 C15.65498047 6.05798828 16.74746094 6.05347656 17.87304688 6.04882812 C20.58208495 6.03699826 23.29101599 6.02051543 26 6 C25.34 4.02 24.68 2.04 24 0 C25.32 0 26.64 0 28 0 C31.68019537 4.13647976 35.45227181 9.4095497 35.5 15.125 C35 18 35 18 34 19 C31.0546443 19.10110353 28.1332244 19.13969279 25.1875 19.1328125 C23.86141724 19.13424759 23.86141724 19.13424759 22.50854492 19.13571167 C20.63557871 19.13639351 18.76261014 19.13453893 16.88964844 19.13037109 C14.01231612 19.12502289 11.13513992 19.13031593 8.2578125 19.13671875 C6.44270799 19.13605797 4.62760357 19.13477681 2.8125 19.1328125 C1.94584717 19.13483673 1.07919434 19.13686096 0.1862793 19.13894653 C-5.88504991 19.11495009 -5.88504991 19.11495009 -7 18 C-8.15650998 11.35006761 -5.20670919 7.57854153 -1.53125 2.16015625 C-1.0259375 1.44730469 -0.520625 0.73445313 0 0 Z " fill="#A64400" transform="translate(36,75)"/>
<path d="M0 0 C0.9796875 -0.01417969 1.959375 -0.02835938 2.96875 -0.04296875 C5.5 0.1875 5.5 0.1875 7.5 2.1875 C8.24055835 7.05279611 8.21546353 11.01890957 5.625 15.25 C2.79111024 17.83384066 1.24275915 18.34059964 -2.5 18.375 C-3.551875 18.39626953 -3.551875 18.39626953 -4.625 18.41796875 C-6.5 18.1875 -6.5 18.1875 -8.5 16.1875 C-9.62557256 11.0588831 -10.34639001 5.83161002 -7.5 1.1875 C-4.89820337 -0.11339831 -2.9030812 0.01909922 0 0 Z " fill="#FDE076" transform="translate(43.5,11.8125)"/>
<path d="M0 0 C0.99 0 1.98 0 3 0 C3 1.98 3 3.96 3 6 C3.66 6 4.32 6 5 6 C5 8.97 5 11.94 5 15 C5.66 15.33 6.32 15.66 7 16 C9.625 17.875 9.625 17.875 12 20 C12 20.99 12 21.98 12 23 C5.03220597 24.32719886 -1.92988911 24.08825381 -9 24 C-9 20 -9 20 -6.625 17.3125 C-4 15 -4 15 -2 14 C-1.53193355 11.66255706 -1.17330206 9.30260921 -0.875 6.9375 C-0.62363281 5.00197266 -0.62363281 5.00197266 -0.3671875 3.02734375 C-0.24601562 2.02832031 -0.12484375 1.02929688 0 0 Z " fill="#EBA21C" transform="translate(47,57)"/>
<path d="M0 0 C2.03667615 1.54506466 2.86073078 2.72146156 4 5 C4.70029148 11.36995903 3.81658033 17.23218212 1 23 C-1.9235552 26.53904051 -4.97863684 28.81697428 -9 31 C-8.67 29.68 -8.34 28.36 -8 27 C-7.34 27 -6.68 27 -6 27 C-3.07220442 20.36366336 -2.85731193 14.13440357 -3 7 C-3.66 7.66 -4.32 8.32 -5 9 C-7.125 8.625 -7.125 8.625 -9 8 C-9 5.69 -9 3.38 -9 1 C-5.72429875 -0.09190042 -3.43202271 -0.28600189 0 0 Z " fill="#FBD42B" transform="translate(82,13)"/>
<path d="M0 0 C0.33 0 0.66 0 1 0 C1.042721 1.66611905 1.04063832 3.33382885 1 5 C0 6 0 6 -3.78540039 6.11352539 C-5.47282729 6.11336622 -7.16025905 6.10766917 -8.84765625 6.09765625 C-10.17729652 6.09553383 -10.17729652 6.09553383 -11.53379822 6.09336853 C-14.37673254 6.08775215 -17.21958931 6.07519691 -20.0625 6.0625 C-21.98502491 6.05748711 -23.90755104 6.05292384 -25.83007812 6.04882812 C-30.55341549 6.03777741 -35.27669458 6.02050183 -40 6 C-40.33 4.35 -40.66 2.7 -41 1 C-39.79351807 1.00523682 -38.58703613 1.01047363 -37.34399414 1.01586914 C-32.88436622 1.03391611 -28.42474154 1.04543089 -23.96508789 1.05493164 C-22.03181415 1.05997256 -20.09854424 1.06680519 -18.1652832 1.07543945 C-15.39273128 1.08751565 -12.62022959 1.09323057 -9.84765625 1.09765625 C-8.97786636 1.10281754 -8.10807648 1.10797882 -7.21192932 1.11329651 C-5.14094186 1.11349185 -3.07005676 1.06208168 -1 1 C-0.67 0.67 -0.34 0.34 0 0 Z " fill="#933500" transform="translate(70,88)"/>
<path d="M0 0 C5.28 0 10.56 0 16 0 C17.12336698 4.49346793 17.96465064 8.41598017 17 13 C14.2988589 16.83808253 10.87441895 19.41705403 7 22 C2.38607102 21.92558179 -0.00849489 21.64663377 -3.875 19.125 C-6.88588559 14.69722708 -7.38413812 10.24861394 -8 5 C-6.68 4.34 -5.36 3.68 -4 3 C-4.04125 4.175625 -4.0825 5.35125 -4.125 6.5625 C-4.13983635 10.72409674 -3.31170778 14.06487667 -2 18 C3.82600938 18.51934518 3.82600938 18.51934518 9 16.125 C11.76421813 11.80590917 11.64953758 8.01071847 11 3 C9.33657163 1.33657163 7.2174291 1.63951903 4.9375 1.4375 C4.01839844 1.35371094 3.09929688 1.26992187 2.15234375 1.18359375 C1.08693359 1.09271484 1.08693359 1.09271484 0 1 C0 0.67 0 0.34 0 0 Z " fill="#FCD555" transform="translate(39,11)"/>
<path d="M0 0 C11.22 0 22.44 0 34 0 C33.67 1.32 33.34 2.64 33 4 C22.44 4 11.88 4 1 4 C0.67 2.68 0.34 1.36 0 0 Z " fill="#913400" transform="translate(33,84)"/>
<path d="M0 0 C1.22589844 0.15275391 1.22589844 0.15275391 2.4765625 0.30859375 C3.41628906 0.43427734 3.41628906 0.43427734 4.375 0.5625 C4.375 1.8825 4.375 3.2025 4.375 4.5625 C2.065 4.5625 -0.245 4.5625 -2.625 4.5625 C-4.7808751 11.03012529 -3.62772745 17.22052975 -1.625 23.5625 C-0.965 23.8925 -0.305 24.2225 0.375 24.5625 C0.045 25.5525 -0.285 26.5425 -0.625 27.5625 C-6.01264178 23.04852986 -8.15860302 18.11715805 -8.875 11.12109375 C-8.98328101 7.01318285 -8.82041733 4.13878053 -6.625 0.5625 C-4.10446405 -0.69776798 -2.7707902 -0.35624445 0 0 Z " fill="#FCD73A" transform="translate(22.625,13.4375)"/>
<path d="M0 0 C0.66 0.33 1.32 0.66 2 1 C1.91621094 1.74765625 1.83242188 2.4953125 1.74609375 3.265625 C1.64425781 4.25046875 1.54242188 5.2353125 1.4375 6.25 C1.33308594 7.22453125 1.22867188 8.1990625 1.12109375 9.203125 C0.92093528 13.82613993 1.51051468 15.42694402 4.5625 19 C7 22 7 22 7 26 C4.11734851 26.96088383 2.32337729 27.11670941 -0.66796875 27.09765625 C-1.56064453 27.09443359 -2.45332031 27.09121094 -3.37304688 27.08789062 C-4.76620117 27.07532227 -4.76620117 27.07532227 -6.1875 27.0625 C-7.12787109 27.05798828 -8.06824219 27.05347656 -9.03710938 27.04882812 C-11.35813712 27.03704626 -13.67903644 27.02059558 -16 27 C-16 26.67 -16 26.34 -16 26 C-6.1 25.505 -6.1 25.505 4 25 C2.29065918 20.47404529 2.29065918 20.47404529 -3 19 C-3 15.37 -3 11.74 -3 8 C-3.66 8 -4.32 8 -5 8 C-5 6.68 -5 5.36 -5 4 C-3.35 4 -1.7 4 0 4 C-0.33 3.01 -0.66 2.02 -1 1 C-0.67 0.67 -0.34 0.34 0 0 Z " fill="#E4920F" transform="translate(55,55)"/>
<path d="M0 0 C1.16144531 0.00902344 2.32289062 0.01804688 3.51953125 0.02734375 C4.39996094 0.03894531 5.28039062 0.05054688 6.1875 0.0625 C6.1875 1.3825 6.1875 2.7025 6.1875 4.0625 C3.08438362 4.73411995 -0.02015168 5.39893675 -3.125 6.0625 C-4.00607422 6.25328125 -4.88714844 6.4440625 -5.79492188 6.640625 C-6.64248047 6.82109375 -7.49003906 7.0015625 -8.36328125 7.1875 C-9.14356689 7.35507813 -9.92385254 7.52265625 -10.7277832 7.6953125 C-12.8125 8.0625 -12.8125 8.0625 -15.8125 8.0625 C-15.8125 4.0625 -15.8125 4.0625 -14.125 2.375 C-9.62947289 -0.17651538 -5.07546459 -0.05126732 0 0 Z " fill="#F9CE55" transform="translate(44.8125,3.9375)"/>
<path d="M0 0 C2.475 0.99 2.475 0.99 5 2 C5.35021655 10.88512349 4.89452883 18.55762426 2 27 C1.67 27 1.34 27 1 27 C0.67 20.4 0.34 13.8 0 7 C-1.98 7.99 -1.98 7.99 -4 9 C-4.33 8.01 -4.66 7.02 -5 6 C-4 5 -4 5 -1.4375 4.9375 C-0.2309375 4.9684375 -0.2309375 4.9684375 1 5 C0.67 3.35 0.34 1.7 0 0 Z " fill="#E49310" transform="translate(68,6)"/>
<path d="M0 0 C1.98 0.66 3.96 1.32 6 2 C6.3633218 8.41868512 6.3633218 8.41868512 4.75 11 C3 12 3 12 1 11.9375 C-1.60639453 10.71575256 -2.6304319 9.5228886 -4 7 C-3.83710263 4.31219342 -3.23099103 3.25870996 -1.4375 1.25 C-0.963125 0.8375 -0.48875 0.425 0 0 Z " fill="#FEE58A" transform="translate(42,14)"/>
<path d="M0 0 C0.66 0.33 1.32 0.66 2 1 C2.31241371 3.54941373 2.51303421 6.00361513 2.625 8.5625 C2.66367187 9.27341797 2.70234375 9.98433594 2.7421875 10.71679688 C2.83671783 12.47742425 2.91945817 14.23867728 3 16 C0.36 16 -2.28 16 -5 16 C-5 14.35 -5 12.7 -5 11 C-4.01 10.67 -3.02 10.34 -2 10 C-2.99 9.34 -3.98 8.68 -5 8 C-4.34 7.67 -3.68 7.34 -3 7 C-2.835 6.01 -2.67 5.02 -2.5 4 C-2.335 3.01 -2.17 2.02 -2 1 C-1.34 0.67 -0.68 0.34 0 0 Z " fill="#F8CB4C" transform="translate(48,64)"/>
<path d="M0 0 C1 3 1 3 0 6 C-0.66 6 -1.32 6 -2 6 C-2 6.66 -2 7.32 -2 8 C-2.66 8 -3.32 8 -4 8 C-4.226875 8.804375 -4.45375 9.60875 -4.6875 10.4375 C-5.3371875 11.7059375 -5.3371875 11.7059375 -6 13 C-8.625 13.8125 -8.625 13.8125 -11 14 C-10.67 15.65 -10.34 17.3 -10 19 C-11.32 19 -12.64 19 -14 19 C-14.94319771 15.99891636 -15.15580255 14.4258603 -14.0625 11.4375 C-11.61712814 8.54751507 -9.34012266 7.57410668 -5.94140625 6.046875 C-3.21447552 4.57641738 -1.6976969 2.54654534 0 0 Z " fill="#F2BF20" transform="translate(78,32)"/>
<path d="M0 0 C-0.804375 0.45375 -1.60875 0.9075 -2.4375 1.375 C-6.14001998 5.16782534 -5.89236503 8.87266134 -6 14 C-0.20196125 15.38832938 -0.20196125 15.38832938 5.0625 13.125 C7.45003372 9.27413916 7.2068708 7.32742989 6.4921875 2.98828125 C6.06311956 0.9435829 6.06311956 0.9435829 5 -1 C6.32 -0.34 7.64 0.32 9 1 C9.62739631 9.9752527 9.62739631 9.9752527 7.125 14.0625 C4.29111024 16.64634066 2.74275915 17.15309964 -1 17.1875 C-2.051875 17.20876953 -2.051875 17.20876953 -3.125 17.23046875 C-5 17 -5 17 -7 15 C-8.12557256 9.8713831 -8.84639001 4.64411002 -6 0 C-3.50907189 -1.24546405 -2.58919267 -0.7767578 0 0 Z " fill="#FDDB66" transform="translate(42,13)"/>
<path d="M0 0 C3 1 3 1 4 3 C4.71320567 10.76375311 4.9364022 17.24678289 0.2890625 23.7421875 C-1 25 -1 25 -3 25 C-2.690625 24.278125 -2.38125 23.55625 -2.0625 22.8125 C-0.09098795 17.59379163 0.1313754 12.72402253 0.0625 7.1875 C0.05798828 6.49462891 0.05347656 5.80175781 0.04882812 5.08789062 C0.03713156 3.39188932 0.01919924 1.69593297 0 0 Z M-5 25 C-4.01 25.495 -4.01 25.495 -3 26 C-3.99 26.495 -3.99 26.495 -5 27 C-5 26.34 -5 25.68 -5 25 Z " fill="#F3B930" transform="translate(55,12)"/>
<path d="M0 0 C0.66 0.33 1.32 0.66 2 1 C1.01 1.33 0.02 1.66 -1 2 C-1 3.32 -1 4.64 -1 6 C-0.10539062 5.77183594 0.78921875 5.54367188 1.7109375 5.30859375 C9.15561657 3.5386967 15.44555527 2.55525596 23 4 C23 4.33 23 4.66 23 5 C22.02417969 5.04898437 21.04835938 5.09796875 20.04296875 5.1484375 C18.77066406 5.22320313 17.49835937 5.29796875 16.1875 5.375 C14.29064453 5.47941406 14.29064453 5.47941406 12.35546875 5.5859375 C8.87244766 5.76102939 8.87244766 5.76102939 6 8 C3.73828125 8.6328125 3.73828125 8.6328125 1.3125 9.125 C0.50425781 9.29257813 -0.30398437 9.46015625 -1.13671875 9.6328125 C-1.75160156 9.75398437 -2.36648437 9.87515625 -3 10 C-3.29296875 3.9453125 -3.29296875 3.9453125 -3 2 C-2.01 1.34 -1.02 0.68 0 0 Z " fill="#EEB536" transform="translate(30,6)"/>
<path d="M0 0 C1.32 0.33 2.64 0.66 4 1 C3.34 2.32 2.68 3.64 2 5 C3.01636977 6.23921211 3.01636977 6.23921211 5.13305664 6.11352539 C6.50772095 6.10567017 6.50772095 6.10567017 7.91015625 6.09765625 C9.39418945 6.09282227 9.39418945 6.09282227 10.90820312 6.08789062 C12.46958008 6.07532227 12.46958008 6.07532227 14.0625 6.0625 C15.10728516 6.05798828 16.15207031 6.05347656 17.22851562 6.04882812 C19.8190666 6.03699913 22.40950559 6.02051689 25 6 C24.67 6.66 24.34 7.32 24 8 C14.76 8 5.52 8 -4 8 C-2 3 -2 3 0 0 Z " fill="#AC4900" transform="translate(36,75)"/>
<path d="M0 0 C0.33 0 0.66 0 1 0 C1.19335938 1.14339844 1.38671875 2.28679688 1.5859375 3.46484375 C1.84849766 4.95581037 2.11154361 6.44669149 2.375 7.9375 C2.50132813 8.69224609 2.62765625 9.44699219 2.7578125 10.22460938 C3.10547563 12.16283135 3.54643504 14.08379205 4 16 C4.66 16.33 5.32 16.66 6 17 C5.67 17.99 5.34 18.98 5 20 C0.34475858 16.09966259 -1.94156912 12.03737617 -3 6 C-2.57664687 3.0093901 -2.18770136 2.18770136 0 0 Z " fill="#FCD92C" transform="translate(17,21)"/>
<path d="M0 0 C3.61897173 -0.32899743 5.39503139 -0.44576634 8.375 1.75 C10 4 10 4 10 8 C7.11734851 8.96088383 5.32337729 9.11670941 2.33203125 9.09765625 C1.43935547 9.09443359 0.54667969 9.09121094 -0.37304688 9.08789062 C-1.76620117 9.07532227 -1.76620117 9.07532227 -3.1875 9.0625 C-4.59805664 9.05573242 -4.59805664 9.05573242 -6.03710938 9.04882812 C-8.35813712 9.03704626 -10.67903644 9.02059558 -13 9 C-13 8.67 -13 8.34 -13 8 C-3.1 7.505 -3.1 7.505 7 7 C5.45624577 2.88704012 5.45624577 2.88704012 2.375 1.75 C1.59125 1.5025 0.8075 1.255 0 1 C0 0.67 0 0.34 0 0 Z " fill="#CE7708" transform="translate(52,73)"/>
<path d="M0 0 C0.66 0.33 1.32 0.66 2 1 C1.67515625 1.87011719 1.67515625 1.87011719 1.34375 2.7578125 C-0.28435049 7.32553887 -1.37861182 11.0780464 -1 16 C-2.85776765 12.86501708 -3.20140476 10.62528568 -3 7 C-4.65 7.33 -6.3 7.66 -8 8 C-8 7.01 -8 6.02 -8 5 C-8.99 4.34 -9.98 3.68 -11 3 C-8.69 3.33 -6.38 3.66 -4 4 C-3.67 3.01 -3.34 2.02 -3 1 C-2.01 0.67 -1.02 0.34 0 0 Z " fill="#F6C437" transform="translate(31,14)"/>
<path d="M0 0 C5.28 0 10.56 0 16 0 C16.78206607 3.12826428 17.18665656 5.46838502 17.25 8.625 C17.27578125 9.40101562 17.3015625 10.17703125 17.328125 10.9765625 C17.21984375 11.64429688 17.1115625 12.31203125 17 13 C16.01 13.66 15.02 14.32 14 15 C13.67 10.38 13.34 5.76 13 1 C8.71 1 4.42 1 0 1 C0 0.67 0 0.34 0 0 Z " fill="#F9CB46" transform="translate(39,11)"/>
<path d="M0 0 C2.25738505 1.55681728 2.86684202 2.57631553 3.6875 5.1875 C3.790625 5.785625 3.89375 6.38375 4 7 C3.43796875 6.67257813 2.8759375 6.34515625 2.296875 6.0078125 C-0.26859964 4.88214506 -1.96842277 4.7931889 -4.75 4.875 C-5.94882813 4.90207031 -5.94882813 4.90207031 -7.171875 4.9296875 C-8.07679687 4.96449219 -8.07679687 4.96449219 -9 5 C-9 3.68 -9 2.36 -9 1 C-5.72429875 -0.09190042 -3.43202271 -0.28600189 0 0 Z " fill="#FDDF44" transform="translate(82,13)"/>
<path d="M0 0 C0.99 0 1.98 0 3 0 C3 1.98 3 3.96 3 6 C3.66 6 4.32 6 5 6 C5 8.97 5 11.94 5 15 C5.66 15.33 6.32 15.66 7 16 C5.68 16 4.36 16 3 16 C2.67 13.36 2.34 10.72 2 8 C1.34 8 0.68 8 0 8 C0 5.36 0 2.72 0 0 Z " fill="#F5BC38" transform="translate(47,57)"/>
<path d="M0 0 C0.33 0 0.66 0 1 0 C1.05418326 2.08304538 1.09287551 4.16649768 1.125 6.25 C1.14820312 7.41015625 1.17140625 8.5703125 1.1953125 9.765625 C1.0103949 12.82786046 0.60823023 14.44202751 -1 17 C-2.87824891 15.12175109 -2.39102397 11.96064724 -2.5625 9.4375 C-2.64628906 8.23996094 -2.73007813 7.04242188 -2.81640625 5.80859375 C-2.87699219 4.88175781 -2.93757813 3.95492188 -3 3 C-2.34 3 -1.68 3 -1 3 C-0.67 2.01 -0.34 1.02 0 0 Z " fill="#DD8608" transform="translate(72,9)"/>
<path d="M0 0 C1 1 1 1 1.09765625 3.94140625 C1.08605469 5.13636719 1.07445313 6.33132812 1.0625 7.5625 C1.05347656 8.76003906 1.04445313 9.95757812 1.03515625 11.19140625 C1.02355469 12.11824219 1.01195313 13.04507812 1 14 C0.01 14.495 0.01 14.495 -1 15 C-1 11.04 -1 7.08 -1 3 C-1.66 3.66 -2.32 4.32 -3 5 C-5.125 4.625 -5.125 4.625 -7 4 C-7 3.01 -7 2.02 -7 1 C-4.51588385 -0.24205807 -2.74800896 -0.14092354 0 0 Z " fill="#F1B221" transform="translate(80,17)"/>
<path d="M0 0 C4.29 0 8.58 0 13 0 C13 1.32 13 2.64 13 4 C9.7 4.66 6.4 5.32 3 6 C3.33 5.34 3.66 4.68 4 4 C4.66 4 5.32 4 6 4 C6 3.34 6 2.68 6 2 C3.03 1.505 3.03 1.505 0 1 C0 0.67 0 0.34 0 0 Z " fill="#F8CA4B" transform="translate(38,4)"/>
<path d="M0 0 C2.875 -0.125 2.875 -0.125 6 0 C8 2 8 2 8 6 C5.6875 6.25 5.6875 6.25 3 6 C1.02389614 3.95575462 0 2.8823175 0 0 Z " fill="#EBAB3E" transform="translate(61,5)"/>
<path d="M0 0 C-1 3 -1 3 -3 4 C-4.54023996 4.06950541 -6.08334988 4.08452357 -7.625 4.0625 C-8.85089844 4.04896484 -8.85089844 4.04896484 -10.1015625 4.03515625 C-11.04128906 4.01775391 -11.04128906 4.01775391 -12 4 C-11.67 3.01 -11.34 2.02 -11 1 C-7.50970582 -0.47666292 -3.72563614 -0.07164685 0 0 Z " fill="#FBD870" transform="translate(45,5)"/>
<path d="M0 0 C-0.33 0.66 -0.66 1.32 -1 2 C-1.99 2 -2.98 2 -4 2 C-4 3.65 -4 5.3 -4 7 C-5.65 6.67 -7.3 6.34 -9 6 C-7.01260984 0.46369883 -5.82303895 -0.15323787 0 0 Z " fill="#F5BD2A" transform="translate(47,73)"/>
<path d="M0 0 C2.475 0.99 2.475 0.99 5 2 C4.25675659 4.39489543 3.52942646 5.70777616 1.30859375 6.93359375 C-0.44073501 7.67219923 -2.21934149 8.34049685 -4 9 C-4.33 8.01 -4.66 7.02 -5 6 C-4 5 -4 5 -1.4375 4.9375 C-0.2309375 4.9684375 -0.2309375 4.9684375 1 5 C0.67 3.35 0.34 1.7 0 0 Z " fill="#E09623" transform="translate(68,6)"/>
<path d="M0 0 C-0.33 0.99 -0.66 1.98 -1 3 C-1.99 3 -2.98 3 -4 3 C-4.66 4.65 -5.32 6.3 -6 8 C-6.66 7.67 -7.32 7.34 -8 7 C-7.39816251 4.97954558 -6.72693904 2.97888961 -6 1 C-4 0 -4 0 0 0 Z " fill="#FEE14F" transform="translate(22,13)"/>
<path d="M0 0 C1.98 0 3.96 0 6 0 C6.33 1.32 6.66 2.64 7 4 C4.69 4 2.38 4 0 4 C0 2.68 0 1.36 0 0 Z " fill="#FCDD6F" transform="translate(43,76)"/>
<path d="M0 0 C1.9451 2.91765 2.45276317 4.62537285 3 8 C1.68 8 0.36 8 -1 8 C-1.625 5.6875 -1.625 5.6875 -2 3 C-1.34 2.01 -0.68 1.02 0 0 Z " fill="#F8CB22" transform="translate(65,43)"/>
<path d="M0 0 C1.1171875 1.734375 1.1171875 1.734375 2 4 C1.3203125 6.140625 1.3203125 6.140625 0.125 8.25 C-0.26429687 8.95640625 -0.65359375 9.6628125 -1.0546875 10.390625 C-1.36664063 10.92171875 -1.67859375 11.4528125 -2 12 C-3.15957207 8.52128379 -2.77456651 7.65780355 -1.5625 4.3125 C-1.13130859 3.10013672 -1.13130859 3.10013672 -0.69140625 1.86328125 C-0.46324219 1.24839844 -0.23507813 0.63351563 0 0 Z " fill="#E5961A" transform="translate(67,32)"/>
<path d="M0 0 C2.31 0.33 4.62 0.66 7 1 C7.33 1.99 7.66 2.98 8 4 C6.35 4.33 4.7 4.66 3 5 C3 4.01 3 3.02 3 2 C2.01 1.34 1.02 0.68 0 0 Z " fill="#F5C221" transform="translate(20,17)"/>
<path d="M0 0 C0.66 0.33 1.32 0.66 2 1 C1.360625 1.2475 0.72125 1.495 0.0625 1.75 C-2.18741541 2.81562433 -2.18741541 2.81562433 -2.75 5.125 C-2.8325 5.74375 -2.915 6.3625 -3 7 C-3.66 7 -4.32 7 -5 7 C-5 5.35 -5 3.7 -5 2 C-2.625 0.9375 -2.625 0.9375 0 0 Z " fill="#EFB618" transform="translate(71,39)"/>
<path d="M0 0 C2.9375 0.375 2.9375 0.375 6 1 C6.33 1.66 6.66 2.32 7 3 C4.69 3.33 2.38 3.66 0 4 C0 2.68 0 1.36 0 0 Z " fill="#FBD52E" transform="translate(73,14)"/>
<path d="M0 0 C1.32 0 2.64 0 4 0 C5.75 2.5 5.75 2.5 7 5 C5.68 5 4.36 5 3 5 C1.25 2.5 1.25 2.5 0 0 Z " fill="#953700" transform="translate(60,75)"/>
<path d="M0 0 C0.33 0 0.66 0 1 0 C1 2.31 1 4.62 1 7 C0.34 7 -0.32 7 -1 7 C-1 6.34 -1 5.68 -1 5 C-1.66 5 -2.32 5 -3 5 C-3 4.34 -3 3.68 -3 3 C-2.34 3 -1.68 3 -1 3 C-0.67 2.01 -0.34 1.02 0 0 Z " fill="#D37E09" transform="translate(72,9)"/>
</svg>