<svg xmlns="http://www.w3.org/2000/svg" version="1.1" width="100" height="100">
<path d="M0 0 C15.51 0 31.02 0 47 0 C47 0.99 47 1.98 47 3 C46.01 3 45.02 3 44 3 C44.02618408 4.00264893 44.05236816 5.00529785 44.0793457 6.03833008 C44.17080964 9.80844222 44.22759248 13.57845941 44.2746582 17.34936523 C44.29958609 18.97192959 44.33354187 20.59438422 44.37719727 22.21655273 C44.61686557 31.36060359 44.79275106 38.67773153 39.82641602 46.73876953 C38.6880654 49.0787008 38.6880654 49.0787008 40.0559082 51.6887207 C41.56180118 53.96689051 43.18401732 55.96484699 45 58 C47.36510818 62.73021636 46.55750866 68.88499333 46 74 C43.67688256 80.52358808 39.92014579 84.77999806 33.9296875 88.16015625 C27.80612305 90.82527033 21.03938902 90.94175678 14.75 88.75 C8.74927881 86.19016854 5.3311508 82.59157456 2 77 C-0.20806242 70.37581275 -0.32389331 61.70764146 2.8125 55.375 C4.3493599 52.77234837 6.18439432 50.41355965 8 48 C7.57122559 47.33387695 7.14245117 46.66775391 6.70068359 45.98144531 C1.35197182 36.72280187 1.26765927 29.08591213 1.625 18.75 C1.65517641 17.21489682 1.68253852 15.67973563 1.70703125 14.14453125 C1.77233065 10.42845751 1.8754128 6.71461514 2 3 C1.34 3 0.68 3 0 3 C0 2.01 0 1.02 0 0 Z " fill="#100A03" transform="translate(27,5)"/>
<path d="M0 0 C5.40392317 2.37730728 8.66603206 6.3741694 11.640625 11.38671875 C13.55010776 17.11516704 13.55248215 23.1623438 11.015625 28.69921875 C7.90123723 34.14664612 3.59972402 37.39164028 -2.359375 39.38671875 C-9.18816469 40.28152567 -15.00417769 40.09762866 -20.671875 35.953125 C-24.73510917 32.1814655 -27.98520016 27.84016852 -28.59765625 22.1875 C-28.78021871 16.06685333 -28.18439049 11.32120006 -24.359375 6.38671875 C-16.9946984 -0.2938871 -9.94394354 -2.58476678 0 0 Z " fill="#3053BB" transform="translate(58.359375,52.61328125)"/>
<path d="M0 0 C12.21 0 24.42 0 37 0 C37 2.31 37 4.62 37 7 C34.36 7.33 31.72 7.66 29 8 C29 15.92 29 23.84 29 32 C21.625 31.9375 21.625 31.9375 19.30712891 31.90991211 C15.52836595 31.83099182 15.52836595 31.83099182 12 33 C7.70245555 33.16217149 4.25706852 32.8514137 0 32 C0 24.08 0 16.16 0 8 C1.98 7.67 3.96 7.34 6 7 C3.03 6.505 3.03 6.505 0 6 C0 4.02 0 2.04 0 0 Z " fill="#413202" transform="translate(32,8)"/>
<path d="M0 0 C0.66 0.33 1.32 0.66 2 1 C2.90591398 3.95820059 3.40058396 6.96010437 4 10 C7.3 10 10.6 10 14 10 C12 14 12 14 7 16 C7.99 19.63 8.98 23.26 10 27 C6 26 6 26 4 24.375 C2.12850581 22.78555593 2.12850581 22.78555593 0 23.125 C-2.10508463 23.95314845 -2.10508463 23.95314845 -4.0625 25.5625 C-6 27 -6 27 -9 27 C-7.515 21.555 -7.515 21.555 -6 16 C-7.32 15.34 -8.64 14.68 -10 14 C-10.99 13.34 -11.98 12.68 -13 12 C-13 11.34 -13 10.68 -13 10 C-9.7 10 -6.4 10 -3 10 C-2.690625 8.535625 -2.38125 7.07125 -2.0625 5.5625 C-1.125 1.125 -1.125 1.125 0 0 Z " fill="#12060C" transform="translate(50,57)"/>
<path d="M0 0 C11.55 0 23.1 0 35 0 C33.35 3.63 31.7 7.26 30 11 C29.113125 10.67 28.22625 10.34 27.3125 10 C20.14072428 7.94673088 11.78931 7.8198771 5 11 C4.16151196 9.54462432 3.32936066 8.08559627 2.5 6.625 C1.80390625 5.40683594 1.80390625 5.40683594 1.09375 4.1640625 C0 2 0 2 0 0 Z " fill="#F28B18" transform="translate(33,42)"/>
<path d="M0 0 C3.4375 0.5625 3.4375 0.5625 5.8125 2.1875 C7.82256043 5.12528062 8.36483979 7.0021496 8.4375 10.5625 C6.30706522 15.12771739 6.30706522 15.12771739 3.4375 16.5625 C0.50328994 16.84645581 -1.71348834 17.05798029 -4.5625 16.5625 C-7.55347304 14.02017292 -8.40452557 12.4050303 -9.125 8.5625 C-8.10942024 3.14607461 -5.36154281 0.84655939 0 0 Z " fill="#000804" transform="translate(15.5625,57.4375)"/>
<path d="M0 0 C12.21 0 24.42 0 37 0 C37 1.98 37 3.96 37 6 C24.79 6 12.58 6 0 6 C0 4.02 0 2.04 0 0 Z " fill="#F88F19" transform="translate(32,8)"/>
<path d="M0 0 C1.98 0 3.96 0 6 0 C6 7.92 6 15.84 6 24 C4.02 24 2.04 24 0 24 C0 16.08 0 8.16 0 0 Z " fill="#F0C800" transform="translate(63,16)"/>
<path d="M0 0 C1.98 0 3.96 0 6 0 C6 7.92 6 15.84 6 24 C4.02 24 2.04 24 0 24 C0 16.08 0 8.16 0 0 Z " fill="#E49817" transform="translate(55,16)"/>
<path d="M0 0 C1.98 0 3.96 0 6 0 C6 7.92 6 15.84 6 24 C4.02 24 2.04 24 0 24 C0 16.08 0 8.16 0 0 Z " fill="#E39817" transform="translate(40,16)"/>
<path d="M0 0 C1.98 0 3.96 0 6 0 C6 7.92 6 15.84 6 24 C4.02 24 2.04 24 0 24 C0 16.08 0 8.16 0 0 Z " fill="#F0C700" transform="translate(32,16)"/>
<path d="M0 0 C3.5625 0.3125 3.5625 0.3125 5.5 1.4375 C7.06672245 4.20230433 6.95226435 6.19438517 6.5625 9.3125 C5.5 11.1875 5.5 11.1875 3.5625 12.3125 C0.0625 12.75 0.0625 12.75 -3.4375 12.3125 C-5.4375 10.6875 -5.4375 10.6875 -6.4375 8.3125 C-6.12371717 3.0827861 -5.61102633 0.5100933 0 0 Z " fill="#000904" transform="translate(85.4375,19.6875)"/>
<path d="M0 0 C2.35953094 2.35953094 2.49141413 3.77895617 3 7 C4.98 7 6.96 7 9 7 C8.01 8.485 8.01 8.485 7 10 C6.34 10 5.68 10 5 10 C5.33 12.64 5.66 15.28 6 18 C5.113125 17.443125 4.22625 16.88625 3.3125 16.3125 C1.6728125 15.6628125 1.6728125 15.6628125 0 15 C-2.87391821 16.17274994 -2.87391821 16.17274994 -5 18 C-4.67 15.36 -4.34 12.72 -4 10 C-5.32 9.34 -6.64 8.68 -8 8 C-8 7.67 -8 7.34 -8 7 C-6.02 7 -4.04 7 -2 7 C-1.34 4.69 -0.68 2.38 0 0 Z " fill="#EB2836" transform="translate(50,62)"/>
<path d="M0 0 C6.22608167 5.70724154 9.22413932 10.21730134 9.625 18.8125 C9.40031831 25.85252614 7.70925709 30.73437498 3 36 C0.51818118 38.13949898 -1.8748145 39.95616274 -5 41 C-7.2421875 40.61328125 -7.2421875 40.61328125 -9 40 C-7.73322876 37.46645752 -6.74370327 37.30198565 -4.1875 36.1875 C0.44630744 33.94934614 2.70570648 31.26501365 5.25 26.8125 C7.09290821 19.90159422 6.58608707 13.96450462 3.16796875 7.69140625 C1.93689838 5.90861872 0.57837388 4.47887753 -1 3 C-0.67 2.01 -0.34 1.02 0 0 Z " fill="#010206" transform="translate(64,53)"/>
<path d="M0 0 C4.29 0 8.58 0 13 0 C13 0.33 13 0.66 13 1 C11.35 1 9.7 1 8 1 C8 8.92 8 16.84 8 25 C11.96 24.505 11.96 24.505 16 24 C15.56802365 28.7517398 14.67230705 30.92000054 11 34 C10.67 33.34 10.34 32.68 10 32 C10.66 30.68 11.32 29.36 12 28 C5.4 27.67 -1.2 27.34 -8 27 C-8 26.67 -8 26.34 -8 26 C-3.38 25.67 1.24 25.34 6 25 C6 17.08 6 9.16 6 1 C4.02 1 2.04 1 0 1 C0 0.67 0 0.34 0 0 Z " fill="#170F02" transform="translate(55,15)"/>
<path d="M0 0 C1.65 0 3.3 0 5 0 C5 7.26 5 14.52 5 22 C3.35 22 1.7 22 0 22 C0 14.74 0 7.48 0 0 Z " fill="#FFD400" transform="translate(48,17)"/>
<path d="M0 0 C2.9375 0.8125 2.9375 0.8125 4.9375 2.8125 C5.3125 5.75 5.3125 5.75 4.9375 8.8125 C3.3125 10.75 3.3125 10.75 0.9375 11.8125 C-2.25 11.625 -2.25 11.625 -5.0625 10.8125 C-6.46185013 8.01379973 -6.31515405 5.90751208 -6.0625 2.8125 C-4.31169972 -0.20276715 -3.50175349 -0.21439307 0 0 Z " fill="#06C361" transform="translate(16.0625,60.1875)"/>
<path d="M0 0 C0.33 0.66 0.66 1.32 1 2 C-0.21480305 5.42353587 -2.01771223 7.01180815 -5 9 C-5.7425 8.505 -6.485 8.01 -7.25 7.5 C-12.10503275 5.05510284 -17.71466527 5.45226006 -23 6 C-25.77798643 6.93783311 -25.77798643 6.93783311 -28 8 C-28 7.01 -28 6.02 -28 5 C-22.81154103 1.83137907 -16.86715919 2.50869662 -11 3 C-8.35182608 3.74372417 -6.41564761 4.65173157 -4 6 C-3.896875 5.38125 -3.79375 4.7625 -3.6875 4.125 C-3 2 -3 2 0 0 Z " fill="#09080A" transform="translate(67,47)"/>
<path d="M0 0 C0.33 0 0.66 0 1 0 C1 7.59 1 15.18 1 23 C3.31 23 5.62 23 8 23 C8 23.33 8 23.66 8 24 C1.9453125 24.9765625 1.9453125 24.9765625 0 25 C-0.66 24.34 -1.32 23.68 -2 23 C-1.34 23 -0.68 23 0 23 C0 15.41 0 7.82 0 0 Z M8 0 C8.33 0 8.66 0 9 0 C9 7.59 9 15.18 9 23 C8.67 23 8.34 23 8 23 C8 15.41 8 7.82 8 0 Z " fill="#000000" transform="translate(46,17)"/>
<path d="M0 0 C1.98 1.32 3.96 2.64 6 4 C6.66 3.34 7.32 2.68 8 2 C8.66 3.98 9.32 5.96 10 8 C7.41895019 7.53909825 6.06556549 7.05327196 4 5.375 C2.12850581 3.78555593 2.12850581 3.78555593 0 4.125 C-2.10508463 4.95314845 -2.10508463 4.95314845 -4.0625 6.5625 C-6 8 -6 8 -9 8 C-8.34 6.02 -7.68 4.04 -7 2 C-6.34 2.66 -5.68 3.32 -5 4 C-3.35 2.68 -1.7 1.36 0 0 Z " fill="#0A0A16" transform="translate(50,76)"/>
<path d="M0 0 C0.33 0 0.66 0 1 0 C1 8.58 1 17.16 1 26 C0.34 26.33 -0.32 26.66 -1 27 C-1.22512171 22.87573464 -1.42725588 18.75066151 -1.625 14.625 C-1.68945312 13.449375 -1.75390625 12.27375 -1.8203125 11.0625 C-1.871875 9.94101562 -1.9234375 8.81953125 -1.9765625 7.6640625 C-2.02893066 6.62717285 -2.08129883 5.5902832 -2.13525391 4.52197266 C-2 2 -2 2 0 0 Z " fill="#040400" transform="translate(70,13)"/>
<path d="M0 0 C3.69230769 0.69230769 3.69230769 0.69230769 5 2 C5.04063832 3.66617115 5.042721 5.33388095 5 7 C2.625 7.625 2.625 7.625 0 8 C-0.66 7.34 -1.32 6.68 -2 6 C-1.44444444 1.44444444 -1.44444444 1.44444444 0 0 Z " fill="#06C361" transform="translate(84,22)"/>
<path d="M0 0 C0.99 0 1.98 0 3 0 C1.9024777 2.99324263 1.32317108 3.84610901 -1.625 5.25 C-2.40875 5.4975 -3.1925 5.745 -4 6 C-3.690625 7.1446875 -3.690625 7.1446875 -3.375 8.3125 C-3 11 -3 11 -5 14 C-5.33 11.03 -5.66 8.06 -6 5 C-5.01 4.34 -4.02 3.68 -3 3 C-4.65 2.67 -6.3 2.34 -8 2 C-8 1.67 -8 1.34 -8 1 C-6.865625 1.020625 -5.73125 1.04125 -4.5625 1.0625 C-1.18424326 1.41577477 -1.18424326 1.41577477 0 0 Z " fill="#1F0910" transform="translate(61,67)"/>
<path d="M0 0 C0.86325845 2.41712366 1.1132654 3.64990694 0.3125 6.125 C-1.2190732 8.31296172 -2.54765115 9.01906046 -5 10 C-4.34 8.02 -3.68 6.04 -3 4 C-6.96 3.67 -10.92 3.34 -15 3 C-15 2.67 -15 2.34 -15 2 C-14.08476563 1.93941406 -13.16953125 1.87882812 -12.2265625 1.81640625 C-10.44378906 1.69072266 -10.44378906 1.69072266 -8.625 1.5625 C-7.44164062 1.48128906 -6.25828125 1.40007813 -5.0390625 1.31640625 C-2.08481099 1.18915064 -2.08481099 1.18915064 0 0 Z " fill="#261603" transform="translate(70,39)"/>
<path d="M0 0 C0.98484375 0.11085937 1.9696875 0.22171875 2.984375 0.3359375 C3.73203125 0.43132813 4.4796875 0.52671875 5.25 0.625 C5.25 0.955 5.25 1.285 5.25 1.625 C4.25419922 1.69847656 4.25419922 1.69847656 3.23828125 1.7734375 C-3.4612236 2.33625812 -3.4612236 2.33625812 -9.75 4.625 C-9.75 3.635 -9.75 2.645 -9.75 1.625 C-6.30824478 -0.52199969 -3.9779708 -0.47356795 0 0 Z " fill="#1B181F" transform="translate(48.75,50.375)"/>
<path d="M0 0 C0.99 0 1.98 0 3 0 C3 1.32 3 2.64 3 4 C1.68 3.67 0.36 3.34 -1 3 C-0.67 2.01 -0.34 1.02 0 0 Z " fill="#000000" transform="translate(84,85)"/>
<path d="M0 0 C1.32 0.33 2.64 0.66 4 1 C3.67 1.99 3.34 2.98 3 4 C2.01 4 1.02 4 0 4 C0 2.68 0 1.36 0 0 Z " fill="#000000" transform="translate(21,82)"/>
<path d="M0 0 C0.99 0 1.98 0 3 0 C3 1.32 3 2.64 3 4 C1.68 3.67 0.36 3.34 -1 3 C-0.67 2.01 -0.34 1.02 0 0 Z " fill="#000000" transform="translate(78,50)"/>
<path d="M0 0 C1.32 0.33 2.64 0.66 4 1 C3.67 1.99 3.34 2.98 3 4 C2.01 4 1.02 4 0 4 C0 2.68 0 1.36 0 0 Z " fill="#000000" transform="translate(21,43)"/>
<path d="M0 0 C1.32 0 2.64 0 4 0 C3.67 1.32 3.34 2.64 3 4 C2.01 3.67 1.02 3.34 0 3 C0 2.01 0 1.02 0 0 Z " fill="#000000" transform="translate(89,9)"/>
<path d="M0 0 C0.99 0.33 1.98 0.66 3 1 C3 1.99 3 2.98 3 4 C1.68 4 0.36 4 -1 4 C-0.67 2.68 -0.34 1.36 0 0 Z " fill="#000000" transform="translate(13,10)"/>
</svg>