<svg xmlns="http://www.w3.org/2000/svg" version="1.1" width="100" height="100">
<path d="M0 0 C6.47293056 2.98750641 10.36790953 8.41846814 13.265625 14.77734375 C17.99224033 27.97525204 17.84209617 43.17984453 12 56 C9.03078217 61.1961312 5.51344332 65.45533385 0 68 C-5.28179726 69.01367826 -9.67875745 68.70992334 -14.25 65.75 C-22.77802668 58.41313494 -25.2631203 47.29324611 -26.21484375 36.58203125 C-26.6731869 25.34345722 -24.10578397 13.86547104 -17 5 C-12.15797296 -0.23366158 -6.9419238 -1.2087927 0 0 Z " fill="#E3E3D4" transform="translate(33,16)"/>
<path d="M0 0 C7.15444392 3.57722196 11.10965937 9.74857018 14 17 C18.13715196 30.36439539 17.05635344 45.48741875 10.6875 57.9375 C7.99084591 62.44009516 4.74262925 65.62868537 0 68 C-4.95482094 68.54360446 -8.87125852 68.56437074 -13.375 66.3125 C-17.78959626 62.42345092 -20.46888397 58.50055885 -22.6875 53.0625 C-23.10386719 52.06347656 -23.52023438 51.06445312 -23.94921875 50.03515625 C-28.12340204 37.97812869 -26.87449359 24.04048504 -21.8984375 12.4296875 C-17.01872297 2.89063264 -10.74936438 -1.19069882 0 0 Z " fill="#E4E4D4" transform="translate(78,16)"/>
<path d="M0 0 C7.15444392 3.57722196 11.10965937 9.74857018 14 17 C18.13715196 30.36439539 17.05635344 45.48741875 10.6875 57.9375 C7.99084591 62.44009516 4.74262925 65.62868537 0 68 C-4.95482094 68.54360446 -8.87125852 68.56437074 -13.375 66.3125 C-17.78959626 62.42345092 -20.46888397 58.50055885 -22.6875 53.0625 C-23.10386719 52.06347656 -23.52023438 51.06445312 -23.94921875 50.03515625 C-28.12340204 37.97812869 -26.87449359 24.04048504 -21.8984375 12.4296875 C-17.01872297 2.89063264 -10.74936438 -1.19069882 0 0 Z M-13.3125 8.9375 C-13.83158936 9.43386963 -14.35067871 9.93023926 -14.88549805 10.44165039 C-18.82642754 14.39902942 -21.60713041 18.33145301 -22 24 C-21.59621865 26.18658057 -21.59621865 26.18658057 -21 28 C-19.7934375 26.9790625 -19.7934375 26.9790625 -18.5625 25.9375 C-15.01713886 23.5795401 -12.17893759 23.62112646 -8.05859375 24.34375 C-6 25 -6 25 -3.4375 26.9375 C-1.36414574 31.35464603 -1.25228114 35.20672856 -2 40 C-3.4375 43.0625 -3.4375 43.0625 -6 45 C-10.41003893 46.30820185 -13.7646716 46.60452241 -17.9375 44.5625 C-18.618125 44.046875 -19.29875 43.53125 -20 43 C-20.66 43 -21.32 43 -22 43 C-20.83376084 53.20688703 -20.83376084 53.20688703 -16 62 C-12.53745834 64.08333219 -9.34604487 65 -5.3125 65 C-2.12649956 63.62227008 -0.31335029 61.55686084 2 59 C2.48855469 58.55269531 2.97710937 58.10539062 3.48046875 57.64453125 C10.8954349 49.6195936 10.57981809 38.86901852 10.23046875 28.67578125 C10.15698062 27.1170267 10.08050689 25.5584078 10 24 C9.95488281 22.90042969 9.90976563 21.80085938 9.86328125 20.66796875 C9.55101359 16.03946814 8.97769379 12.72211723 6 9 C5.278125 8.071875 4.55625 7.14375 3.8125 6.1875 C0.7133245 3.77703017 -1.04571287 3.5025996 -4.9206543 3.61889648 C-8.5027866 4.27543148 -10.8167691 6.45891067 -13.3125 8.9375 Z " fill="#BDBEB7" transform="translate(78,16)"/>
<path d="M0 0 C6.47293056 2.98750641 10.36790953 8.41846814 13.265625 14.77734375 C17.99224033 27.97525204 17.84209617 43.17984453 12 56 C9.03078217 61.1961312 5.51344332 65.45533385 0 68 C-5.28179726 69.01367826 -9.67875745 68.70992334 -14.25 65.75 C-22.77802668 58.41313494 -25.2631203 47.29324611 -26.21484375 36.58203125 C-26.6731869 25.34345722 -24.10578397 13.86547104 -17 5 C-12.15797296 -0.23366158 -6.9419238 -1.2087927 0 0 Z M-15.6796875 11.4140625 C-19.01061312 15.1263062 -21.03483683 19.09449178 -22 24 C-21.67 24.99 -21.34 25.98 -21 27 C-20.071875 26.5359375 -20.071875 26.5359375 -19.125 26.0625 C-14.41744386 23.70872193 -11.15802379 23.70820363 -6 25 C-3.06458264 27.21946191 -2.19413155 28.75551459 -1.62890625 32.37890625 C-1.41442726 36.739979 -1.5613573 39.28355026 -3.875 43.0625 C-6.66817716 45.60922035 -7.53948369 45.96588768 -11.375 46.25 C-15.22524553 45.98446583 -16.18121528 45.41610119 -19 43 C-19.99 43 -20.98 43 -22 43 C-21.50669135 50.73232013 -21.50669135 50.73232013 -19 58 C-18.34 58 -17.68 58 -17 58 C-16.773125 58.598125 -16.54625 59.19625 -16.3125 59.8125 C-14.59193332 62.68011113 -13.03468112 63.62059949 -10 65 C-6.40628482 65.3889089 -4.52970636 65.3041489 -1.3671875 63.48828125 C7.34923595 55.87848836 9.60476326 47.95212694 10.875 36.6875 C11.30605253 28.46742849 11.35954686 17.229122 7 10 C6.34 10 5.68 10 5 10 C3 4.125 3 4.125 3 3 C-5.36379775 2.61098615 -9.69540596 5.89423266 -15.6796875 11.4140625 Z " fill="#C1C0B7" transform="translate(33,16)"/>
<path d="M0 0 C3.42188142 2.72353827 4.64150457 4.17196959 5.47265625 8.41015625 C5.73464358 12.86394084 5.48556421 16.02936266 2.625 19.5625 C-0.40467273 22.37576754 -1.1778098 22.9051319 -5.25 23.375 C-10.21442386 22.87855761 -11.55704915 21.52492587 -15 18 C-16.35624248 13.93127256 -16.66606438 10.24978036 -16 6 C-12.12407921 -0.98533486 -7.30812267 -1.99083342 0 0 Z " fill="#9F7850" transform="translate(27,40)"/>
<path d="M0 0 C3.42188142 2.72353827 4.64150457 4.17196959 5.47265625 8.41015625 C5.71895945 12.59731066 5.49155825 16.0500987 3.0625 19.5625 C-0.89544557 22.71270157 -3.99257831 23.3998667 -9 23 C-12.01338437 21.78182334 -13.43906487 20.93887015 -15.1015625 18.15625 C-16.64611637 14.4493207 -16.66788559 10.93457354 -16 7 C-12.20570116 -0.60270289 -7.9382237 -2.16248163 0 0 Z " fill="#9E7850" transform="translate(72,40)"/>
<path d="M0 0 C6.47293056 2.98750641 10.36790953 8.41846814 13.265625 14.77734375 C17.98565904 27.95687541 17.86013005 43.20118835 12 56 C9.27811058 60.59955646 6.3544043 63.90311763 2 67 C1.34 66.67 0.68 66.34 0 66 C0.928125 65.34 1.85625 64.68 2.8125 64 C6.55362214 60.86626004 7.72400309 57.6138696 9 53 C9.20496094 52.37867188 9.40992187 51.75734375 9.62109375 51.1171875 C12.91060262 39.54719078 11.29227388 25.7689228 10 14 C9.01 13.67 8.02 13.34 7 13 C7 12.01 7 11.02 7 10 C6.34 10 5.68 10 5 10 C2 6.53846154 2 6.53846154 2 4 C-2.44477749 2.88880563 -6.44446622 2.70609459 -11 3 C-12.87890434 4.37506099 -12.87890434 4.37506099 -14 6 C-14.66 6 -15.32 6 -16 6 C-16.28875 6.639375 -16.5775 7.27875 -16.875 7.9375 C-18 10 -18 10 -20 11 C-18.88440323 6.25871374 -16.19460069 3.87988266 -12.3515625 1.17578125 C-8.23713476 -0.88143262 -4.45997827 -0.85595543 0 0 Z " fill="#B2B4B0" transform="translate(33,16)"/>
<path d="M0 0 C7.3652861 4.78878492 11.26803754 10.90310649 13.421875 19.30078125 C14.19574039 24.25247398 14.37291464 29.11859261 14.4375 34.125 C14.45965576 35.05497803 14.48181152 35.98495605 14.50463867 36.94311523 C14.48342775 43.77485017 13.38291949 50.46417712 8.48217773 55.58642578 C7.99305908 56.05290527 7.50394043 56.51938477 7 57 C6.38125 57.86625 5.7625 58.7325 5.125 59.625 C2.72523271 62.30709286 1.51547883 62.70704343 -2 63 C-1 60 -1 60 1.75 58.0625 C7.04615961 53.68741162 9.57365619 47.41872276 10.2265625 40.65185547 C10.49947785 34.75802113 10.31584293 28.88839961 10 23 C9.94328125 21.90042969 9.8865625 20.80085938 9.828125 19.66796875 C9.50654667 15.54310829 9.14811802 11.61788298 7 8 C4.98330173 6.86649466 4.98330173 6.86649466 3 6 C2.67 5.01 2.34 4.02 2 3 C-4.15167233 3.33990822 -7.76832031 4.48750491 -12.3125 8.8125 C-12.83231445 9.29372314 -13.35212891 9.77494629 -13.88769531 10.27075195 C-18.71971761 15.08960165 -20.29304034 20.24853522 -21 27 C-21.66 26.34 -22.32 25.68 -23 25 C-23 17.23064604 -18.50775976 10.38312927 -13.25 4.875 C-11 3 -11 3 -9 3 C-9 2.34 -9 1.68 -9 1 C-5.73952371 -0.63023814 -3.62198965 -0.4673535 0 0 Z " fill="#C6C7BE" transform="translate(77,17)"/>
<path d="M0 0 C7.15444392 3.57722196 11.10965937 9.74857018 14 17 C18.13715196 30.36439539 17.05635344 45.48741875 10.6875 57.9375 C7.94398406 62.49074482 4.79203854 66.04482892 -0.375 67.8125 C-0.91125 67.874375 -1.4475 67.93625 -2 68 C-0.27015252 66.17910791 1.35160371 64.76090948 3.44140625 63.33984375 C6.64447595 60.41062429 7.43829472 57.92222595 8.75 53.8125 C10.95114504 47.04885496 10.95114504 47.04885496 12 46 C13.15064417 33.474643 13.85420575 18.17140204 5.5 7.9375 C4.2625 6.9784375 4.2625 6.9784375 3 6 C2.38125 5.236875 1.7625 4.47375 1.125 3.6875 C-0.99568196 1.70540382 -0.99568196 1.70540382 -4.375 1.5625 C-10.46511464 2.29751384 -14.40613957 5.08170728 -19 9 C-15.63396085 0.43190033 -8.21673937 -0.9101619 0 0 Z " fill="#B0B2AE" transform="translate(78,16)"/>
<path d="M0 0 C2.01822917 0.06510417 4.03645833 0.13020833 6.0546875 0.1953125 C6.0546875 0.8553125 6.0546875 1.5153125 6.0546875 2.1953125 C5.32378906 2.453125 4.59289062 2.7109375 3.83984375 2.9765625 C-2.75632472 5.86296441 -7.76125248 10.82885056 -10.5703125 17.4453125 C-11.82730216 20.76711648 -11.82730216 20.76711648 -11.44140625 24.1953125 C-10.77853245 26.86768563 -11.44214397 28.38669411 -12.3828125 30.9453125 C-12.67027344 31.74453125 -12.95773437 32.54375 -13.25390625 33.3671875 C-13.48207031 33.97046875 -13.71023438 34.57375 -13.9453125 35.1953125 C-14.2753125 35.1953125 -14.6053125 35.1953125 -14.9453125 35.1953125 C-15.02680842 32.17392683 -15.08604671 29.15477345 -15.1328125 26.1328125 C-15.15794922 25.28525391 -15.18308594 24.43769531 -15.20898438 23.56445312 C-15.28512535 16.99094877 -14.59575269 12.07668213 -9.97265625 7.05078125 C-9.28300781 6.50035156 -8.59335938 5.94992188 -7.8828125 5.3828125 C-7.19058594 4.81949219 -6.49835937 4.25617187 -5.78515625 3.67578125 C-5.17800781 3.18722656 -4.57085937 2.69867187 -3.9453125 2.1953125 C-1.9453125 0.1953125 -1.9453125 0.1953125 0 0 Z " fill="#CBCCC2" transform="translate(23.9453125,17.8046875)"/>
<path d="M0 0 C0 1.32 0 2.64 0 4 C1.32 4 2.64 4 4 4 C4.36101683 7.24915145 4.24958242 8.6352257 2.375 11.375 C0 13 0 13 -3.125 12.9375 C-6 12 -6 12 -8 9 C-8.32855599 5.84586249 -8.53501881 3.84476654 -6.8125 1.125 C-4.43963721 -0.34781139 -2.74086056 -0.22223194 0 0 Z " fill="#201D16" transform="translate(68,45)"/>
<path d="M0 0 C0 1.32 0 2.64 0 4 C1.32 4 2.64 4 4 4 C4.36101683 7.24915145 4.24958242 8.6352257 2.375 11.375 C0 13 0 13 -3.125 12.9375 C-6 12 -6 12 -8 9 C-8.32855599 5.84586249 -8.53501881 3.84476654 -6.8125 1.125 C-4.43963721 -0.34781139 -2.74086056 -0.22223194 0 0 Z " fill="#1E1C15" transform="translate(23,45)"/>
<path d="M0 0 C0.33 0 0.66 0 1 0 C3.72212122 12.39537342 5.86604596 29.19147751 0 41 C-2.42994547 44.26868405 -5.06675768 47.17823482 -8 50 C-9.32 49.67 -10.64 49.34 -12 49 C-11.46890625 48.64550781 -10.9378125 48.29101562 -10.390625 47.92578125 C-2.6125309 42.06382347 -0.83210354 34.89076473 0.4921875 25.515625 C1.03228075 19.79854032 0.98172876 14.67221062 0 9 C-0.08730104 5.99781436 -0.06127637 3.00254237 0 0 Z " fill="#CECEC4" transform="translate(42,30)"/>
<path d="M0 0 C-0.80244141 0.34417969 -0.80244141 0.34417969 -1.62109375 0.6953125 C-8.02095992 4.20525552 -14.5547769 9.61482783 -17.44921875 16.39453125 C-18.14900797 19.27220105 -18.69175606 22.05627041 -19 25 C-19.66 24.34 -20.32 23.68 -21 23 C-21 15.55397663 -17.0623115 9.53882678 -12.29296875 4.02734375 C-8.32998588 0.24327658 -5.6311207 -0.68952498 0 0 Z " fill="#D0D0C6" transform="translate(75,19)"/>
<path d="M0 0 C0.33 0 0.66 0 1 0 C1.82969289 21.92303919 1.82969289 21.92303919 -3 30 C-3.34675781 30.61101562 -3.69351563 31.22203125 -4.05078125 31.8515625 C-5.7816599 34.67175859 -7.21083262 36.14055508 -10 38 C-10.99 38 -11.98 38 -13 38 C-12 35 -12 35 -9.25 33.0625 C-3.99735509 28.75912827 -1.5746168 22.3068984 -0.69140625 15.68701172 C-0.22089209 10.46285994 -0.0640842 5.24325276 0 0 Z " fill="#D2D2C7" transform="translate(88,42)"/>
<path d="M0 0 C6.43619463 0.93428632 10.08996052 5.23653947 13.9375 10.25 C14.99915478 12.86874846 14.92811186 13.97758908 13.875 16.5625 C10.875 10.8125 10.875 10.8125 10.875 8.5625 C10.235625 8.294375 9.59625 8.02625 8.9375 7.75 C6.875 6.5625 6.875 6.5625 5.875 3.5625 C2.245 3.2325 -1.385 2.9025 -5.125 2.5625 C-3.125 0.5625 -3.125 0.5625 0 0 Z " fill="#BEBFB8" transform="translate(73.125,16.4375)"/>
<path d="M0 0 C0.99 0.33 1.98 0.66 3 1 C1.96875 1.7425 0.9375 2.485 -0.125 3.25 C-5.13277655 7.49594442 -7.35524768 13.12095304 -10 19 C-10.65959808 20.33684427 -11.3231846 21.6717895 -12 23 C-11.41317992 14.93122389 -9.58198324 7.98687476 -3.4375 2.375 C-1.68359375 0.8984375 -1.68359375 0.8984375 0 0 Z " fill="#C0C1B9" transform="translate(65,19)"/>
<path d="M0 0 C0.33 0 0.66 0 1 0 C1.48828125 1.98567708 1.9765625 3.97135417 2.46484375 5.95703125 C2.91010705 7.65683202 3.44433985 9.33301954 4 11 C3.34 11 2.68 11 2 11 C2.33 11.886875 2.66 12.77375 3 13.6875 C3.91222143 16.70923347 4.18330958 18.88373706 4 22 C0.64101828 18.64101828 0.05411079 15.01078962 -0.1953125 10.3515625 C-0.17210937 9.12179688 -0.14890625 7.89203125 -0.125 6.625 C-0.10695312 5.37976562 -0.08890625 4.13453125 -0.0703125 2.8515625 C-0.04710937 1.91054688 -0.02390625 0.96953125 0 0 Z " fill="#CECDC1" transform="translate(54,48)"/>
<path d="M0 0 C0.66 0.66 1.32 1.32 2 2 C0.75283203 1.94779297 0.75283203 1.94779297 -0.51953125 1.89453125 C-1.60621094 1.86746094 -2.69289063 1.84039063 -3.8125 1.8125 C-4.89144531 1.77769531 -5.97039063 1.74289063 -7.08203125 1.70703125 C-10.34961576 2.03510198 -10.97266159 2.56335667 -13 5 C-13.66 5 -14.32 5 -15 5 C-15.28875 5.639375 -15.5775 6.27875 -15.875 6.9375 C-17 9 -17 9 -19 10 C-17.87939369 5.23742317 -15.14317665 2.84111315 -11.30078125 0.1015625 C-7.49290125 -1.72156511 -3.94535999 -1.30966307 0 0 Z " fill="#B8B9B3" transform="translate(32,17)"/>
<path d="M0 0 C0.66 0.33 1.32 0.66 2 1 C1.0409375 2.0209375 1.0409375 2.0209375 0.0625 3.0625 C-2.3258493 6.46408839 -2.67877153 8.90433701 -3 13 C-3.33 13 -3.66 13 -4 13 C-4.33 9.04 -4.66 5.08 -5 1 C-4.67 1.66 -4.34 2.32 -4 3 C-2.68 2.01 -1.36 1.02 0 0 Z " fill="#CAB699" transform="translate(59,41)"/>
<path d="M0 0 C3.49873271 1.39655297 4.70891831 2.71260484 6.25 6.125 C6.58515625 6.84945313 6.9203125 7.57390625 7.265625 8.3203125 C7.62914062 9.15175781 7.62914062 9.15175781 8 10 C7.01 9.67 6.02 9.34 5 9 C5 8.01 5 7.02 5 6 C4.34 6 3.68 6 3 6 C0 2.53846154 0 2.53846154 0 0 Z " fill="#BCBDB7" transform="translate(35,20)"/>
<path d="M0 0 C-0.33 0.66 -0.66 1.32 -1 2 C-4.3 2 -7.6 2 -11 2 C-7.75267347 -1.24732653 -4.25451414 -1.41817138 0 0 Z " fill="#B8B9B4" transform="translate(34,82)"/>
</svg>