<svg xmlns="http://www.w3.org/2000/svg" version="1.1" width="100" height="100">
<path d="M0 0 C1.83220093 -0.01418472 1.83220093 -0.01418472 3.70141602 -0.02865601 C5.66099243 -0.01954697 5.66099243 -0.01954697 7.66015625 -0.01025391 C9.02726395 -0.01227745 10.39437059 -0.01519123 11.76147461 -0.01895142 C14.61940847 -0.02336162 17.47706003 -0.01698624 20.33496094 -0.00292969 C23.98665338 0.01416187 27.63768421 0.00431361 31.28935242 -0.01364708 C34.11019824 -0.02452052 36.93088884 -0.02102238 39.7517395 -0.0132637 C41.74912956 -0.01030723 43.74652581 -0.01937128 45.74389648 -0.02865601 C46.96536377 -0.01919952 48.18683105 -0.00974304 49.4453125 0 C51.05031616 0.00358017 51.05031616 0.00358017 52.68774414 0.00723267 C56.25505521 0.45501185 58.65138914 1.54254622 61.72265625 3.38818359 C65.32076633 8.38816706 65.14690722 13.28672649 65.0859375 19.20458984 C65.08668526 20.60571266 65.08668526 20.60571266 65.08744812 22.03514099 C65.0851153 24.0026971 65.07543368 25.97025664 65.05883789 27.93774414 C65.03520656 30.94428244 65.03828803 33.94993509 65.04492188 36.95654297 C65.03934573 38.87256386 65.03223625 40.78858104 65.0234375 42.70458984 C65.02434891 43.6005336 65.02526031 44.49647736 65.02619934 45.41957092 C64.96673026 50.66739528 64.74903414 54.92128877 61.28515625 59.13818359 C57.99384793 61.77123025 54.6181587 61.52463166 50.58642578 61.54931641 C49.32146271 61.55892395 48.05649963 61.56853149 46.75320435 61.57843018 C45.37062765 61.5832781 43.98804886 61.58755694 42.60546875 61.59130859 C41.18683877 61.5970625 39.76820881 61.6028202 38.34957886 61.60858154 C35.37546426 61.61908248 32.40137662 61.62493112 29.42724609 61.62841797 C25.62186336 61.63390181 21.81683858 61.65793091 18.01156807 61.68638992 C15.08099333 61.70504074 12.15050441 61.71022318 9.21987534 61.71175385 C7.81728025 61.71477525 6.41468649 61.72278651 5.01214981 61.73593903 C3.0473975 61.75304914 1.08249712 61.74926729 -0.88232422 61.74462891 C-2.5575264 61.75009735 -2.5575264 61.75009735 -4.26657104 61.75567627 C-8.62750095 61.22338441 -11.21396828 59.45155906 -14.27734375 56.38818359 C-15.20305796 53.59436433 -15.41132599 51.01225067 -15.43847656 48.08203125 C-15.44808411 47.24080719 -15.45769165 46.39958313 -15.46759033 45.53286743 C-15.47184021 44.63176239 -15.47609009 43.73065735 -15.48046875 42.80224609 C-15.48616882 41.86770599 -15.4918689 40.93316589 -15.4977417 39.9703064 C-15.50717771 37.99502693 -15.51372012 36.01973183 -15.51757812 34.04443359 C-15.52728593 31.03113224 -15.55832347 28.01851255 -15.58984375 25.00537109 C-15.59637412 23.08350013 -15.60162446 21.16162431 -15.60546875 19.23974609 C-15.61781555 18.34268951 -15.63016235 17.44563293 -15.6428833 16.52139282 C-15.6249065 11.44463522 -15.34942608 7.64849366 -12.27734375 3.38818359 C-8.05208174 0.8494093 -4.90275265 0.01093623 0 0 Z " fill="#FEA400" transform="translate(25.27734375,20.61181640625)"/>
<path d="M0 0 C1.22469498 -0.00622879 2.44938995 -0.01245758 3.7111969 -0.01887512 C5.02071823 -0.00966537 6.33023956 -0.00045563 7.67944336 0.0090332 C9.0489451 0.0095525 10.4184476 0.00903211 11.78794861 0.00752258 C14.6500876 0.00761202 17.51194326 0.01798432 20.37402344 0.03613281 C24.03467436 0.05884068 27.69491265 0.0593572 31.35561466 0.05261517 C34.180696 0.04926735 37.005684 0.05592017 39.8307476 0.0657444 C41.83426518 0.0714403 43.83779867 0.07016363 45.84132385 0.06877136 C47.06286667 0.07830338 48.28440948 0.08783539 49.54296875 0.09765625 C50.6151918 0.10226364 51.68741486 0.10687103 52.79212952 0.11161804 C55.78953053 0.37971529 57.99066078 1.10999664 60.70678711 2.37231445 C57.34778953 5.89619433 53.95953053 8.75454491 49.92553711 11.47387695 C48.8362793 12.2112207 47.74702148 12.94856445 46.62475586 13.70825195 C45.48543985 14.4712831 44.34611688 15.23430385 43.20678711 15.99731445 C42.06714098 16.76766985 40.92781526 17.53849948 39.78881836 18.30981445 C36.77070522 20.34570142 33.75284908 22.37847986 30.70678711 24.37231445 C29.84504883 24.96705566 28.98331055 25.56179687 28.09545898 26.17456055 C25.70678711 27.37231445 25.70678711 27.37231445 23.70629883 27.26879883 C21.13993023 26.11816324 19.00350603 24.66539124 16.71459961 23.02856445 C15.76198242 22.35954102 14.80936523 21.69051758 13.82788086 21.0012207 C11.835673 19.58563624 9.84606909 18.16637974 7.85913086 16.7434082 C6.90393555 16.07438477 5.94874023 15.40536133 4.96459961 14.71606445 C3.6673999 13.79083984 3.6673999 13.79083984 2.34399414 12.84692383 C-0.57485988 11.21482993 -2.9885666 10.73231613 -6.29321289 10.37231445 C-6.20620117 12.12608398 -6.20620117 12.12608398 -6.11743164 13.9152832 C-6.0705184 15.46342025 -6.02501991 17.01160062 -5.98071289 18.55981445 C-5.91787109 19.71320312 -5.91787109 19.71320312 -5.85375977 20.88989258 C-5.76191339 25.16993374 -5.92170745 26.87292417 -8.56274414 30.4230957 C-11.29321289 32.37231445 -11.29321289 32.37231445 -15.29321289 32.37231445 C-15.38077594 28.66413148 -15.43379304 24.95621682 -15.48071289 21.24731445 C-15.50584961 20.2005957 -15.53098633 19.15387695 -15.55688477 18.07543945 C-15.65459131 7.7836832 -15.65459131 7.7836832 -12.29321289 3.37231445 C-8.05311983 0.83497764 -4.91606652 -0.00288373 0 0 Z " fill="#FEA401" transform="translate(25.293212890625,20.627685546875)"/>
<path d="M0 0 C0.05813173 4.56244637 0.09364122 9.12479724 0.125 13.6875 C0.14175781 14.98107422 0.15851563 16.27464844 0.17578125 17.60742188 C0.18544922 19.47817383 0.18544922 19.47817383 0.1953125 21.38671875 C0.21102295 23.10701294 0.21102295 23.10701294 0.22705078 24.86206055 C-0.05755719 28.79546513 -0.92520714 31.69155652 -3.4375 34.75 C-6.17003011 36.93602408 -8.74575292 37.12385922 -12.10424805 37.11352539 C-13.3351844 37.11341209 -13.3351844 37.11341209 -14.59098816 37.11329651 C-15.9129998 37.10555458 -15.9129998 37.10555458 -17.26171875 37.09765625 C-18.16751175 37.0962413 -19.07330475 37.09482635 -20.00654602 37.09336853 C-22.90023091 37.08777001 -25.79383849 37.07521781 -28.6875 37.0625 C-30.64908742 37.05748481 -32.61067606 37.05292193 -34.57226562 37.04882812 C-39.38154021 37.03780107 -44.190757 37.02053747 -49 37 C-48.52189542 31.62132353 -48.52189542 31.62132353 -46.44042969 29.14331055 C-42.97323403 27.51897309 -39.70078124 27.62913452 -35.953125 27.70703125 C-35.18192322 27.71127609 -34.41072144 27.71552094 -33.6161499 27.71989441 C-31.16040685 27.73664617 -28.70549371 27.77429061 -26.25 27.8125 C-24.58204313 27.82755143 -22.91407335 27.84123903 -21.24609375 27.85351562 C-17.16374422 27.88653806 -13.08201268 27.93829516 -9 28 C-9.02094727 27.35973877 -9.04189453 26.71947754 -9.06347656 26.05981445 C-9.14689284 23.14420425 -9.19873969 20.22884548 -9.25 17.3125 C-9.28351563 16.30509766 -9.31703125 15.29769531 -9.3515625 14.25976562 C-9.45070627 6.7496251 -9.45070627 6.7496251 -7.109375 2.85546875 C-4.42120202 0.49087215 -3.61925618 0 0 0 Z " fill="#DB8D00" transform="translate(90,45)"/>
<path d="M0 0 C0.79056793 0.00424484 1.58113586 0.00848969 2.3956604 0.01286316 C4.9021519 0.02955574 7.40781711 0.06718892 9.9140625 0.10546875 C11.62108208 0.12052783 13.32811435 0.13421409 15.03515625 0.14648438 C19.20343975 0.17942819 23.37111139 0.23114382 27.5390625 0.29296875 C27.25796164 3.66617912 26.7531876 5.06491462 24.40356445 7.56738281 C20.93486991 9.65693647 18.73886644 9.8312982 14.70703125 9.90234375 C12.76860352 9.95068359 12.76860352 9.95068359 10.79101562 10 C9.43620241 10.01474225 8.08138452 10.02905987 6.7265625 10.04296875 C5.35217611 10.07114634 3.97782445 10.10107629 2.60351562 10.1328125 C-0.7513616 10.20344149 -4.10554646 10.25617649 -7.4609375 10.29296875 C-7.48220703 12.04673828 -7.48220703 12.04673828 -7.50390625 13.8359375 C-7.55082188 15.38415332 -7.59906919 16.93232919 -7.6484375 18.48046875 C-7.65423828 19.24939453 -7.66003906 20.01832031 -7.66601562 20.81054688 C-7.82925277 25.03657524 -8.13726745 26.86378995 -10.76171875 30.34375 C-13.4609375 32.29296875 -13.4609375 32.29296875 -17.4609375 32.29296875 C-17.54850055 28.58478578 -17.60151765 24.87687112 -17.6484375 21.16796875 C-17.67357422 20.12125 -17.69871094 19.07453125 -17.72460938 17.99609375 C-17.82231592 7.7043375 -17.82231592 7.7043375 -14.4609375 3.29296875 C-9.52373376 0.17431802 -5.63941159 -0.11542787 0 0 Z " fill="#FEBE49" transform="translate(27.4609375,20.70703125)"/>
<path d="M0 0 C0.99 0.33 1.98 0.66 3 1 C3.495 3.475 3.495 3.475 4 6 C-0.52553022 9.11196487 -5.05691319 12.21495424 -9.59765625 15.3046875 C-13.10769758 17.69528291 -16.59172748 20.11759134 -20.05859375 22.5703125 C-21.64302694 23.67216586 -23.22765448 24.7737398 -24.8125 25.875 C-25.54581543 26.40448242 -26.27913086 26.93396484 -27.03466797 27.47949219 C-27.73092285 27.95805664 -28.42717773 28.43662109 -29.14453125 28.9296875 C-29.74628174 29.35491699 -30.34803223 29.78014648 -30.96801758 30.21826172 C-33.9855637 31.37916316 -35.91033163 30.84606164 -39 30 C-41.74487305 28.44946289 -41.74487305 28.44946289 -44.51171875 26.47265625 C-45.51654297 25.76302734 -46.52136719 25.05339844 -47.55664062 24.32226562 C-48.58982422 23.57654297 -49.62300781 22.83082031 -50.6875 22.0625 C-51.73228516 21.32064453 -52.77707031 20.57878906 -53.85351562 19.81445312 C-55.78697667 18.44123514 -57.71726217 17.06352728 -59.64331055 15.67993164 C-61.40731723 14.42248526 -63.19752267 13.20165155 -65 12 C-65.1875 9.375 -65.1875 9.375 -65 7 C-60.53372424 6.58386869 -58.4467181 7.66727378 -54.83984375 10.24609375 C-53.88142578 10.91833984 -52.92300781 11.59058594 -51.93554688 12.28320312 C-50.94619141 12.99412109 -49.95683594 13.70503906 -48.9375 14.4375 C-46.97117348 15.83727949 -45.00126192 17.23204023 -43.02734375 18.62109375 C-41.72398071 19.55586548 -41.72398071 19.55586548 -40.39428711 20.50952148 C-37.39569784 22.40010594 -37.39569784 22.40010594 -34 23 C-31.51240048 21.88309127 -31.51240048 21.88309127 -29 20.09375 C-28.030625 19.44535156 -27.06125 18.79695313 -26.0625 18.12890625 C-19.96959012 13.8934013 -13.91339129 9.60881034 -7.90234375 5.2578125 C-6.92394531 4.56429688 -5.94554687 3.87078125 -4.9375 3.15625 C-4.05964844 2.52525391 -3.18179688 1.89425781 -2.27734375 1.24414062 C-1.52582031 0.83357422 -0.77429688 0.42300781 0 0 Z " fill="#BF6500" transform="translate(85,24)"/>
<path d="M0 0 C1.05348633 0.00080566 2.10697266 0.00161133 3.19238281 0.00244141 C23.20375743 0.15921254 23.20375743 0.15921254 30.3125 4.1875 C30.3125 5.1775 30.3125 6.1675 30.3125 7.1875 C21.0359298 10.18192229 12.32653859 10.65636321 2.68554688 10.57861328 C0.3158209 10.56252255 -2.05220031 10.57854597 -4.421875 10.59765625 C-13.25298478 10.60803114 -21.20011763 9.9271771 -29.6875 7.1875 C-29.3575 5.8675 -29.0275 4.5475 -28.6875 3.1875 C-19.12054035 0.57832919 -9.90117203 -0.00787057 0 0 Z " fill="#000000" transform="translate(49.6875,89.8125)"/>
<path d="M0 0 C1.32 0.66 2.64 1.32 4 2 C3.67 2.99 3.34 3.98 3 5 C2.93259135 6.56118428 2.91485544 8.1250252 2.9375 9.6875 C2.94652344 10.49574219 2.95554687 11.30398437 2.96484375 12.13671875 C2.97644531 12.75160156 2.98804688 13.36648437 3 14 C3.99 14.33 4.98 14.66 6 15 C6.48218104 19.91824661 6.76231598 22.96240325 3.75 27.0625 C1 29 1 29 -3 29 C-3.08756305 25.29181703 -3.14058015 21.58390237 -3.1875 17.875 C-3.21263672 16.82828125 -3.23777344 15.7815625 -3.26367188 14.703125 C-3.31833491 8.94528536 -3.20676341 4.86485368 0 0 Z " fill="#FEBE49" transform="translate(13,24)"/>
<path d="M0 0 C0.70189453 0.01353516 1.40378906 0.02707031 2.12695312 0.04101562 C3.85579829 0.07629818 5.58424765 0.13010417 7.3125 0.1875 C7.3125 1.5075 7.3125 2.8275 7.3125 4.1875 C0.8775 4.6825 0.8775 4.6825 -5.6875 5.1875 C-6.0175 7.8275 -6.3475 10.4675 -6.6875 13.1875 C-8.0075 12.8575 -9.3275 12.5275 -10.6875 12.1875 C-10.76881463 10.75094146 -10.82683559 9.3130517 -10.875 7.875 C-10.90980469 7.07449219 -10.94460938 6.27398437 -10.98046875 5.44921875 C-10.6875 3.1875 -10.6875 3.1875 -9.65625 1.40625 C-6.60014806 -0.48562263 -3.47287107 -0.12646309 0 0 Z " fill="#FEFDFB" transform="translate(25.6875,25.8125)"/>
<path d="M0 0 C1.32 0.66 2.64 1.32 4 2 C3.34 3.98 2.68 5.96 2 8 C0.68 7.34 -0.64 6.68 -2 6 C-1.125 1.125 -1.125 1.125 0 0 Z " fill="#D59448" transform="translate(13,24)"/>
</svg>