<svg xmlns="http://www.w3.org/2000/svg" version="1.1" width="716" height="680">
<path d="M0 0 C236.28 0 472.56 0 716 0 C716 236.28 716 472.56 716 716 C479.72 716 243.44 716 0 716 C0 479.72 0 243.44 0 0 Z " fill="#FEFEFE" transform="translate(0,0)"/>
<path d="M0 0 C25.74 0 51.48 0 78 0 C78 8.58 78 17.16 78 26 C95.16 26 112.32 26 130 26 C130 17.42 130 8.84 130 0 C155.74 0 181.48 0 208 0 C208 8.58 208 17.16 208 26 C216.58 26 225.16 26 234 26 C234 34.58 234 43.16 234 52 C242.58 52 251.16 52 260 52 C260 86.32 260 120.64 260 156 C251.42 156 242.84 156 234 156 C234 164.58 234 173.16 234 182 C225.42 182 216.84 182 208 182 C208 190.58 208 199.16 208 208 C199.42 208 190.84 208 182 208 C182 216.58 182 225.16 182 234 C173.42 234 164.84 234 156 234 C156 242.58 156 251.16 156 260 C147.42 260 138.84 260 130 260 C130 268.58 130 277.16 130 286 C112.84 286 95.68 286 78 286 C78 277.42 78 268.84 78 260 C69.42 260 60.84 260 52 260 C52 251.42 52 242.84 52 234 C43.42 234 34.84 234 26 234 C26 225.42 26 216.84 26 208 C17.42 208 8.84 208 0 208 C0 199.42 0 190.84 0 182 C-8.58 182 -17.16 182 -26 182 C-26 173.42 -26 164.84 -26 156 C-34.58 156 -43.16 156 -52 156 C-52 121.68 -52 87.36 -52 52 C-43.42 52 -34.84 52 -26 52 C-26 43.42 -26 34.84 -26 26 C-17.42 26 -8.84 26 0 26 C0 17.42 0 8.84 0 0 Z " fill="#FC0000" transform="translate(254,228)"/>
<path d="M0 0 C25.74 0 51.48 0 78 0 C78 8.58 78 17.16 78 26 C86.58 26 95.16 26 104 26 C104 34.58 104 43.16 104 52 C112.58 52 121.16 52 130 52 C130 86.32 130 120.64 130 156 C121.42 156 112.84 156 104 156 C104 164.58 104 173.16 104 182 C95.42 182 86.84 182 78 182 C78 190.58 78 199.16 78 208 C69.42 208 60.84 208 52 208 C52 216.58 52 225.16 52 234 C43.42 234 34.84 234 26 234 C26 242.58 26 251.16 26 260 C17.42 260 8.84 260 0 260 C0 268.58 0 277.16 0 286 C-17.16 286 -34.32 286 -52 286 C-52 277.42 -52 268.84 -52 260 C-60.58 260 -69.16 260 -78 260 C-78 251.42 -78 242.84 -78 234 C-69.09 234 -60.18 234 -51 234 C-51 241.92 -51 249.84 -51 258 C-43.41 258 -35.82 258 -28 258 C-28 250.74 -28 243.48 -28 236 C-28.99 235.67 -29.98 235.34 -31 235 C-27.01976147 231.84325909 -24.17149941 230.87168788 -19.11328125 230.90234375 C-18.17548828 230.90556641 -17.23769531 230.90878906 -16.27148438 230.91210938 C-14.80678711 230.92467773 -14.80678711 230.92467773 -13.3125 230.9375 C-12.32443359 230.94201172 -11.33636719 230.94652344 -10.31835938 230.95117188 C-7.87884526 230.96295697 -5.43945311 230.97940989 -3 231 C-3.33 230.34 -3.66 229.68 -4 229 C-3.34 228.67 -2.68 228.34 -2 228 C-1.96241577 227.05362671 -1.96241577 227.05362671 -1.92407227 226.08813477 C-1.80845863 223.24603175 -1.68557684 220.40428917 -1.5625 217.5625 C-1.52318359 216.56927734 -1.48386719 215.57605469 -1.44335938 214.55273438 C-1.40146484 213.60849609 -1.35957031 212.66425781 -1.31640625 211.69140625 C-1.27974854 210.81685791 -1.24309082 209.94230957 -1.20532227 209.04125977 C-1 207 -1 207 0 206 C1.78071246 205.91273777 3.5648314 205.89300959 5.34765625 205.90234375 C6.42724609 205.90556641 7.50683594 205.90878906 8.61914062 205.91210938 C10.32360352 205.92467773 10.32360352 205.92467773 12.0625 205.9375 C13.77276367 205.94426758 13.77276367 205.94426758 15.51757812 205.95117188 C18.34510351 205.96300253 21.1725264 205.9794859 24 206 C23.94875977 205.2886792 23.89751953 204.5773584 23.84472656 203.84448242 C23.62499256 200.62653574 23.43714525 197.40749924 23.25 194.1875 C23.12818359 192.50817383 23.12818359 192.50817383 23.00390625 190.79492188 C22.94589844 189.72177734 22.88789063 188.64863281 22.828125 187.54296875 C22.7652832 186.55321045 22.70244141 185.56345215 22.63769531 184.54370117 C23 182 23 182 24.671875 180.15820312 C27.51469697 178.74394689 29.2627432 178.7327232 32.421875 178.92578125 C33.44667969 178.98056641 34.47148437 179.03535156 35.52734375 179.09179688 C36.59082031 179.16462891 37.65429688 179.23746094 38.75 179.3125 C39.82894531 179.37373047 40.90789062 179.43496094 42.01953125 179.49804688 C44.68087106 179.65113279 47.34043997 179.8189546 50 180 C49.99476318 179.27820557 49.98952637 178.55641113 49.98413086 177.81274414 C49.96342642 174.56267151 49.95036082 171.31261272 49.9375 168.0625 C49.92912109 166.92619141 49.92074219 165.78988281 49.91210938 164.61914062 C49.90888672 163.53955078 49.90566406 162.45996094 49.90234375 161.34765625 C49.89710693 160.34742432 49.89187012 159.34719238 49.88647461 158.31665039 C50 156 50 156 51 155 C59.58 155 68.16 155 77 155 C77 121.34 77 87.68 77 53 C69.41 53.66 61.82 54.32 54 55 C53.01 54.67 52.02 54.34 51 54 C47.12128314 46.24256629 50 36.67307455 50 28 C34.16 28 18.32 28 2 28 C2 35.26 2 42.52 2 50 C1.67 50 1.34 50 1 50 C1 42.41 1 34.82 1 27 C4.59777344 27.01160156 8.19554687 27.02320313 11.90234375 27.03515625 C15.37068595 27.04294557 18.83902719 27.04902304 22.30737305 27.05493164 C24.72567172 27.05997349 27.14396733 27.06680678 29.56225586 27.07543945 C33.02979283 27.08751157 36.49728966 27.09322963 39.96484375 27.09765625 C41.05337143 27.10281754 42.14189911 27.10797882 43.26341248 27.11329651 C44.26437454 27.11337204 45.26533661 27.11344757 46.29663086 27.11352539 C47.18265488 27.115746 48.06867889 27.11796661 48.98155212 27.12025452 C50.9969869 27.22428041 50.9969869 27.22428041 52 26 C34.84 26 17.68 26 0 26 C0 17.42 0 8.84 0 0 Z " fill="#8E0202" transform="translate(384,228)"/>
<path d="M0 0 C25.74 0 51.48 0 78 0 C78 8.58 78 17.16 78 26 C39.885 26.495 39.885 26.495 1 27 C0.67 35.25 0.34 43.5 0 52 C-8.58 52 -17.16 52 -26 52 C-26 43.42 -26 34.84 -26 26 C-17.42 26 -8.84 26 0 26 C0 17.42 0 8.84 0 0 Z " fill="#050001" transform="translate(254,228)"/>
<path d="M0 0 C8.58 0 17.16 0 26 0 C26 34.32 26 68.64 26 104 C17.42 104 8.84 104 0 104 C0 69.68 0 35.36 0 0 Z " fill="#020000" transform="translate(488,280)"/>
<path d="M0 0 C8.58 0 17.16 0 26 0 C26 34.32 26 68.64 26 104 C17.42 104 8.84 104 0 104 C0 69.68 0 35.36 0 0 Z " fill="#000000" transform="translate(202,280)"/>
<path d="M0 0 C17.16 0 34.32 0 52 0 C52 8.58 52 17.16 52 26 C43.42 26 34.84 26 26 26 C26 34.58 26 43.16 26 52 C17.42 52 8.84 52 0 52 C0 34.84 0 17.68 0 0 Z " fill="#FEF9F8" transform="translate(254,280)"/>
<path d="M0 0 C25.74 0 51.48 0 78 0 C78 8.58 78 17.16 78 26 C52.26 26 26.52 26 0 26 C0 17.42 0 8.84 0 0 Z " fill="#040001" transform="translate(384,228)"/>
<path d="M0 0 C8.58 0 17.16 0 26 0 C26.33 8.25 26.66 16.5 27 25 C35.25 25.33 43.5 25.66 52 26 C52 34.58 52 43.16 52 52 C43.42 52 34.84 52 26 52 C26 43.42 26 34.84 26 26 C17.42 26 8.84 26 0 26 C0 17.42 0 8.84 0 0 Z " fill="#080001" transform="translate(228,384)"/>
<path d="M0 0 C17.16 0 34.32 0 52 0 C52 8.58 52 17.16 52 26 C34.84 26 17.68 26 0 26 C0 17.42 0 8.84 0 0 Z " fill="#030000" transform="translate(332,488)"/>
<path d="M0 0 C17.16 0 34.32 0 52 0 C52 8.58 52 17.16 52 26 C34.84 26 17.68 26 0 26 C0 17.42 0 8.84 0 0 Z " fill="#800202" transform="translate(410,410)"/>
<path d="M0 0 C17.16 0 34.32 0 52 0 C52 8.58 52 17.16 52 26 C34.84 26 17.68 26 0 26 C0 17.42 0 8.84 0 0 Z " fill="#010000" transform="translate(332,254)"/>
<path d="M0 0 C3.06506511 1.21176993 5.42118961 1.21442141 8.6875 1.0625 C9.0175 2.7125 9.3475 4.3625 9.6875 6.0625 C10.54214844 6.05089844 11.39679687 6.03929687 12.27734375 6.02734375 C13.38207031 6.01832031 14.48679687 6.00929688 15.625 6 C16.72714844 5.98839844 17.82929687 5.97679687 18.96484375 5.96484375 C21.6875 6.0625 21.6875 6.0625 22.6875 7.0625 C22.72842937 9.39547433 22.72991723 11.72955225 22.6875 14.0625 C24.0075 14.0625 25.3275 14.0625 26.6875 14.0625 C27.3475 9.7725 28.0075 5.4825 28.6875 1.0625 C31.77994792 0.83463542 34.87239583 0.60677083 37.96484375 0.37890625 C40.59859903 0.35831916 40.59859903 0.35831916 41.6875 -0.9375 C43.35367115 -0.97813832 45.02138095 -0.980221 46.6875 -0.9375 C47.3475 1.7025 48.0075 4.3425 48.6875 7.0625 C50.0075 7.0625 51.3275 7.0625 52.6875 7.0625 C52.6875 8.3825 52.6875 9.7025 52.6875 11.0625 C53.6775 11.0625 54.6675 11.0625 55.6875 11.0625 C55.6875 12.0525 55.6875 13.0425 55.6875 14.0625 C54.6975 14.0625 53.7075 14.0625 52.6875 14.0625 C52.1925 16.5375 52.1925 16.5375 51.6875 19.0625 C50.3675 19.0625 49.0475 19.0625 47.6875 19.0625 C46.841875 19.248125 45.99625 19.43375 45.125 19.625 C42.6875 20.0625 42.6875 20.0625 39.6875 19.0625 C39 17 39 17 38.6875 15.0625 C37.635625 16.5165625 37.635625 16.5165625 36.5625 18 C34.52675935 20.43366162 33.750227 21.04073757 30.625 22.125 C27.22541899 22.05266849 26.0251496 21.4900592 23.6875 19.0625 C23.6875 18.4025 23.6875 17.7425 23.6875 17.0625 C23.0275 17.0625 22.3675 17.0625 21.6875 17.0625 C21.6875 17.7225 21.6875 18.3825 21.6875 19.0625 C17.66945309 19.90348656 14.66946457 20.11654945 10.6875 19.0625 C10.6875 18.4025 10.6875 17.7425 10.6875 17.0625 C8.7075 17.0625 6.7275 17.0625 4.6875 17.0625 C4.6875 15.0825 4.6875 13.1025 4.6875 11.0625 C3.0375 11.0625 1.3875 11.0625 -0.3125 11.0625 C-0.6425 13.0425 -0.9725 15.0225 -1.3125 17.0625 C-2.6325 17.0625 -3.9525 17.0625 -5.3125 17.0625 C-5.3125 11.4525 -5.3125 5.8425 -5.3125 0.0625 C-2.3125 -0.9375 -2.3125 -0.9375 0 0 Z " fill="#E1FCFC" transform="translate(638.3125,680.9375)"/>
<path d="M0 0 C1.07461739 0.00539291 1.07461739 0.00539291 2.17094421 0.01089478 C2.92211517 0.01074875 3.67328613 0.01060272 4.44721985 0.01045227 C6.94166404 0.01115153 9.43603448 0.01894452 11.9304657 0.02676392 C13.65539509 0.02862805 15.38032501 0.03005197 17.10525513 0.03105164 C21.65418448 0.03487719 26.20308211 0.04470779 30.7519989 0.05575562 C35.39025951 0.06596893 40.02852522 0.07054908 44.66679382 0.07559204 C53.77423191 0.08633003 62.88163808 0.10392713 71.98905945 0.12442017 C71.98905945 8.70442017 71.98905945 17.28442017 71.98905945 26.12442017 C89.14905945 26.12442017 106.30905945 26.12442017 123.98905945 26.12442017 C123.98905945 17.54442017 123.98905945 8.96442017 123.98905945 0.12442017 C141.14905945 0.12442017 158.30905945 0.12442017 175.98905945 0.12442017 C175.65905945 0.78442017 175.32905945 1.44442017 174.98905945 2.12442017 C150.23905945 1.62942017 150.23905945 1.62942017 124.98905945 1.12442017 C125.02865221 9.63604842 125.02865221 9.63604842 125.07914734 18.14761353 C125.08289368 19.72748047 125.08289368 19.72748047 125.0867157 21.33926392 C125.09195251 22.42328491 125.09718933 23.50730591 125.10258484 24.62417603 C124.98905945 27.12442017 124.98905945 27.12442017 123.98905945 28.12442017 C122.33167501 28.21788932 120.67031301 28.24186994 119.01029968 28.23794556 C117.94927536 28.23787003 116.88825104 28.23779449 115.79507446 28.23771667 C114.64092545 28.23255539 113.48677643 28.2273941 112.2976532 28.22207642 C111.12267776 28.22066147 109.94770233 28.21924652 108.73712158 28.2177887 C104.96690881 28.21217009 101.19675441 28.19961443 97.42655945 28.18692017 C94.87773218 28.18190756 92.32890398 28.17734424 89.78007507 28.17324829 C83.51638312 28.16219461 77.25272545 28.14543838 70.98905945 28.12442017 C70.95147522 27.04958374 70.95147522 27.04958374 70.91313171 25.95303345 C70.79736193 22.71830502 70.67454976 19.48388175 70.55155945 16.24942017 C70.51224304 15.12149048 70.47292664 13.99356079 70.43241882 12.83145142 C70.39052429 11.75508423 70.34862976 10.67871704 70.3054657 9.56973267 C70.26880798 8.57473755 70.23215027 7.57974243 70.19438171 6.55459595 C70.13946413 4.11662516 70.13946413 4.11662516 68.98905945 2.12442017 C44.89905945 1.79442017 20.80905945 1.46442017 -4.01094055 1.12442017 C-4.01094055 8.38442017 -4.01094055 15.64442017 -4.01094055 23.12442017 C1.35091492 23.07221313 1.35091492 23.07221313 6.8210907 23.01895142 C10.27624207 22.99556728 13.7313847 22.97734414 17.18656921 22.95962524 C19.59123163 22.94452201 21.99586643 22.92403808 24.4004364 22.89810181 C27.85322375 22.86178666 31.30564749 22.84470916 34.7585907 22.83145142 C35.83679581 22.81596756 36.91500092 22.8004837 38.02587891 22.78453064 C39.02668991 22.78430405 40.02750092 22.78407745 41.05863953 22.78384399 C41.94022232 22.77718216 42.82180511 22.77052032 43.73010254 22.76365662 C46.47816298 23.20253176 47.35143598 23.90723232 48.98905945 26.12442017 C49.45317078 28.91177368 49.45317078 28.91177368 49.5710907 32.25332642 C49.61556335 33.45279907 49.66003601 34.65227173 49.70585632 35.88809204 C49.73743835 37.14170532 49.76902039 38.3953186 49.80155945 39.68692017 C49.8779364 41.57314087 49.8779364 41.57314087 49.95585632 43.49746704 C50.17542033 50.41559388 50.17542033 50.41559388 49.98905945 53.12442017 C47.98905945 55.12442017 47.98905945 55.12442017 45.74247742 55.35147095 C44.83127136 55.34099731 43.92006531 55.33052368 42.98124695 55.31973267 C41.99511414 55.31328735 41.00898132 55.30684204 39.9929657 55.30020142 C38.96042664 55.2834436 37.92788757 55.26668579 36.86405945 55.24942017 C35.82378601 55.24039673 34.78351257 55.23137329 33.7117157 55.22207642 C31.13726852 55.19845763 28.56327733 55.16552166 25.98905945 55.12442017 C25.98905945 56.11442017 25.98905945 57.10442017 25.98905945 58.12442017 C24.99905945 58.12442017 24.00905945 58.12442017 22.98905945 58.12442017 C23.2500946 59.12022095 23.2500946 59.12022095 23.5164032 60.13613892 C24.09597825 63.80039442 23.85730155 67.26450064 23.55155945 70.93692017 C23.49935242 71.62979126 23.44714539 72.32266235 23.39335632 73.03652954 C23.26466125 74.73296453 23.12769761 76.4287688 22.98905945 78.12442017 C21.99905945 78.12442017 21.00905945 78.12442017 19.98905945 78.12442017 C19.98905945 69.54442017 19.98905945 60.96442017 19.98905945 52.12442017 C28.56905945 52.12442017 37.14905945 52.12442017 45.98905945 52.12442017 C45.98905945 43.54442017 45.98905945 34.96442017 45.98905945 26.12442017 C28.82905945 26.12442017 11.66905945 26.12442017 -6.01094055 26.12442017 C-6.01094055 0.01272675 -6.01094055 0.01272675 0 0 Z " fill="#C71719" transform="translate(260.0109405517578,253.87557983398438)"/>
<path d="M0 0 C8.58 0 17.16 0 26 0 C26 17.16 26 34.32 26 52 C25.34 51.67 24.68 51.34 24 51 C23.67 35.16 23.34 19.32 23 3 C13.26710519 2.18010841 13.26710519 2.18010841 10 4 C8.02 4 6.04 4 4 4 C3.67 36.01 3.34 68.02 3 101 C5.475 100.505 5.475 100.505 8 100 C10.62699871 100.08439063 13.19806064 100.21983854 15.8125 100.4375 C16.50537109 100.48970703 17.19824219 100.54191406 17.91210938 100.59570312 C19.60854437 100.72439819 21.30434863 100.86136184 23 101 C22.814375 99.865625 22.62875 98.73125 22.4375 97.5625 C22.293125 96.386875 22.14875 95.21125 22 94 C22.33 93.67 22.66 93.34 23 93 C23.21083753 90.32939127 23.37591197 87.6747865 23.5 85 C23.86486486 77.13513514 23.86486486 77.13513514 25 76 C26.98757028 75.90016942 28.9786752 75.86919247 30.96875 75.8671875 C32.78439453 75.86525391 32.78439453 75.86525391 34.63671875 75.86328125 C35.91160156 75.86714844 37.18648438 75.87101562 38.5 75.875 C39.77488281 75.87113281 41.04976563 75.86726563 42.36328125 75.86328125 C43.57371094 75.86457031 44.78414063 75.86585938 46.03125 75.8671875 C47.15080078 75.86831543 48.27035156 75.86944336 49.42382812 75.87060547 C52 76 52 76 53 77 C53.08758003 78.99964982 53.10696576 81.0023611 53.09765625 83.00390625 C53.09443359 84.21884766 53.09121094 85.43378906 53.08789062 86.68554688 C53.07532227 88.60463867 53.07532227 88.60463867 53.0625 90.5625 C53.05798828 91.84576172 53.05347656 93.12902344 53.04882812 94.45117188 C53.03699545 97.63416022 53.02051068 100.81705762 53 104 C52.67 104 52.34 104 52 104 C52 95.42 52 86.84 52 78 C43.42 78 34.84 78 26 78 C26 86.58 26 95.16 26 104 C17.42 104 8.84 104 0 104 C0 69.68 0 35.36 0 0 Z " fill="#D21113" transform="translate(228,280)"/>
<path d="M0 0 C8.58 0 17.16 0 26 0 C26 8.58 26 17.16 26 26 C17.42 26 8.84 26 0 26 C0 17.42 0 8.84 0 0 Z " fill="#850202" transform="translate(358,462)"/>
<path d="M0 0 C8.58 0 17.16 0 26 0 C26 8.58 26 17.16 26 26 C17.42 26 8.84 26 0 26 C0 17.42 0 8.84 0 0 Z " fill="#080000" transform="translate(306,462)"/>
<path d="M0 0 C8.58 0 17.16 0 26 0 C26 8.58 26 17.16 26 26 C17.42 26 8.84 26 0 26 C0 17.42 0 8.84 0 0 Z " fill="#080001" transform="translate(280,436)"/>
<path d="M0 0 C8.58 0 17.16 0 26 0 C26 8.58 26 17.16 26 26 C17.42 26 8.84 26 0 26 C0 17.42 0 8.84 0 0 Z " fill="#060101" transform="translate(410,436)"/>
<path d="M0 0 C8.58 0 17.16 0 26 0 C26 8.58 26 17.16 26 26 C17.42 26 8.84 26 0 26 C0 17.42 0 8.84 0 0 Z " fill="#010001" transform="translate(436,410)"/>
<path d="M0 0 C8.58 0 17.16 0 26 0 C26 8.58 26 17.16 26 26 C17.42 26 8.84 26 0 26 C0 17.42 0 8.84 0 0 Z " fill="#FDF6F4" transform="translate(254,358)"/>
<path d="M0 0 C6.1565625 -0.0309375 6.1565625 -0.0309375 12.4375 -0.0625 C14.38160767 -0.07615601 14.38160767 -0.07615601 16.36499023 -0.09008789 C17.88394897 -0.09383423 17.88394897 -0.09383423 19.43359375 -0.09765625 C20.47572021 -0.10289307 21.51784668 -0.10812988 22.59155273 -0.11352539 C25 0 25 0 26 1 C26.08737645 2.85369611 26.10698153 4.71067541 26.09765625 6.56640625 C26.09515869 7.57904541 26.09266113 8.59168457 26.09008789 9.63500977 C26.08098389 10.93108154 26.07187988 12.22715332 26.0625 13.5625 C26.041875 17.666875 26.02125 21.77125 26 26 C17.42 26 8.84 26 0 26 C0 17.42 0 8.84 0 0 Z " fill="#050000" transform="translate(384,462)"/>
<path d="M0 0 C8.58 0 17.16 0 26 0 C26 8.58 26 17.16 26 26 C21.895625 26.020625 17.79125 26.04125 13.5625 26.0625 C11.61839233 26.07615601 11.61839233 26.07615601 9.63500977 26.09008789 C8.11605103 26.09383423 8.11605103 26.09383423 6.56640625 26.09765625 C5.00321655 26.10551147 5.00321655 26.10551147 3.40844727 26.11352539 C1 26 1 26 0 25 C-0.08737645 23.14630389 -0.10698153 21.28932459 -0.09765625 19.43359375 C-0.09515869 18.42095459 -0.09266113 17.40831543 -0.09008789 16.36499023 C-0.08098389 15.06891846 -0.07187988 13.77284668 -0.0625 12.4375 C-0.041875 8.333125 -0.02125 4.22875 0 0 Z " fill="#050000" transform="translate(462,384)"/>
<path d="M0 0 C1.5631897 0.00785522 1.5631897 0.00785522 3.15795898 0.01586914 C4.17059814 0.0183667 5.1832373 0.02086426 6.2265625 0.0234375 C7.52263428 0.0325415 8.81870605 0.04164551 10.15405273 0.05102539 C16.31061523 0.08196289 16.31061523 0.08196289 22.59155273 0.11352539 C22.59155273 8.69352539 22.59155273 17.27352539 22.59155273 26.11352539 C14.01155273 26.11352539 5.43155273 26.11352539 -3.40844727 26.11352539 C-3.42907227 22.00915039 -3.44969727 17.90477539 -3.47094727 13.67602539 C-3.48005127 12.37995361 -3.48915527 11.08388184 -3.49853516 9.74853516 C-3.50103271 8.735896 -3.50353027 7.72325684 -3.50610352 6.67993164 C-3.51134033 5.63780518 -3.51657715 4.59567871 -3.52197266 3.52197266 C-3.36883489 0.27314669 -3.24882597 0.15313777 0 0 Z " fill="#040000" transform="translate(465.408447265625,253.886474609375)"/>
<path d="M0 0 C3.06506511 1.21176993 5.42118961 1.21442141 8.6875 1.0625 C9.0175 2.7125 9.3475 4.3625 9.6875 6.0625 C10.54214844 6.05089844 11.39679687 6.03929687 12.27734375 6.02734375 C13.38207031 6.01832031 14.48679687 6.00929688 15.625 6 C16.72714844 5.98839844 17.82929687 5.97679687 18.96484375 5.96484375 C21.6875 6.0625 21.6875 6.0625 22.6875 7.0625 C22.72842937 9.39547433 22.72991723 11.72955225 22.6875 14.0625 C24.0075 14.0625 25.3275 14.0625 26.6875 14.0625 C27.1825 17.0325 27.1825 17.0325 27.6875 20.0625 C26.3675 19.7325 25.0475 19.4025 23.6875 19.0625 C23.6875 18.4025 23.6875 17.7425 23.6875 17.0625 C23.0275 17.0625 22.3675 17.0625 21.6875 17.0625 C21.6875 17.7225 21.6875 18.3825 21.6875 19.0625 C17.66945309 19.90348656 14.66946457 20.11654945 10.6875 19.0625 C10.6875 18.4025 10.6875 17.7425 10.6875 17.0625 C8.7075 17.0625 6.7275 17.0625 4.6875 17.0625 C4.6875 15.0825 4.6875 13.1025 4.6875 11.0625 C3.0375 11.0625 1.3875 11.0625 -0.3125 11.0625 C-0.6425 13.0425 -0.9725 15.0225 -1.3125 17.0625 C-2.6325 17.0625 -3.9525 17.0625 -5.3125 17.0625 C-5.3125 11.4525 -5.3125 5.8425 -5.3125 0.0625 C-2.3125 -0.9375 -2.3125 -0.9375 0 0 Z " fill="#FBF4DF" transform="translate(638.3125,680.9375)"/>
<path d="M0 0 C0.66 0.66 1.32 1.32 2 2 C2.99 1.67 3.98 1.34 5 1 C6.38278677 5.14836031 7 8.60868663 7 13 C7.33 13.99 7.66 14.98 8 16 C7.01 16.33 6.02 16.66 5 17 C4.34 16.67 3.68 16.34 3 16 C3 15.34 3 14.68 3 14 C-1.06962402 15.23035145 -4.38325151 16.78976481 -8 19 C-8.66 19 -9.32 19 -10 19 C-10 19.66 -10 20.32 -10 21 C-11.1875 22.625 -11.1875 22.625 -13 24 C-15.6875 24.1875 -15.6875 24.1875 -18 24 C-19.09349794 19.31057615 -18.83501936 16.34358796 -17.25 11.8125 C-16.90453125 10.78769531 -16.5590625 9.76289062 -16.203125 8.70703125 C-15.06145592 6.13827583 -14.2142539 4.69565233 -12 3 C-11.34 3 -10.68 3 -10 3 C-9.67 1.68 -9.34 0.36 -9 -1 C-5.37815976 -2.34142231 -3.4046087 -1.70230435 0 0 Z " fill="#B42936" transform="translate(617,678)"/>
<path d="M0 0 C0.33 0 0.66 0 1 0 C1 6.93 1 13.86 1 21 C2.49893799 20.98428955 3.99787598 20.9685791 5.54223633 20.95239258 C11.09393966 20.89816621 16.64561949 20.86367631 22.19750977 20.83520508 C24.60217218 20.82010184 27.00680698 20.79961792 29.41137695 20.77368164 C32.86416431 20.73736649 36.31658804 20.720289 39.76953125 20.70703125 C40.84773636 20.69154739 41.92594147 20.67606354 43.03681946 20.66011047 C44.03763046 20.65988388 45.03844147 20.65965729 46.06958008 20.65942383 C46.95116287 20.65276199 47.83274567 20.64610016 48.74104309 20.63923645 C51.48910354 21.0781116 52.36237653 21.78281215 54 24 C54.46411133 26.78735352 54.46411133 26.78735352 54.58203125 30.12890625 C54.62650391 31.32837891 54.67097656 32.52785156 54.71679688 33.76367188 C54.74837891 35.01728516 54.77996094 36.27089844 54.8125 37.5625 C54.88887695 39.4487207 54.88887695 39.4487207 54.96679688 41.37304688 C55.18636088 48.29117371 55.18636088 48.29117371 55 51 C53 53 53 53 50.75341797 53.22705078 C49.84221191 53.21657715 48.93100586 53.20610352 47.9921875 53.1953125 C47.00605469 53.18886719 46.01992188 53.18242187 45.00390625 53.17578125 C43.97136719 53.15902344 42.93882812 53.14226562 41.875 53.125 C40.83472656 53.11597656 39.79445313 53.10695313 38.72265625 53.09765625 C36.14820908 53.07403747 33.57421788 53.04110149 31 53 C31 53.99 31 54.98 31 56 C30.01 56 29.02 56 28 56 C28.26103516 56.99580078 28.26103516 56.99580078 28.52734375 58.01171875 C29.1069188 61.67597426 28.8682421 65.14008047 28.5625 68.8125 C28.51029297 69.50537109 28.45808594 70.19824219 28.40429688 70.91210938 C28.27560181 72.60854437 28.13863816 74.30434863 28 76 C27.01 76 26.02 76 25 76 C25 67.42 25 58.84 25 50 C33.58 50 42.16 50 51 50 C51 41.09 51 32.18 51 23 C47.48601562 23.01160156 43.97203125 23.02320313 40.3515625 23.03515625 C36.95931081 23.04294838 33.56706012 23.04902426 30.17480469 23.05493164 C27.81184444 23.05996959 25.44888732 23.06680008 23.0859375 23.07543945 C19.69530465 23.08752854 16.30471291 23.09323359 12.9140625 23.09765625 C11.85256989 23.10281754 10.79107727 23.10797882 9.69741821 23.11329651 C8.71655243 23.11337204 7.73568665 23.11344757 6.72509766 23.11352539 C5.42603989 23.11685631 5.42603989 23.11685631 4.10073853 23.12025452 C2 23 2 23 0 22 C0 14.74 0 7.48 0 0 Z " fill="#E7080E" transform="translate(255,256)"/>
<path d="M0 0 C8.58 0 17.16 0 26 0 C26 0.33 26 0.66 26 1 C17.75 1 9.5 1 1 1 C1.144375 4.42375 1.28875 7.8475 1.4375 11.375 C1.48060303 12.45313965 1.52370605 13.5312793 1.56811523 14.64208984 C1.60622314 15.48980957 1.64433105 16.3375293 1.68359375 17.2109375 C1.72025146 18.08024902 1.75690918 18.94956055 1.79467773 19.84521484 C1.87401544 22.0483262 1.87401544 22.0483262 3 24 C3.72179443 24.02505615 4.44358887 24.0501123 5.18725586 24.07592773 C8.437535 24.19151302 11.68749688 24.31440774 14.9375 24.4375 C16.07380859 24.47681641 17.21011719 24.51613281 18.38085938 24.55664062 C20.00024414 24.61948242 20.00024414 24.61948242 21.65234375 24.68359375 C22.65257568 24.72025146 23.65280762 24.75690918 24.68334961 24.79467773 C27 25 27 25 28 26 C28.08726223 27.78071246 28.10699041 29.5648314 28.09765625 31.34765625 C28.09443359 32.42724609 28.09121094 33.50683594 28.08789062 34.61914062 C28.07951172 35.75544922 28.07113281 36.89175781 28.0625 38.0625 C28.05798828 39.20267578 28.05347656 40.34285156 28.04882812 41.51757812 C28.0369976 44.34507418 28.0190615 47.17254345 28 50 C35.26 50 42.52 50 50 50 C50 49.34 50 48.68 50 48 C50.99 48 51.98 48 53 48 C53.78773917 51.53501458 54.17495802 54.90249788 54.31640625 58.51953125 C54.35830078 59.54111328 54.40019531 60.56269531 54.44335938 61.61523438 C54.48267578 62.67033203 54.52199219 63.72542969 54.5625 64.8125 C54.60568359 65.88693359 54.64886719 66.96136719 54.69335938 68.06835938 C54.79910902 70.71210051 54.90002703 73.35603412 55 76 C61.93 76 68.86 76 76 76 C76 76.66 76 77.32 76 78 C68.08 78 60.16 78 52 78 C52 69.42 52 60.84 52 52 C43.42 52 34.84 52 26 52 C26 43.42 26 34.84 26 26 C17.81747203 26.0395914 17.81747203 26.0395914 9.63500977 26.09008789 C8.11605103 26.09383423 8.11605103 26.09383423 6.56640625 26.09765625 C5.00321655 26.10551147 5.00321655 26.10551147 3.40844727 26.11352539 C1 26 1 26 0 25 C-0.08737645 23.14630389 -0.10698153 21.28932459 -0.09765625 19.43359375 C-0.09515869 18.42095459 -0.09266113 17.40831543 -0.09008789 16.36499023 C-0.08098389 15.06891846 -0.07187988 13.77284668 -0.0625 12.4375 C-0.041875 8.333125 -0.02125 4.22875 0 0 Z " fill="#CE1318" transform="translate(254,384)"/>
<path d="M0 0 C1.32 0 2.64 0 4 0 C3.67 0.99 3.34 1.98 3 3 C3 9.6 3 16.2 3 23 C17.85 23.33 32.7 23.66 48 24 C48 22.35 48 20.7 48 19 C48.495 18.505 48.495 18.505 49 18 C49.23690961 14.60429564 49.3964169 11.21583298 49.51757812 7.81445312 C49.78671875 2.21328125 49.78671875 2.21328125 52 0 C52 8.58 52 17.16 52 26 C34.84 26 17.68 26 0 26 C0 17.42 0 8.84 0 0 Z " fill="#300000" transform="translate(332,254)"/>
<path d="M0 0 C8.25 0 16.5 0 25 0 C25 0.33 25 0.66 25 1 C19.39 1 13.78 1 8 1 C8 8.26 8 15.52 8 23 C9.32 23.33 10.64 23.66 12 24 C10.4221875 23.938125 10.4221875 23.938125 8.8125 23.875 C4.69324114 23.79329669 4.69324114 23.79329669 0 26 C0 17.42 0 8.84 0 0 Z " fill="#8E0000" transform="translate(436,384)"/>
<path d="M0 0 C0.66 0 1.32 0 2 0 C2 34.32 2 68.64 2 104 C0.68 103.01 -0.64 102.02 -2 101 C-1.83826325 100.42587246 -1.67652651 99.85174492 -1.50988865 99.26021957 C-1.00879957 97.03900646 -0.86238411 95.10864749 -0.84178162 92.83648682 C-0.82709839 91.60397942 -0.82709839 91.60397942 -0.81211853 90.34657288 C-0.80636307 89.45393234 -0.8006076 88.56129181 -0.79467773 87.64160156 C-0.78477814 86.69492111 -0.77487854 85.74824066 -0.76467896 84.77287292 C-0.73310546 81.64548234 -0.70832286 78.51807657 -0.68359375 75.390625 C-0.66302065 73.22157396 -0.64202408 71.05252689 -0.62062073 68.88348389 C-0.5654369 63.17563092 -0.51601131 57.46774199 -0.46777344 51.75982666 C-0.41753152 45.93490398 -0.36185949 40.1100335 -0.30664062 34.28515625 C-0.19910415 22.85681543 -0.09764912 11.42842928 0 0 Z " fill="#2E0000" transform="translate(226,280)"/>
<path d="M0 0 C1.07461739 0.00539291 1.07461739 0.00539291 2.17094421 0.01089478 C2.92211517 0.01074875 3.67328613 0.01060272 4.44721985 0.01045227 C6.94166404 0.01115153 9.43603448 0.01894452 11.9304657 0.02676392 C13.65539509 0.02862805 15.38032501 0.03005197 17.10525513 0.03105164 C21.65418448 0.03487719 26.20308211 0.04470779 30.7519989 0.05575562 C35.39025951 0.06596893 40.02852522 0.07054908 44.66679382 0.07559204 C53.77423191 0.08633003 62.88163808 0.10392713 71.98905945 0.12442017 C71.98905945 8.70442017 71.98905945 17.28442017 71.98905945 26.12442017 C71.65905945 26.12442017 71.32905945 26.12442017 70.98905945 26.12442017 C70.9640033 25.46844849 70.93894714 24.81247681 70.91313171 24.1366272 C70.79732685 21.17401833 70.67453059 18.21173985 70.55155945 15.24942017 C70.51224304 14.2168811 70.47292664 13.18434204 70.43241882 12.12051392 C70.39052429 11.1343811 70.34862976 10.14824829 70.3054657 9.13223267 C70.26880798 8.22102661 70.23215027 7.30982056 70.19438171 6.3710022 C70.1232888 4.08958535 70.1232888 4.08958535 68.98905945 2.12442017 C44.89905945 2.12442017 20.80905945 2.12442017 -4.01094055 2.12442017 C-4.34094055 9.38442017 -4.67094055 16.64442017 -5.01094055 24.12442017 C11.81905945 24.45442017 28.64905945 24.78442017 45.98905945 25.12442017 C45.98905945 25.45442017 45.98905945 25.78442017 45.98905945 26.12442017 C28.82905945 26.12442017 11.66905945 26.12442017 -6.01094055 26.12442017 C-6.01094055 0.01272675 -6.01094055 0.01272675 0 0 Z " fill="#B91E1E" transform="translate(260.0109405517578,253.87557983398438)"/>
<path d="M0 0 C1.65 0 3.3 0 5 0 C5 5.28 5 10.56 5 16 C4.01 16 3.02 16 2 16 C2 14.02 2 12.04 2 10 C0.35 10 -1.3 10 -3 10 C-3.33 11.98 -3.66 13.96 -4 16 C-5.32 16 -6.64 16 -8 16 C-8 10.39 -8 4.78 -8 -1 C-4.28895884 -2.23701372 -3.51137242 -1.42126979 0 0 Z " fill="#FDDBDA" transform="translate(641,682)"/>
<path d="M0 0 C0 1.65 0 3.3 0 5 C-12.375 5.495 -12.375 5.495 -25 6 C-25 14.58 -25 23.16 -25 32 C-33.58 32 -42.16 32 -51 32 C-51 23.42 -51 14.84 -51 6 C-50.67 6 -50.34 6 -50 6 C-50 13.92 -50 21.84 -50 30 C-42.41 30 -34.82 30 -27 30 C-27 22.74 -27 15.48 -27 8 C-27.99 7.67 -28.98 7.34 -30 7 C-26.01976147 3.84325909 -23.17149941 2.87168788 -18.11328125 2.90234375 C-17.17548828 2.90556641 -16.23769531 2.90878906 -15.27148438 2.91210938 C-13.80678711 2.92467773 -13.80678711 2.92467773 -12.3125 2.9375 C-11.32443359 2.94201172 -10.33636719 2.94652344 -9.31835938 2.95117188 C-6.87884526 2.96295697 -4.43945311 2.97940989 -2 3 C-2.495 2.01 -2.495 2.01 -3 1 C-1 0 -1 0 0 0 Z " fill="#D80F13" transform="translate(383,456)"/>
<path d="M0 0 C0.66 0.33 1.32 0.66 2 1 C2.02886537 5.31248609 2.04675255 9.62494762 2.0625 13.9375 C2.07087891 15.16919922 2.07925781 16.40089844 2.08789062 17.66992188 C2.09272461 19.4246582 2.09272461 19.4246582 2.09765625 21.21484375 C2.10551147 22.84087524 2.10551147 22.84087524 2.11352539 24.49975586 C2 27 2 27 1 28 C-0.85369611 28.08737645 -2.71067541 28.10698153 -4.56640625 28.09765625 C-5.69111328 28.09443359 -6.81582031 28.09121094 -7.97460938 28.08789062 C-9.15861328 28.07951172 -10.34261719 28.07113281 -11.5625 28.0625 C-12.75037109 28.05798828 -13.93824219 28.05347656 -15.16210938 28.04882812 C-18.10809412 28.03699686 -21.05405316 28.01906076 -24 28 C-24 35.92 -24 43.84 -24 52 C-24.66 52 -25.32 52 -26 52 C-26 43.42 -26 34.84 -26 26 C-17.42 26 -8.84 26 0 26 C0 17.42 0 8.84 0 0 Z " fill="#C9151A" transform="translate(306,280)"/>
<path d="M0 0 C1.2065625 0.0309375 1.2065625 0.0309375 2.4375 0.0625 C3.0975 2.7025 3.7575 5.3425 4.4375 8.0625 C5.7575 8.0625 7.0775 8.0625 8.4375 8.0625 C8.4375 9.3825 8.4375 10.7025 8.4375 12.0625 C9.4275 12.0625 10.4175 12.0625 11.4375 12.0625 C11.4375 13.0525 11.4375 14.0425 11.4375 15.0625 C10.4475 15.0625 9.4575 15.0625 8.4375 15.0625 C8.1075 16.7125 7.7775 18.3625 7.4375 20.0625 C5.5 19.4375 5.5 19.4375 3.4375 18.0625 C2.6875 14.9375 2.6875 14.9375 2.4375 12.0625 C2.1075 14.0425 1.7775 16.0225 1.4375 18.0625 C0.4475 18.0625 -0.5425 18.0625 -1.5625 18.0625 C-1.9232927 15.25070232 -2.2764278 12.43831501 -2.625 9.625 C-2.7806543 8.42133789 -2.7806543 8.42133789 -2.93945312 7.19335938 C-3.18894343 5.15442132 -3.38030318 3.10854939 -3.5625 1.0625 C-2.5625 0.0625 -2.5625 0.0625 0 0 Z " fill="#F0FCDC" transform="translate(682.5625,679.9375)"/>
<path d="M0 0 C8.25 0 16.5 0 25 0 C22 3 22 3 19.82348633 3.2487793 C19.00130615 3.19117432 18.17912598 3.13356934 17.33203125 3.07421875 C16.52741455 3.02612061 15.72279785 2.97802246 14.89379883 2.9284668 C13.87697021 2.84894775 12.8601416 2.76942871 11.8125 2.6875 C8.574375 2.460625 5.33625 2.23375 2 2 C2 8.6 2 15.2 2 22 C9.59 22 17.18 22 25 22 C25 22.66 25 23.32 25 24 C21.20847666 24.0867982 17.41720704 24.14032207 13.625 24.1875 C12.54476563 24.21263672 11.46453125 24.23777344 10.3515625 24.26367188 C8.8046875 24.27817383 8.8046875 24.27817383 7.2265625 24.29296875 C6.27346191 24.3086792 5.32036133 24.32438965 4.33837891 24.34057617 C3.56671387 24.22818604 2.79504883 24.1157959 2 24 C-0.16926659 20.74610012 -0.24080049 19.86604043 -0.1953125 16.11328125 C-0.19031738 15.26805908 -0.18532227 14.42283691 -0.18017578 13.55200195 C-0.16196777 12.48296631 -0.14375977 11.41393066 -0.125 10.3125 C-0.08375 6.909375 -0.0425 3.50625 0 0 Z " fill="#E8090A" transform="translate(255,385)"/>
<path d="M0 0 C0.66 0.66 1.32 1.32 2 2 C2.99 1.67 3.98 1.34 5 1 C6.38278677 5.14836031 7 8.60868663 7 13 C7.33 13.99 7.66 14.98 8 16 C7.01 16.33 6.02 16.66 5 17 C4.34 16.67 3.68 16.34 3 16 C3 15.01 3 14.02 3 13 C2.01 13 1.02 13 0 13 C-0.21914063 12.46890625 -0.43828125 11.9378125 -0.6640625 11.390625 C-2.99210672 6.20457526 -5.00260068 3.72585417 -10 1 C-6.40344438 -2.59655562 -4.29067657 -2.09032961 0 0 Z " fill="#6F463D" transform="translate(617,678)"/>
<path d="M0 0 C3.3 0 6.6 0 10 0 C10 3.3 10 6.6 10 10 C8.02 10 6.04 10 4 10 C4 11.98 4 13.96 4 16 C2.68 16 1.36 16 0 16 C0 10.72 0 5.44 0 0 Z " fill="#3DADD0" transform="translate(668,682)"/>
<path d="M0 0 C0.33 1.65 0.66 3.3 1 5 C-3.28595157 9.14308651 -8.18586129 11.02794868 -14 12 C-16.8125 11.57421875 -16.8125 11.57421875 -19 11 C-18.01 10.67 -17.02 10.34 -16 10 C-15.67 9.01 -15.34 8.02 -15 7 C-14.34 7 -13.68 7 -13 7 C-13 6.34 -13 5.68 -13 5 C-9.10648082 1.81175849 -5.18450403 -0.81007875 0 0 Z " fill="#D1A9A8" transform="translate(620,692)"/>
<path d="M0 0 C8.25 0 16.5 0 25 0 C23.68 0.33 22.36 0.66 21 1 C21 1.66 21 2.32 21 3 C15.06 3.33 9.12 3.66 3 4 C2.67 10.93 2.34 17.86 2 25 C1.34 25.33 0.68 25.66 0 26 C0 17.42 0 8.84 0 0 Z " fill="#900000" transform="translate(410,410)"/>
<path d="M0 0 C8.58 0 17.16 0 26 0 C25.01 1.485 25.01 1.485 24 3 C22.06054688 3.32470703 22.06054688 3.32470703 19.71875 3.2578125 C18.45611328 3.23654297 18.45611328 3.23654297 17.16796875 3.21484375 C16.28753906 3.18519531 15.40710938 3.15554688 14.5 3.125 C12.76051689 3.08170393 11.02092714 3.0424462 9.28125 3.0078125 C8.50845703 2.98348145 7.73566406 2.95915039 6.93945312 2.93408203 C4.91682062 2.86801747 4.91682062 2.86801747 3 4 C2.98018066 4.55985596 2.96036133 5.11971191 2.93994141 5.6965332 C2.84462217 8.23565854 2.73497247 10.77396888 2.625 13.3125 C2.5940625 14.19357422 2.563125 15.07464844 2.53125 15.98242188 C2.49257813 16.82998047 2.45390625 17.67753906 2.4140625 18.55078125 C2.3826416 19.33106689 2.3512207 20.11135254 2.31884766 20.9152832 C2 23 2 23 0 26 C0 17.42 0 8.84 0 0 Z " fill="#1D0000" transform="translate(436,410)"/>
<path d="M0 0 C0.33 0 0.66 0 1 0 C1 8.91 1 17.82 1 27 C-11.87 26.505 -11.87 26.505 -25 26 C-24.67 25.34 -24.34 24.68 -24 24 C-16.74 24 -9.48 24 -2 24 C-1.90912109 21.52693359 -1.90912109 21.52693359 -1.81640625 19.00390625 C-1.73202063 16.856761 -1.64737165 14.70962609 -1.5625 12.5625 C-1.52318359 11.47388672 -1.48386719 10.38527344 -1.44335938 9.26367188 C-1.40146484 8.22919922 -1.35957031 7.19472656 -1.31640625 6.12890625 C-1.27974854 5.17056885 -1.24309082 4.21223145 -1.20532227 3.22485352 C-1 1 -1 1 0 0 Z " fill="#690B0F" transform="translate(409,436)"/>
<path d="M0 0 C3.3 0 6.6 0 10 0 C10 3.3 10 6.6 10 10 C6.7 10 3.4 10 0 10 C0 6.7 0 3.4 0 0 Z " fill="#E1B16C" transform="translate(649,688)"/>
<path d="M0 0 C8.91 0 17.82 0 27 0 C26.67 8.58 26.34 17.16 26 26 C25.34 25.67 24.68 25.34 24 25 C23.67 17.74 23.34 10.48 23 3 C15.74 2.67 8.48 2.34 1 2 C0.67 1.34 0.34 0.68 0 0 Z " fill="#6B0A0E" transform="translate(436,254)"/>
<path d="M0 0 C2.97 0.495 2.97 0.495 6 1 C6 3.56997871 5.91198024 6.1023878 5.78125 8.66796875 C5.74064453 9.47258545 5.70003906 10.27720215 5.65820312 11.10620117 C5.60599609 12.12302979 5.55378906 13.1398584 5.5 14.1875 C5.335 17.425625 5.17 20.66375 5 24 C11.6 24 18.2 24 25 24 C25 17.07 25 10.14 25 3 C25.33 3 25.66 3 26 3 C26 10.26 26 17.52 26 25 C18.41 25 10.82 25 3 25 C3 17.08 3 9.16 3 1 C2.01 0.67 1.02 0.34 0 0 Z " fill="#EB0609" transform="translate(330,461)"/>
<path d="M0 0 C0.66 0 1.32 0 2 0 C2.33 7.59 2.66 15.18 3 23 C9.93 23 16.86 23 24 23 C24 23.66 24 24.32 24 25 C16.08 25 8.16 25 0 25 C0 16.75 0 8.5 0 0 Z " fill="#CD121E" transform="translate(306,437)"/>
<path d="M0 0 C0.99 0.66 1.98 1.32 3 2 C3.46411133 4.67382812 3.46411133 4.67382812 3.58203125 8.03125 C3.62650391 9.23394531 3.67097656 10.43664062 3.71679688 11.67578125 C3.74837891 12.93777344 3.77996094 14.19976562 3.8125 15.5 C3.88887695 17.39298828 3.88887695 17.39298828 3.96679688 19.32421875 C4.1865037 26.27291254 4.1865037 26.27291254 4 29 C2 31 2 31 -0.24658203 31.22705078 C-1.15778809 31.21657715 -2.06899414 31.20610352 -3.0078125 31.1953125 C-3.99394531 31.18886719 -4.98007812 31.18242187 -5.99609375 31.17578125 C-7.54490234 31.15064453 -7.54490234 31.15064453 -9.125 31.125 C-10.16527344 31.11597656 -11.20554687 31.10695313 -12.27734375 31.09765625 C-14.85179092 31.07403747 -17.42578212 31.04110149 -20 31 C-20 31.99 -20 32.98 -20 34 C-20.99 34 -21.98 34 -23 34 C-22.82597656 34.66386719 -22.65195312 35.32773437 -22.47265625 36.01171875 C-21.8930812 39.67597426 -22.1317579 43.14008047 -22.4375 46.8125 C-22.48970703 47.50537109 -22.54191406 48.19824219 -22.59570312 48.91210938 C-22.72439819 50.60854437 -22.86136184 52.30434863 -23 54 C-23.33 54 -23.66 54 -24 54 C-24 46.08 -24 38.16 -24 30 C-11.625 29.505 -11.625 29.505 1 29 C1.02689844 24.72912492 1.04678984 20.45841818 1.0625 16.1875 C1.07087891 14.97255859 1.07925781 13.75761719 1.08789062 12.50585938 C1.09111328 11.34248047 1.09433594 10.17910156 1.09765625 8.98046875 C1.10289307 7.90692139 1.10812988 6.83337402 1.11352539 5.72729492 C1.12194588 2.90500635 1.12194588 2.90500635 0 0 Z " fill="#EE0606" transform="translate(306,278)"/>
<path d="M0 0 C0 0.66 0 1.32 0 2 C0.66 2 1.32 2 2 2 C2.625 4.375 2.625 4.375 3 7 C0.38552153 9.61447847 -2.61689028 11.52970337 -6 13 C-7.32 13 -8.64 13 -10 13 C-9.32408258 8.77551615 -7.2505248 5.57436292 -5 2 C-2 0 -2 0 0 0 Z " fill="#F75844" transform="translate(612,684)"/>
<path d="M0 0 C0.33 0 0.66 0 1 0 C1 8.25 1 16.5 1 25 C-11.375 25.495 -11.375 25.495 -24 26 C-24.33 33.92 -24.66 41.84 -25 50 C-25.33 50 -25.66 50 -26 50 C-26.2835197 46.06415811 -26.52104557 42.12686291 -26.75 38.1875 C-26.83121094 37.06794922 -26.91242188 35.94839844 -26.99609375 34.79492188 C-27.08310547 33.18520508 -27.08310547 33.18520508 -27.171875 31.54296875 C-27.2347168 30.55321045 -27.29755859 29.56345215 -27.36230469 28.54370117 C-27 26 -27 26 -25.328125 24.15820312 C-22.48530303 22.74394689 -20.7372568 22.7327232 -17.578125 22.92578125 C-16.65418945 22.97387939 -15.73025391 23.02197754 -14.77832031 23.0715332 C-13.61397461 23.15105225 -12.44962891 23.23057129 -11.25 23.3125 C-7.5375 23.539375 -3.825 23.76625 0 24 C0 16.08 0 8.16 0 0 Z " fill="#EC0709" transform="translate(434,384)"/>
<path d="M0 0 C0.33 0 0.66 0 1 0 C1.33 7.92 1.66 15.84 2 24 C-6.58 24 -15.16 24 -24 24 C-23.67 23.34 -23.34 22.68 -23 22 C-18.9872339 20.83022686 -15.03114091 20.86617592 -10.875 20.875 C-9.65554688 20.87242187 -8.43609375 20.86984375 -7.1796875 20.8671875 C-4 21 -4 21 -1 22 C-0.67 14.74 -0.34 7.48 0 0 Z " fill="#650C0F" transform="translate(461,386)"/>
<path d="M0 0 C8.58 0 17.16 0 26 0 C26 0.33 26 0.66 26 1 C17.75 1 9.5 1 1 1 C1.144375 4.42375 1.28875 7.8475 1.4375 11.375 C1.48060303 12.45313965 1.52370605 13.5312793 1.56811523 14.64208984 C1.60622314 15.48980957 1.64433105 16.3375293 1.68359375 17.2109375 C1.72025146 18.08024902 1.75690918 18.94956055 1.79467773 19.84521484 C1.87401544 22.0483262 1.87401544 22.0483262 3 24 C10.59 24.33 18.18 24.66 26 25 C26 25.33 26 25.66 26 26 C21.85418113 26.02886751 17.70838784 26.04675327 13.5625 26.0625 C11.78649414 26.07506836 11.78649414 26.07506836 9.97460938 26.08789062 C8.84990234 26.09111328 7.72519531 26.09433594 6.56640625 26.09765625 C5.00321655 26.10551147 5.00321655 26.10551147 3.40844727 26.11352539 C1 26 1 26 0 25 C-0.08737645 23.14630389 -0.10698153 21.28932459 -0.09765625 19.43359375 C-0.09515869 18.42095459 -0.09266113 17.40831543 -0.09008789 16.36499023 C-0.08098389 15.06891846 -0.07187988 13.77284668 -0.0625 12.4375 C-0.041875 8.333125 -0.02125 4.22875 0 0 Z " fill="#B91E1E" transform="translate(254,384)"/>
<path d="M0 0 C0.33 0 0.66 0 1 0 C1 1.65 1 3.3 1 5 C0.34 5 -0.32 5 -1 5 C-1 6.98 -1 8.96 -1 11 C-2.32 10.67 -3.64 10.34 -5 10 C-5 10.66 -5 11.32 -5 12 C-4.34 12.33 -3.68 12.66 -3 13 C-4.32 13.33 -5.64 13.66 -7 14 C-8.85776765 10.86501708 -9.20140476 8.62528568 -9 5 C-8.071875 4.731875 -7.14375 4.46375 -6.1875 4.1875 C-3.20270088 3.07551601 -2.01587906 2.33417575 0 0 Z " fill="#F9FBF7" transform="translate(703,690)"/>
<path d="M0 0 C7.81156716 3.97947761 7.81156716 3.97947761 10 9 C10 9.99 10 10.98 10 12 C10.99 12.33 11.98 12.66 13 13 C11.02 13.33 9.04 13.66 7 14 C7 11.69 7 9.38 7 7 C6.34 7 5.68 7 5 7 C5 6.34 5 5.68 5 5 C2.12586875 4.66602213 2.12586875 4.66602213 -1 5 C-3.85184566 7.65516664 -4.42066178 10.2343016 -5 14 C-5.33 14.99 -5.66 15.98 -6 17 C-6.66 17 -7.32 17 -8 17 C-6.3943662 6.11971831 -6.3943662 6.11971831 -2 2 C-1.34 2 -0.68 2 0 2 C0 1.34 0 0.68 0 0 Z " fill="#7D2829" transform="translate(607,679)"/>
<path d="M0 0 C1.65 0 3.3 0 5 0 C5 1.98 5 3.96 5 6 C5.99 6 6.98 6 8 6 C7.67 7.65 7.34 9.3 7 11 C6.01 11 5.02 11 4 11 C3.34 9.02 2.68 7.04 2 5 C2 5.66 2 6.32 2 7 C-1 9 -1 9 -5 9 C-5 8.01 -5 7.02 -5 6 C-3.68 6 -2.36 6 -1 6 C-0.67 4.02 -0.34 2.04 0 0 Z " fill="#FBECE9" transform="translate(638,692)"/>
<path d="M0 0 C0.33 0 0.66 0 1 0 C1 8.25 1 16.5 1 25 C-7.25 25 -15.5 25 -24 25 C-24 24.34 -24 23.68 -24 23 C-22.02145742 22.80602524 -20.0421352 22.61998679 -18.0625 22.4375 C-16.96035156 22.33308594 -15.85820312 22.22867187 -14.72265625 22.12109375 C-13.82417969 22.08113281 -12.92570313 22.04117187 -12 22 C-11.67 22.33 -11.34 22.66 -11 23 C-9.31816052 23.23287008 -7.6287584 23.41264166 -5.9375 23.5625 C-5.01839844 23.64628906 -4.09929687 23.73007812 -3.15234375 23.81640625 C-2.08693359 23.90728516 -2.08693359 23.90728516 -1 24 C-1.00785522 22.9627478 -1.00785522 22.9627478 -1.01586914 21.90454102 C-1.036575 18.79053648 -1.04963963 15.67654639 -1.0625 12.5625 C-1.07087891 11.47388672 -1.07925781 10.38527344 -1.08789062 9.26367188 C-1.09272461 7.71196289 -1.09272461 7.71196289 -1.09765625 6.12890625 C-1.10551147 4.69140015 -1.10551147 4.69140015 -1.11352539 3.22485352 C-1 1 -1 1 0 0 Z " fill="#180000" transform="translate(252,254)"/>
<path d="M0 0 C8.25 0 16.5 0 25 0 C25 7.92 25 15.84 25 24 C24.34 23.67 23.68 23.34 23 23 C23.33 16.4 23.66 9.8 24 3 C22.02 3 20.04 3 18 3 C18 2.67 18 2.34 18 2 C12.06 1.67 6.12 1.34 0 1 C0 0.67 0 0.34 0 0 Z " fill="#160000" transform="translate(228,385)"/>
<path d="M0 0 C0.99 0 1.98 0 3 0 C2.67 8.58 2.34 17.16 2 26 C1.01 26 0.02 26 -1 26 C-0.67 17.42 -0.34 8.84 0 0 Z " fill="#E9080B" transform="translate(281,358)"/>
<path d="M0 0 C0.99 0 1.98 0 3 0 C3 5.28 3 10.56 3 16 C2.01 16 1.02 16 0 16 C0 14.02 0 12.04 0 10 C-0.99 10 -1.98 10 -3 10 C-3 9.01 -3 8.02 -3 7 C-2.01 7 -1.02 7 0 7 C0 4.69 0 2.38 0 0 Z " fill="#B0353F" transform="translate(643,682)"/>
<path d="M0 0 C0.99 0 1.98 0 3 0 C3 0.99 3 1.98 3 3 C3.99 3 4.98 3 6 3 C6 3.99 6 4.98 6 6 C5.01 6 4.02 6 3 6 C3 9.3 3 12.6 3 16 C2.01 16 1.02 16 0 16 C0 10.72 0 5.44 0 0 Z " fill="#B13B42" transform="translate(633,682)"/>
<path d="M0 0 C0.66 0.33 1.32 0.66 2 1 C3.32860925 1.35169068 4.66158328 1.68770276 6 2 C6 5 6 5 4 7.1875 C3.01 8.0846875 3.01 8.0846875 2 9 C1.278125 8.319375 0.55625 7.63875 -0.1875 6.9375 C-2.8205652 4.68262931 -2.8205652 4.68262931 -5.8125 5.25 C-6.8953125 5.62125 -6.8953125 5.62125 -8 6 C-8.33 4.68 -8.66 3.36 -9 2 C-7.6078125 2.061875 -7.6078125 2.061875 -6.1875 2.125 C-2.84190281 2.27136339 -2.84190281 2.27136339 0 0 Z M1 3 C2 5 2 5 2 5 Z " fill="#EDF4EA" transform="translate(617,672)"/>
<path d="M0 0 C1.16337891 0.00322266 2.32675781 0.00644531 3.52539062 0.00976562 C4.74033203 0.01814453 5.95527344 0.02652344 7.20703125 0.03515625 C8.43357422 0.03966797 9.66011719 0.04417969 10.92382812 0.04882812 C13.95577793 0.0606256 16.98763031 0.07708704 20.01953125 0.09765625 C20.01953125 0.75765625 20.01953125 1.41765625 20.01953125 2.09765625 C15.74942218 2.32317292 11.47851943 2.52513078 7.20703125 2.72265625 C5.99208984 2.78710938 4.77714844 2.8515625 3.52539062 2.91796875 C2.36201172 2.96953125 1.19863281 3.02109375 0 3.07421875 C-1.07354736 3.12658691 -2.14709473 3.17895508 -3.25317383 3.23291016 C-5.98046875 3.09765625 -5.98046875 3.09765625 -8.98046875 1.09765625 C-5.74295197 0.01848399 -3.40295104 -0.01659976 0 0 Z " fill="#D0131B" transform="translate(259.98046875,331.90234375)"/>
<path d="M0 0 C0.33 0 0.66 0 1 0 C1.33 16.17 1.66 32.34 2 49 C1.34 49 0.68 49 0 49 C0 45.7 0 42.4 0 39 C-0.99 39 -1.98 39 -3 39 C-3 38.34 -3 37.68 -3 37 C-2.01 36.505 -2.01 36.505 -1 36 C-0.67 24.12 -0.34 12.24 0 0 Z " fill="#F10705" transform="translate(251,283)"/>
<path d="M0 0 C0.33 0 0.66 0 1 0 C1 2.97 1 5.94 1 9 C1.99 9 2.98 9 4 9 C4 6.03 4 3.06 4 0 C6.67927341 4.01891012 6.15601248 6.24161923 6 11 C2.71303767 11.79953138 1.28976808 12.09658936 -2 11 C-1.85892253 9.54119891 -1.71197585 8.08296449 -1.5625 6.625 C-1.48128906 5.81289063 -1.40007813 5.00078125 -1.31640625 4.1640625 C-1 2 -1 2 0 0 Z " fill="#EAFCD0" transform="translate(680,689)"/>
<path d="M0 0 C8.25 0 16.5 0 25 0 C25 0.33 25 0.66 25 1 C24.00818726 1.03758423 24.00818726 1.03758423 22.99633789 1.07592773 C20.01817695 1.19153102 17.0403608 1.31441754 14.0625 1.4375 C12.50112305 1.49647461 12.50112305 1.49647461 10.90820312 1.55664062 C9.42416992 1.61948242 9.42416992 1.61948242 7.91015625 1.68359375 C6.99371338 1.72025146 6.07727051 1.75690918 5.13305664 1.79467773 C3.0179272 1.77003864 3.0179272 1.77003864 2 3 C1.84313751 4.55948542 1.74923361 6.12542668 1.68359375 7.69140625 C1.62075195 9.10776367 1.62075195 9.10776367 1.55664062 10.55273438 C1.51732422 11.54595703 1.47800781 12.53917969 1.4375 13.5625 C1.39431641 14.55958984 1.35113281 15.55667969 1.30664062 16.58398438 C1.20019702 19.0558415 1.09818072 21.5278031 1 24 C0.67 24 0.34 24 0 24 C0 16.08 0 8.16 0 0 Z " fill="#AE0000" transform="translate(410,410)"/>
<path d="M0 0 C0.99 0 1.98 0 3 0 C3 5.28 3 10.56 3 16 C2.01 16 1.02 16 0 16 C0 10.72 0 5.44 0 0 Z " fill="#ACCF71" transform="translate(681,682)"/>
<path d="M0 0 C0 4 0 4 -1 6 C-4.93673644 4.68775452 -7.22719294 3.08089673 -10 0 C-5.91847062 -2.09907226 -4.08152938 -2.09907226 0 0 Z " fill="#4D6C3E" transform="translate(617,678)"/>
<path d="M0 0 C0.33 0 0.66 0 1 0 C1.11269443 6.1105424 0.89604368 11.95170514 0 18 C-0.33 17.01 -0.66 16.02 -1 15 C-2.32 15 -3.64 15 -5 15 C-5 13.02 -5 11.04 -5 9 C-3.68 8.67 -2.36 8.34 -1 8 C-0.67 5.36 -0.34 2.72 0 0 Z " fill="#F7F4F8" transform="translate(666,680)"/>
<path d="M0 0 C0.66 0.66 1.32 1.32 2 2 C-2.75 5 -2.75 5 -5 5 C-5 5.66 -5 6.32 -5 7 C-6.1875 8.625 -6.1875 8.625 -8 10 C-10.6875 10.1875 -10.6875 10.1875 -13 10 C-13.33 8.68 -13.66 7.36 -14 6 C-10.71023192 4.90341064 -9.28696233 5.20046862 -6 6 C-5.67 5.01 -5.34 4.02 -5 3 C-2.4375 1.3125 -2.4375 1.3125 0 0 Z " fill="#9A2734" transform="translate(612,692)"/>
<path d="M0 0 C0.33 0 0.66 0 1 0 C1.83854735 6.90188971 2.01593448 13.11422188 1 20 C1.99 20.33 2.98 20.66 4 21 C4 21.66 4 22.32 4 23 C5.98 23 7.96 23 10 23 C10 23.33 10 23.66 10 24 C7.03 24 4.06 24 1 24 C-0.25248502 21.49502996 -0.11374406 19.79146726 -0.09765625 16.9921875 C-0.09443359 16.00605469 -0.09121094 15.01992188 -0.08789062 14.00390625 C-0.07951172 12.97136719 -0.07113281 11.93882812 -0.0625 10.875 C-0.05798828 9.83472656 -0.05347656 8.79445313 -0.04882812 7.72265625 C-0.03701952 5.14838038 -0.02055075 2.57421854 0 0 Z " fill="#F10609" transform="translate(308,436)"/>
<path d="M0 0 C0.66 0.33 1.32 0.66 2 1 C1.67 3.31 1.34 5.62 1 8 C-1.875 8.1875 -1.875 8.1875 -5 8 C-5.66 7.01 -6.32 6.02 -7 5 C-6.34 5 -5.68 5 -5 5 C-4.67 4.01 -4.34 3.02 -4 2 C-2.0625 0.75 -2.0625 0.75 0 0 Z " fill="#415028" transform="translate(621,679)"/>
<path d="M0 0 C1 3 1 3 0.0625 5.3125 C-1.14926993 8.37756511 -1.15192141 10.73368961 -1 14 C-0.34 14.33 0.32 14.66 1 15 C-0.65 15.33 -2.3 15.66 -4 16 C-5.38111722 13.7252187 -6.05694702 12.49828639 -5.75 9.8125 C-5 8 -5 8 -3 7 C-2.34444881 4.47266765 -2.34444881 4.47266765 -2 2 C-1.34 2 -0.68 2 0 2 C0 1.34 0 0.68 0 0 Z " fill="#FAECF1" transform="translate(600,688)"/>
<path d="M0 0 C1.32 0 2.64 0 4 0 C4 1.32 4 2.64 4 4 C4.99 4 5.98 4 7 4 C7 4.99 7 5.98 7 7 C6.01 7 5.02 7 4 7 C4 7.99 4 8.98 4 10 C3.01 10 2.02 10 1 10 C1.33 8.68 1.66 7.36 2 6 C1.34 5.67 0.68 5.34 0 5 C0 3.35 0 1.7 0 0 Z " fill="#8B8DB5" transform="translate(687,688)"/>
<path d="M0 0 C0.33 0 0.66 0 1 0 C1 2.97 1 5.94 1 9 C-1.97 9 -4.94 9 -8 9 C-8 6.36 -8 3.72 -8 1 C-6.68 1 -5.36 1 -4 1 C-4 1.66 -4 2.32 -4 3 C-4.66 3 -5.32 3 -6 3 C-6 3.99 -6 4.98 -6 6 C-4.02 6.66 -2.04 7.32 0 8 C0 5.36 0 2.72 0 0 Z " fill="#D39655" transform="translate(658,689)"/>
<path d="M0 0 C0.99 0.495 0.99 0.495 2 1 C3.24024621 5.96098482 3.10151176 10.92441192 3 16 C2.01 16 1.02 16 0 16 C0 10.72 0 5.44 0 0 Z " fill="#FDDECC" transform="translate(646,682)"/>
<path d="M0 0 C0.33 0 0.66 0 1 0 C1 3.63 1 7.26 1 11 C-3.01804691 11.84098656 -6.01803543 12.05404945 -10 11 C-10 10.34 -10 9.68 -10 9 C-6.7 9 -3.4 9 0 9 C0 6.03 0 3.06 0 0 Z " fill="#FCECC5" transform="translate(659,689)"/>
<path d="M0 0 C0 0.99 0 1.98 0 3 C-0.66 3 -1.32 3 -2 3 C-2 3.66 -2 4.32 -2 5 C-2.66 5 -3.32 5 -4 5 C-4.33 5.99 -4.66 6.98 -5 8 C-6.32 8 -7.64 8 -9 8 C-8.67 6.35 -8.34 4.7 -8 3 C-7.34 3 -6.68 3 -6 3 C-5.67 2.34 -5.34 1.68 -5 1 C-3 0 -3 0 0 0 Z " fill="#DED7D2" transform="translate(619,694)"/>
<path d="M0 0 C0.66 0 1.32 0 2 0 C2 5.28 2 10.56 2 16 C-0.92509086 12.09987886 -1.47535095 10.61691161 -2 6 C-1.67 6 -1.34 6 -1 6 C-0.67 4.02 -0.34 2.04 0 0 Z " fill="#FDE6E1" transform="translate(631,682)"/>
<path d="M0 0 C0.33 0 0.66 0 1 0 C1.33 3.3 1.66 6.6 2 10 C2.66 10 3.32 10 4 10 C4 11.98 4 13.96 4 16 C2.68 16 1.36 16 0 16 C0 10.72 0 5.44 0 0 Z " fill="#67BFDA" transform="translate(668,682)"/>
<path d="M0 0 C0.33 0.99 0.66 1.98 1 3 C1.99 3.33 2.98 3.66 4 4 C3.01 4 2.02 4 1 4 C1 4.99 1 5.98 1 7 C0.34 7 -0.32 7 -1 7 C-1.33 8.98 -1.66 10.96 -2 13 C-2.33 13 -2.66 13 -3 13 C-3 9.7 -3 6.4 -3 3 C-2.01 3 -1.02 3 0 3 C0 2.01 0 1.02 0 0 Z " fill="#F2A6A7" transform="translate(639,685)"/>
<path d="M0 0 C0 0.66 0 1.32 0 2 C0.66 2 1.32 2 2 2 C2.625 4.375 2.625 4.375 3 7 C2.34 7.66 1.68 8.32 1 9 C0.01 7.35 -0.98 5.7 -2 4 C-3.32 4.33 -4.64 4.66 -6 5 C-4.87312259 1.61936778 -3.78825335 0 0 0 Z " fill="#F84F45" transform="translate(612,684)"/>
<path d="M0 0 C0.66 0 1.32 0 2 0 C2.58603269 1.57477503 3.14307197 3.16036205 3.6875 4.75 C4.00074219 5.63171875 4.31398438 6.5134375 4.63671875 7.421875 C5 10 5 10 3.58203125 12.328125 C3.05996094 12.87984375 2.53789063 13.4315625 2 14 C2 13.01 2 12.02 2 11 C1.67 10.4225 1.34 9.845 1 9.25 C-0.38608984 6.13129787 -0.12959746 3.36953388 0 0 Z " fill="#E3EFE0" transform="translate(622,679)"/>
<path d="M0 0 C0 1.98 0 3.96 0 6 C-1.98 6 -3.96 6 -6 6 C-6 4.35 -6 2.7 -6 1 C-3 0 -3 0 0 0 Z " fill="#F4FAF5" transform="translate(254,248)"/>
<path d="M0 0 C0.66 0 1.32 0 2 0 C2 2.31 2 4.62 2 7 C2.99 7.33 3.98 7.66 5 8 C4.01 8.495 4.01 8.495 3 9 C3 9.99 3 10.98 3 12 C3.99 12.33 4.98 12.66 6 13 C4.68 13 3.36 13 2 13 C0.18884044 11.18884044 0.61800552 8.38721773 0.4375 5.9375 C0.35371094 4.83277344 0.26992188 3.72804688 0.18359375 2.58984375 C0.09271484 1.30787109 0.09271484 1.30787109 0 0 Z " fill="#E8F0F3" transform="translate(685,686)"/>
<path d="M0 0 C1.98 0 3.96 0 6 0 C5.01 0.33 4.02 0.66 3 1 C2.87625 1.78375 2.7525 2.5675 2.625 3.375 C2 6 2 6 0 8 C-1.32 8 -2.64 8 -4 8 C-4 7.34 -4 6.68 -4 6 C-2.68 6 -1.36 6 0 6 C0 4.02 0 2.04 0 0 Z " fill="#D2FAFE" transform="translate(672,692)"/>
<path d="M0 0 C0.99 0 1.98 0 3 0 C3 1.98 3 3.96 3 6 C3.99 6 4.98 6 6 6 C5.67 7.65 5.34 9.3 5 11 C4.01 11 3.02 11 2 11 C2 7.7 2 4.4 2 1 C1.34 0.67 0.68 0.34 0 0 Z " fill="#F9DFDB" transform="translate(640,692)"/>
<path d="M0 0 C1.9375 0.6875 1.9375 0.6875 4 2 C4.75 4.625 4.75 4.625 5 7 C5.99 7.33 6.98 7.66 8 8 C6.02 8.33 4.04 8.66 2 9 C2 6.69 2 4.38 2 2 C1.34 2 0.68 2 0 2 C0 1.34 0 0.68 0 0 Z " fill="#B52E31" transform="translate(612,684)"/>
<path d="M0 0 C0 1.98 0 3.96 0 6 C-0.99 6.495 -0.99 6.495 -2 7 C-2 6.34 -2 5.68 -2 5 C-2.99 5.33 -3.98 5.66 -5 6 C-4.625 3.5625 -4.625 3.5625 -4 1 C-2 0 -2 0 0 0 Z " fill="#56D7F2" transform="translate(676,684)"/>
<path d="M0 0 C0.66 0.33 1.32 0.66 2 1 C1.67 4.96 1.34 8.92 1 13 C0.67 13 0.34 13 0 13 C0 10.69 0 8.38 0 6 C-0.66 6 -1.32 6 -2 6 C-2 4.35 -2 2.7 -2 1 C-1.34 0.67 -0.68 0.34 0 0 Z " fill="#F00508" transform="translate(251,356)"/>
<path d="M0 0 C0.66 1.32 1.32 2.64 2 4 C-1.375 4.625 -1.375 4.625 -5 5 C-5.66 4.34 -6.32 3.68 -7 3 C-6.01 3 -5.02 3 -4 3 C-4 2.34 -4 1.68 -4 1 C-2.68 0.67 -1.36 0.34 0 0 Z " fill="#D5B9C3" transform="translate(608,699)"/>
<path d="M0 0 C1.65 0 3.3 0 5 0 C4.67 0.99 4.34 1.98 4 3 C4 3.99 4 4.98 4 6 C2.68 5.67 1.36 5.34 0 5 C0 3.35 0 1.7 0 0 Z " fill="#3B3D30" transform="translate(620,689)"/>
<path d="M0 0 C2 2 2 2 2 6 C0.35 6.33 -1.3 6.66 -3 7 C-3 3.48283697 -2.17554415 2.62878252 0 0 Z " fill="#FC663F" transform="translate(610,687)"/>
<path d="M0 0 C1.65 0 3.3 0 5 0 C4.625 1.9375 4.625 1.9375 4 4 C3.01 4.495 3.01 4.495 2 5 C1.34 4.67 0.68 4.34 0 4 C0 2.68 0 1.36 0 0 Z " fill="#ACAFC6" transform="translate(694,695)"/>
<path d="M0 0 C0.99 0 1.98 0 3 0 C3.33 1.98 3.66 3.96 4 6 C2.68 5.67 1.36 5.34 0 5 C0 3.35 0 1.7 0 0 Z " fill="#C69EB7" transform="translate(662,695)"/>
<path d="M0 0 C2.4375 0.375 2.4375 0.375 5 1 C5.33 1.66 5.66 2.32 6 3 C4.02 3.33 2.04 3.66 0 4 C0 2.68 0 1.36 0 0 Z " fill="#A1A4C3" transform="translate(694,688)"/>
<path d="M0 0 C0.99 0 1.98 0 3 0 C3 1.98 3 3.96 3 6 C2.01 6 1.02 6 0 6 C0 4.02 0 2.04 0 0 Z " fill="#CDDFA5" transform="translate(681,682)"/>
<path d="M0 0 C1.32 0 2.64 0 4 0 C2.77065985 3.68802044 1.06140622 4.72356973 -2 7 C-1.42415568 4.61435923 -0.77772405 2.33317216 0 0 Z " fill="#D92832" transform="translate(606,683)"/>
</svg>