<svg xmlns="http://www.w3.org/2000/svg" version="1.1" width="100" height="100">
<path d="M0 0 C1.83220093 -0.01418472 1.83220093 -0.01418472 3.70141602 -0.02865601 C5.66099243 -0.01954697 5.66099243 -0.01954697 7.66015625 -0.01025391 C9.02726395 -0.01227745 10.39437059 -0.01519123 11.76147461 -0.01895142 C14.61940847 -0.02336162 17.47706003 -0.01698624 20.33496094 -0.00292969 C23.98665338 0.01416187 27.63768421 0.00431361 31.28935242 -0.01364708 C34.11019824 -0.02452052 36.93088884 -0.02102238 39.7517395 -0.0132637 C41.74912956 -0.01030723 43.74652581 -0.01937128 45.74389648 -0.02865601 C46.96536377 -0.01919952 48.18683105 -0.00974304 49.4453125 0 C51.05031616 0.00358017 51.05031616 0.00358017 52.68774414 0.00723267 C56.25505521 0.45501185 58.65138914 1.54254622 61.72265625 3.38818359 C65.32076633 8.38816706 65.14690722 13.28672649 65.0859375 19.20458984 C65.08668526 20.60571266 65.08668526 20.60571266 65.08744812 22.03514099 C65.0851153 24.0026971 65.07543368 25.97025664 65.05883789 27.93774414 C65.03520656 30.94428244 65.03828803 33.94993509 65.04492188 36.95654297 C65.03934573 38.87256386 65.03223625 40.78858104 65.0234375 42.70458984 C65.02434891 43.6005336 65.02526031 44.49647736 65.02619934 45.41957092 C64.96673026 50.66739528 64.74903414 54.92128877 61.28515625 59.13818359 C57.99384793 61.77123025 54.6181587 61.52463166 50.58642578 61.54931641 C49.32146271 61.55892395 48.05649963 61.56853149 46.75320435 61.57843018 C45.37062765 61.5832781 43.98804886 61.58755694 42.60546875 61.59130859 C41.18683877 61.5970625 39.76820881 61.6028202 38.34957886 61.60858154 C35.37546426 61.61908248 32.40137662 61.62493112 29.42724609 61.62841797 C25.62186336 61.63390181 21.81683858 61.65793091 18.01156807 61.68638992 C15.08099333 61.70504074 12.15050441 61.71022318 9.21987534 61.71175385 C7.81728025 61.71477525 6.41468649 61.72278651 5.01214981 61.73593903 C3.0473975 61.75304914 1.08249712 61.74926729 -0.88232422 61.74462891 C-2.5575264 61.75009735 -2.5575264 61.75009735 -4.26657104 61.75567627 C-8.62750095 61.22338441 -11.21396828 59.45155906 -14.27734375 56.38818359 C-15.20305796 53.59436433 -15.41132599 51.01225067 -15.43847656 48.08203125 C-15.44808411 47.24080719 -15.45769165 46.39958313 -15.46759033 45.53286743 C-15.47184021 44.63176239 -15.47609009 43.73065735 -15.48046875 42.80224609 C-15.48616882 41.86770599 -15.4918689 40.93316589 -15.4977417 39.9703064 C-15.50717771 37.99502693 -15.51372012 36.01973183 -15.51757812 34.04443359 C-15.52728593 31.03113224 -15.55832347 28.01851255 -15.58984375 25.00537109 C-15.59637412 23.08350013 -15.60162446 21.16162431 -15.60546875 19.23974609 C-15.61781555 18.34268951 -15.63016235 17.44563293 -15.6428833 16.52139282 C-15.6249065 11.44463522 -15.34942608 7.64849366 -12.27734375 3.38818359 C-8.05208174 0.8494093 -4.90275265 0.01093623 0 0 Z " fill="#CE81D9" transform="translate(25.27734375,20.61181640625)"/>
<path d="M0 0 C1.22169388 -0.00960754 2.44338776 -0.01921509 3.70210266 -0.02911377 C5.0373211 -0.03396228 6.3725417 -0.03824098 7.70776367 -0.04199219 C9.07915752 -0.04774697 10.45055136 -0.05350466 11.82194519 -0.05926514 C14.69770685 -0.06976641 17.57344062 -0.07561456 20.44921875 -0.07910156 C24.12447254 -0.0845799 27.79935466 -0.108597 31.47449207 -0.13707352 C34.30817217 -0.15574898 37.14176368 -0.16090812 39.97550011 -0.16243744 C41.98621795 -0.16691635 43.99688827 -0.1855399 46.00752258 -0.20440674 C47.23867294 -0.20140564 48.4698233 -0.19840454 49.73828125 -0.1953125 C50.81733231 -0.19895813 51.89638336 -0.20260376 53.00813293 -0.20635986 C56.60482924 0.22628056 58.97986398 1.28015276 62.06323242 3.16113281 C64.06323242 6.16113281 64.06323242 6.16113281 63.90087891 8.18652344 C62.86711458 10.62344732 61.87937293 11.33694648 59.66088867 12.75488281 C58.94384766 13.2225708 58.22680664 13.69025879 57.48803711 14.17211914 C56.70847656 14.66349365 55.92891602 15.15486816 55.12573242 15.66113281 C53.48576901 16.71612743 51.84646553 17.77214847 50.20776367 18.82910156 C49.36036621 19.37228027 48.51296875 19.91545898 47.63989258 20.47509766 C45.07990272 22.15022462 42.57423888 23.88524003 40.07495117 25.64941406 C39.27629639 26.20628906 38.4776416 26.76316406 37.65478516 27.33691406 C36.1208112 28.40914442 34.59516407 29.49341041 33.07910156 30.59082031 C32.377771 31.07421875 31.67644043 31.55761719 30.95385742 32.05566406 C30.34574219 32.4872583 29.73762695 32.91885254 29.11108398 33.36352539 C26.0800924 34.54405108 24.1702947 34.01916434 21.06323242 33.16113281 C18.31835938 31.57885742 18.31835938 31.57885742 15.55151367 29.56347656 C14.54668945 28.84482422 13.54186523 28.12617187 12.5065918 27.38574219 C10.95681641 26.25362305 10.95681641 26.25362305 9.37573242 25.09863281 C7.31384378 23.60150578 5.24763617 22.11030325 3.17651367 20.62597656 C2.26683838 19.96202881 1.35716309 19.29808105 0.41992188 18.61401367 C-2.41297786 16.86755285 -3.92450841 16.92975929 -7.12426758 17.66113281 C-8.02145508 17.90863281 -8.02145508 17.90863281 -8.93676758 18.16113281 C-9.14172852 17.59523438 -9.34668945 17.02933594 -9.55786133 16.44628906 C-9.82727539 15.7128125 -10.09668945 14.97933594 -10.37426758 14.22363281 C-10.64110352 13.49273437 -10.90793945 12.76183594 -11.18286133 12.00878906 C-11.79063706 10.17807603 -11.79063706 10.17807603 -12.93676758 9.16113281 C-13.24926758 6.78613281 -13.24926758 6.78613281 -12.93676758 4.16113281 C-9.0304111 0.38947828 -5.24241724 0.03324643 0 0 Z " fill="#CE82D9" transform="translate(24.936767578125,20.8388671875)"/>
<path d="M0 0 C0.99 0.33 1.98 0.66 3 1 C4.33363703 1.14403348 5.67218046 1.24590423 7.01171875 1.31640625 C8.14770508 1.37924805 8.14770508 1.37924805 9.30664062 1.44335938 C10.48516602 1.50233398 10.48516602 1.50233398 11.6875 1.5625 C12.88342773 1.62727539 12.88342773 1.62727539 14.10351562 1.69335938 C16.06881447 1.79927368 18.03438496 1.90012551 20 2 C19.67 3.65 19.34 5.3 19 7 C17.02 7.33 15.04 7.66 13 8 C16.38690778 10.32578702 19.78593519 12.63321416 23.1875 14.9375 C24.14720703 15.59685547 25.10691406 16.25621094 26.09570312 16.93554688 C27.02705078 17.56396484 27.95839844 18.19238281 28.91796875 18.83984375 C29.77156982 19.42113037 30.6251709 20.00241699 31.50463867 20.60131836 C34.10431716 22.05847109 36.03573062 22.74851037 39 23 C41.26461234 21.71733339 43.10019148 20.46911149 45.125 18.875 C46.3514017 17.95767639 47.57935727 17.0424277 48.80859375 16.12890625 C49.4722998 15.6302002 50.13600586 15.13149414 50.81982422 14.61767578 C54.88542538 11.60102703 59.0314764 8.70264929 63.1875 5.8125 C64.01330566 5.22388184 64.83911133 4.63526367 65.68994141 4.02880859 C66.46644043 3.48949707 67.24293945 2.95018555 68.04296875 2.39453125 C69.07973755 1.66520386 69.07973755 1.66520386 70.13745117 0.92114258 C72 0 72 0 75 1 C75.495 3.475 75.495 3.475 76 6 C71.47446978 9.11196487 66.94308681 12.21495424 62.40234375 15.3046875 C58.89230242 17.69528291 55.40827252 20.11759134 51.94140625 22.5703125 C50.35697306 23.67216586 48.77234552 24.7737398 47.1875 25.875 C46.45418457 26.40448242 45.72086914 26.93396484 44.96533203 27.47949219 C44.26907715 27.95805664 43.57282227 28.43662109 42.85546875 28.9296875 C42.25371826 29.35491699 41.65196777 29.78014648 41.03198242 30.21826172 C38.01185506 31.3801562 36.09152044 30.85094635 33 30 C30.25512695 28.41772461 30.25512695 28.41772461 27.48828125 26.40234375 C26.48345703 25.68369141 25.47863281 24.96503906 24.44335938 24.22460938 C22.89358398 23.09249023 22.89358398 23.09249023 21.3125 21.9375 C19.25061136 20.44037296 17.18440375 18.94917044 15.11328125 17.46484375 C14.20360596 16.800896 13.29393066 16.13694824 12.35668945 15.45288086 C9.52378972 13.70642004 8.01225917 13.76862648 4.8125 14.5 C4.214375 14.665 3.61625 14.83 3 15 C2.79503906 14.43410156 2.59007812 13.86820313 2.37890625 13.28515625 C2.10949219 12.55167969 1.84007812 11.81820312 1.5625 11.0625 C1.29566406 10.33160156 1.02882813 9.60070312 0.75390625 8.84765625 C0.14613052 7.01694322 0.14613052 7.01694322 -1 6 C-1.125 3.5 -1.125 3.5 -1 1 C-0.67 0.67 -0.34 0.34 0 0 Z " fill="#F8F4F8" transform="translate(13,24)"/>
<path d="M0 0 C0.05813173 4.56244637 0.09364122 9.12479724 0.125 13.6875 C0.14175781 14.98107422 0.15851563 16.27464844 0.17578125 17.60742188 C0.18544922 19.47817383 0.18544922 19.47817383 0.1953125 21.38671875 C0.21102295 23.10701294 0.21102295 23.10701294 0.22705078 24.86206055 C-0.05755719 28.79546513 -0.92520714 31.69155652 -3.4375 34.75 C-6.17003011 36.93602408 -8.74575292 37.12385922 -12.10424805 37.11352539 C-13.3351844 37.11341209 -13.3351844 37.11341209 -14.59098816 37.11329651 C-15.9129998 37.10555458 -15.9129998 37.10555458 -17.26171875 37.09765625 C-18.16751175 37.0962413 -19.07330475 37.09482635 -20.00654602 37.09336853 C-22.90023091 37.08777001 -25.79383849 37.07521781 -28.6875 37.0625 C-30.64908742 37.05748481 -32.61067606 37.05292193 -34.57226562 37.04882812 C-39.38154021 37.03780107 -44.190757 37.02053747 -49 37 C-48.52189542 31.62132353 -48.52189542 31.62132353 -46.44042969 29.14331055 C-42.97323403 27.51897309 -39.70078124 27.62913452 -35.953125 27.70703125 C-35.18192322 27.71127609 -34.41072144 27.71552094 -33.6161499 27.71989441 C-31.16040685 27.73664617 -28.70549371 27.77429061 -26.25 27.8125 C-24.58204313 27.82755143 -22.91407335 27.84123903 -21.24609375 27.85351562 C-17.16374422 27.88653806 -13.08201268 27.93829516 -9 28 C-9.02094727 27.35973877 -9.04189453 26.71947754 -9.06347656 26.05981445 C-9.14689284 23.14420425 -9.19873969 20.22884548 -9.25 17.3125 C-9.28351563 16.30509766 -9.31703125 15.29769531 -9.3515625 14.25976562 C-9.45070627 6.7496251 -9.45070627 6.7496251 -7.109375 2.85546875 C-4.42120202 0.49087215 -3.61925618 0 0 0 Z " fill="#B16FBB" transform="translate(90,45)"/>
<path d="M0 0 C1.05348633 0.00080566 2.10697266 0.00161133 3.19238281 0.00244141 C23.20375743 0.15921254 23.20375743 0.15921254 30.3125 4.1875 C30.3125 5.1775 30.3125 6.1675 30.3125 7.1875 C21.0359298 10.18192229 12.32653859 10.65636321 2.68554688 10.57861328 C0.3158209 10.56252255 -2.05220031 10.57854597 -4.421875 10.59765625 C-13.25298478 10.60803114 -21.20011763 9.9271771 -29.6875 7.1875 C-29.3575 5.8675 -29.0275 4.5475 -28.6875 3.1875 C-19.12054035 0.57832919 -9.90117203 -0.00787057 0 0 Z " fill="#000000" transform="translate(49.6875,89.8125)"/>
<path d="M0 0 C1.18797432 0.00424484 1.18797432 0.00424484 2.39994812 0.00857544 C4.91652874 0.01972387 7.43274664 0.04481828 9.94921875 0.0703125 C11.66080213 0.08034921 13.37239112 0.08947386 15.08398438 0.09765625 C19.26836781 0.11964569 23.45248189 0.15413842 27.63671875 0.1953125 C27.11491243 3.49791879 26.86919153 4.93394731 24.59375 7.4921875 C20.67671977 9.74823133 17.74853995 9.65091098 13.32421875 9.4453125 C12.21336914 9.41824219 12.21336914 9.41824219 11.08007812 9.390625 C9.26506165 9.34378587 7.45071709 9.27205039 5.63671875 9.1953125 C5.63671875 7.8753125 5.63671875 6.5553125 5.63671875 5.1953125 C4.43273437 5.23011719 3.22875 5.26492187 1.98828125 5.30078125 C0.41277433 5.3289153 -1.16274763 5.35621587 -2.73828125 5.3828125 C-3.53234375 5.40794922 -4.32640625 5.43308594 -5.14453125 5.45898438 C-7.21914273 5.48535655 -9.2942899 5.35017712 -11.36328125 5.1953125 C-12.02328125 4.2053125 -12.68328125 3.2153125 -13.36328125 2.1953125 C-8.94052578 -0.01415393 -4.83645196 -0.06554801 0 0 Z " fill="#DBA5E3" transform="translate(27.36328125,20.8046875)"/>
<path d="M0 0 C3.2910841 3.60957611 4.54663921 6.12637153 5 11 C5.99 11.33 6.98 11.66 8 12 C8.48218104 16.91824661 8.76231598 19.96240325 5.75 24.0625 C3 26 3 26 -1 26 C-1.02899599 22.22918278 -1.04679729 18.45839417 -1.0625 14.6875 C-1.07087891 13.61564453 -1.07925781 12.54378906 -1.08789062 11.43945312 C-1.09111328 10.41142578 -1.09433594 9.38339844 -1.09765625 8.32421875 C-1.10289307 7.37635498 -1.10812988 6.42849121 -1.11352539 5.4519043 C-1 3 -1 3 0 0 Z " fill="#DDA6E4" transform="translate(11,27)"/>
</svg>